<?xml version="1.0" encoding="UTF-8" standalone="no"?>
<svg
   version="1.2"
   width="56.529999mm"
   height="60.55658mm"
   viewBox="0 0 5653 6055.658"
   preserveAspectRatio="xMidYMid"
   fill-rule="evenodd"
   stroke-width="28.222"
   stroke-linejoin="round"
   xml:space="preserve"
   id="svg262"
   sodipodi:docname="jab3b.svg"
   inkscape:version="1.2.2 (732a01da63, 2022-12-09, custom)"
   xmlns:inkscape="http://www.inkscape.org/namespaces/inkscape"
   xmlns:sodipodi="http://sodipodi.sourceforge.net/DTD/sodipodi-0.dtd"
   xmlns="http://www.w3.org/2000/svg"
   xmlns:svg="http://www.w3.org/2000/svg"
   xmlns:ooo="http://xml.openoffice.org/svg/export"><sodipodi:namedview
   id="namedview264"
   pagecolor="#ffffff"
   bordercolor="#000000"
   borderopacity="0.25"
   inkscape:showpageshadow="2"
   inkscape:pageopacity="0.0"
   inkscape:pagecheckerboard="0"
   inkscape:deskcolor="#d1d1d1"
   inkscape:document-units="mm"
   showgrid="false"
   inkscape:zoom="3.4885866"
   inkscape:cx="106.92009"
   inkscape:cy="116.52283"
   inkscape:window-width="1850"
   inkscape:window-height="1016"
   inkscape:window-x="0"
   inkscape:window-y="0"
   inkscape:window-maximized="1"
   inkscape:current-layer="layer1" />
 <defs
   class="ClipPathGroup"
   id="defs204">
  <clipPath
   id="presentation_clip_path"
   clipPathUnits="userSpaceOnUse">
   <rect
   x="0"
   y="0"
   width="5655"
   height="6166"
   id="rect198" />
  </clipPath>
  <clipPath
   id="presentation_clip_path_shrink"
   clipPathUnits="userSpaceOnUse">
   <rect
   x="5"
   y="6"
   width="5644"
   height="6154"
   id="rect201" />
  </clipPath>
 </defs>
 <defs
   class="TextShapeIndex"
   id="defs208">
  <g
   ooo:slide="id1"
   ooo:id-list="id3"
   id="g206" />
 </defs>
 <defs
   class="EmbeddedBulletChars"
   id="defs240">
  <g
   id="bullet-char-template-57356"
   transform="matrix(4.8828125e-4,0,0,-4.8828125e-4,0,0)">
   <path
   d="M 580,1141 1163,571 580,0 -4,571 Z"
   id="path210" />
  </g>
  <g
   id="bullet-char-template-57354"
   transform="matrix(4.8828125e-4,0,0,-4.8828125e-4,0,0)">
   <path
   d="M 8,1128 H 1137 V 0 H 8 Z"
   id="path213" />
  </g>
  <g
   id="bullet-char-template-10146"
   transform="matrix(4.8828125e-4,0,0,-4.8828125e-4,0,0)">
   <path
   d="M 174,0 602,739 174,1481 1456,739 Z M 1358,739 309,1346 659,739 Z"
   id="path216" />
  </g>
  <g
   id="bullet-char-template-10132"
   transform="matrix(4.8828125e-4,0,0,-4.8828125e-4,0,0)">
   <path
   d="M 2015,739 1276,0 H 717 l 543,543 H 174 v 393 h 1086 l -543,545 h 557 z"
   id="path219" />
  </g>
  <g
   id="bullet-char-template-10007"
   transform="matrix(4.8828125e-4,0,0,-4.8828125e-4,0,0)">
   <path
   d="m 0,-2 c -7,16 -16,29 -25,39 l 381,530 c -94,256 -141,385 -141,387 0,25 13,38 40,38 9,0 21,-2 34,-5 21,4 42,12 65,25 l 27,-13 111,-251 280,301 64,-25 24,25 c 21,-10 41,-24 62,-43 C 886,937 835,863 770,784 769,783 710,716 594,584 L 774,223 c 0,-27 -21,-55 -63,-84 l 16,-20 C 717,90 699,76 672,76 641,76 570,178 457,381 L 164,-76 c -22,-34 -53,-51 -92,-51 -42,0 -63,17 -64,51 -7,9 -10,24 -10,44 0,9 1,19 2,30 z"
   id="path222" />
  </g>
  <g
   id="bullet-char-template-10004"
   transform="matrix(4.8828125e-4,0,0,-4.8828125e-4,0,0)">
   <path
   d="M 285,-33 C 182,-33 111,30 74,156 52,228 41,333 41,471 c 0,78 14,145 41,201 34,71 87,106 158,106 53,0 88,-31 106,-94 l 23,-176 c 8,-64 28,-97 59,-98 l 735,706 c 11,11 33,17 66,17 42,0 63,-15 63,-46 V 965 c 0,-36 -10,-64 -30,-84 L 442,47 C 390,-6 338,-33 285,-33 Z"
   id="path225" />
  </g>
  <g
   id="bullet-char-template-9679"
   transform="matrix(4.8828125e-4,0,0,-4.8828125e-4,0,0)">
   <path
   d="M 813,0 C 632,0 489,54 383,161 276,268 223,411 223,592 c 0,181 53,324 160,431 106,107 249,161 430,161 179,0 323,-54 432,-161 108,-107 162,-251 162,-431 0,-180 -54,-324 -162,-431 C 1136,54 992,0 813,0 Z"
   id="path228" />
  </g>
  <g
   id="bullet-char-template-8226"
   transform="matrix(4.8828125e-4,0,0,-4.8828125e-4,0,0)">
   <path
   d="m 346,457 c -73,0 -137,26 -191,78 -54,51 -81,114 -81,188 0,73 27,136 81,188 54,52 118,78 191,78 73,0 134,-26 185,-79 51,-51 77,-114 77,-187 0,-75 -25,-137 -76,-188 -50,-52 -112,-78 -186,-78 z"
   id="path231" />
  </g>
  <g
   id="bullet-char-template-8211"
   transform="matrix(4.8828125e-4,0,0,-4.8828125e-4,0,0)">
   <path
   d="M -4,459 H 1135 V 606 H -4 Z"
   id="path234" />
  </g>
  <g
   id="bullet-char-template-61548"
   transform="matrix(4.8828125e-4,0,0,-4.8828125e-4,0,0)">
   <path
   d="m 173,740 c 0,163 58,303 173,419 116,115 255,173 419,173 163,0 302,-58 418,-173 116,-116 174,-256 174,-419 0,-163 -58,-303 -174,-418 C 1067,206 928,148 765,148 601,148 462,206 346,322 231,437 173,577 173,740 Z"
   id="path237" />
  </g>
 </defs>
 
 
<g
   inkscape:groupmode="layer"
   id="layer1"
   inkscape:label="Layer 1"
   transform="translate(0,-0.34190208)"><path
     d="m 2518,5967 236,6 214,-17 298,56 79,44 v -98 l 58,10 c 160,27 359,28 450,2 121,-35 256,-104 362,-187 126,-97 416,-402 518,-546 449,-633 789,-1514 902,-2334 11,-86 17,-221 18,-363 v -56 c -1,-175 -9,-351 -25,-446 -75,-446 -234,-743 -493,-919 -134,-91 -476,-223 -662,-255 -85,-15 -180,-33 -210,-41 -70,-17 -516,-73 -677,-85 -68,-4 -202,-15 -296,-23 -94,-8 -267,-19 -385,-25 -117,-6 -213,-12 -213,-13 0,-18 -81,-412 -88,-429 -5,-13 -12,-57 -14,-99 -6,-91 -23,-114 -89,-117 -28,-1 -75,-5 -105,-10 -30,-4 -116,-12 -191,-17 -173,-13 -183,-7 -178,128 4,101 5,102 85,174 79,71 109,130 174,332 l 13,40 -145,11 c -165,11 -408,46 -508,72 C 803,980 553,1112 268,1489 68,1755 14,1935 2,2387 c -1,50 -2,97 -2,141 v 9 c 0,201 14,344 53,572 101,590 381,1309 714,1830 150,234 232,339 404,519 341,357 628,517 937,524 77,2 170,-3 206,-11 l 66,-13 v 33 z"
     id="path249" /><path
     d="m 3376,5855 c -73,-18 -192,-47 -265,-65 -73,-18 -167,-40 -210,-48 -79,-15 -226,-6 -270,17 -33,18 -269,88 -372,112 -108,24 -307,-2 -438,-57 -291,-123 -581,-381 -855,-764 -52,-72 -205,-316 -205,-326 0,-3 -32,-59 -70,-124 -39,-65 -70,-122 -70,-126 0,-4 -22,-55 -49,-112 -26,-58 -60,-134 -75,-168 -16,-34 -39,-88 -53,-119 -14,-31 -26,-62 -26,-68 0,-6 -10,-33 -22,-60 -12,-27 -30,-77 -40,-111 -10,-34 -24,-76 -32,-93 -7,-18 -24,-70 -36,-117 -13,-47 -38,-138 -57,-203 -83,-289 -123,-596 -124,-949 0,-366 23,-512 112,-714 62,-140 264,-391 339,-422 24,-10 47,-30 51,-44 7,-25 152,-118 329,-212 42,-22 97,-40 121,-40 24,0 84,-21 134,-47 55,-28 181,-67 330,-101 302,-69 826,-139 826,-111 0,3 74,204 163,447 90,242 162,442 160,444 -2,2 -63,-12 -136,-31 -144,-37 -334,-122 -462,-206 -77,-51 -145,-68 -145,-38 0,50 320,228 553,308 114,39 143,43 357,42 334,0 469,-39 770,-221 65,-39 131,-83 148,-99 18,-16 46,-39 63,-52 22,-17 25,-23 7,-22 -24,0 -29,2 -290,146 -216,119 -342,163 -480,168 l -108,4 -121,-437 c -65,-239 -119,-441 -120,-449 -1,-15 454,-1 707,23 590,54 1112,143 1323,226 77,31 144,61 148,67 5,6 58,38 120,70 276,144 436,424 521,912 52,297 3,994 -94,1338 -54,192 -98,339 -111,366 -8,17 -22,63 -32,102 -9,38 -23,77 -29,85 -7,9 -21,44 -31,78 -19,63 -33,96 -93,228 -18,39 -33,76 -33,81 0,21 -201,426 -240,482 -22,32 -40,65 -40,71 0,7 -21,40 -46,73 -26,34 -47,67 -47,74 0,7 -8,21 -16,31 -9,10 -63,82 -120,159 -233,314 -520,547 -750,608 -47,12 -89,26 -94,32 -17,17 -240,-6 -375,-38 z"
     id="path410"
     style="fill:#00ff00" /></g></svg>
