<?xml version="1.0" encoding="UTF-8" standalone="no"?>
<svg
   version="1.2"
   width="588.59003mm"
   height="583.04004mm"
   viewBox="0 0 58859.004 58304.001"
   preserveAspectRatio="xMidYMid"
   fill-rule="evenodd"
   stroke-width="28.222"
   stroke-linejoin="round"
   xml:space="preserve"
   id="svg2770"
   sodipodi:docname="MartialArts3B.svg"
   inkscape:version="1.2.2 (732a01da63, 2022-12-09, custom)"
   xmlns:inkscape="http://www.inkscape.org/namespaces/inkscape"
   xmlns:sodipodi="http://sodipodi.sourceforge.net/DTD/sodipodi-0.dtd"
   xmlns="http://www.w3.org/2000/svg"
   xmlns:svg="http://www.w3.org/2000/svg"
   xmlns:ooo="http://xml.openoffice.org/svg/export"><sodipodi:namedview
   id="namedview2772"
   pagecolor="#ffffff"
   bordercolor="#000000"
   borderopacity="0.25"
   inkscape:showpageshadow="2"
   inkscape:pageopacity="0.0"
   inkscape:pagecheckerboard="0"
   inkscape:deskcolor="#d1d1d1"
   inkscape:document-units="mm"
   showgrid="false"
   inkscape:zoom="0.31723122"
   inkscape:cx="1109.6008"
   inkscape:cy="1101.7201"
   inkscape:window-width="1850"
   inkscape:window-height="1016"
   inkscape:window-x="0"
   inkscape:window-y="0"
   inkscape:window-maximized="1"
   inkscape:current-layer="layer1" />
 <defs
   class="ClipPathGroup"
   id="defs2320">
  <clipPath
   id="presentation_clip_path"
   clipPathUnits="userSpaceOnUse">
   <rect
   x="0"
   y="0"
   width="58861"
   height="58653"
   id="rect2314" />
  </clipPath>
  <clipPath
   id="presentation_clip_path_shrink"
   clipPathUnits="userSpaceOnUse">
   <rect
   x="58"
   y="58"
   width="58744"
   height="58536"
   id="rect2317" />
  </clipPath>
 </defs>
 <defs
   class="TextShapeIndex"
   id="defs2324">
  <g
   ooo:slide="id1"
   ooo:id-list="id3 id4 id5 id6 id7 id8 id9 id10 id11 id12 id13 id14 id15 id16 id17 id18 id19 id20 id21 id22 id23 id24 id25 id26 id27 id28 id29 id30 id31 id32 id33 id34 id35 id36 id37 id38 id39 id40 id41 id42 id43 id44 id45 id46 id47 id48 id49 id50 id51 id52 id53 id54 id55 id56 id57 id58 id59"
   id="g2322" />
 </defs>
 <defs
   class="EmbeddedBulletChars"
   id="defs2356">
  <g
   id="bullet-char-template-57356"
   transform="matrix(4.8828125e-4,0,0,-4.8828125e-4,0,0)">
   <path
   d="M 580,1141 1163,571 580,0 -4,571 Z"
   id="path2326" />
  </g>
  <g
   id="bullet-char-template-57354"
   transform="matrix(4.8828125e-4,0,0,-4.8828125e-4,0,0)">
   <path
   d="M 8,1128 H 1137 V 0 H 8 Z"
   id="path2329" />
  </g>
  <g
   id="bullet-char-template-10146"
   transform="matrix(4.8828125e-4,0,0,-4.8828125e-4,0,0)">
   <path
   d="M 174,0 602,739 174,1481 1456,739 Z M 1358,739 309,1346 659,739 Z"
   id="path2332" />
  </g>
  <g
   id="bullet-char-template-10132"
   transform="matrix(4.8828125e-4,0,0,-4.8828125e-4,0,0)">
   <path
   d="M 2015,739 1276,0 H 717 l 543,543 H 174 v 393 h 1086 l -543,545 h 557 z"
   id="path2335" />
  </g>
  <g
   id="bullet-char-template-10007"
   transform="matrix(4.8828125e-4,0,0,-4.8828125e-4,0,0)">
   <path
   d="m 0,-2 c -7,16 -16,29 -25,39 l 381,530 c -94,256 -141,385 -141,387 0,25 13,38 40,38 9,0 21,-2 34,-5 21,4 42,12 65,25 l 27,-13 111,-251 280,301 64,-25 24,25 c 21,-10 41,-24 62,-43 C 886,937 835,863 770,784 769,783 710,716 594,584 L 774,223 c 0,-27 -21,-55 -63,-84 l 16,-20 C 717,90 699,76 672,76 641,76 570,178 457,381 L 164,-76 c -22,-34 -53,-51 -92,-51 -42,0 -63,17 -64,51 -7,9 -10,24 -10,44 0,9 1,19 2,30 z"
   id="path2338" />
  </g>
  <g
   id="bullet-char-template-10004"
   transform="matrix(4.8828125e-4,0,0,-4.8828125e-4,0,0)">
   <path
   d="M 285,-33 C 182,-33 111,30 74,156 52,228 41,333 41,471 c 0,78 14,145 41,201 34,71 87,106 158,106 53,0 88,-31 106,-94 l 23,-176 c 8,-64 28,-97 59,-98 l 735,706 c 11,11 33,17 66,17 42,0 63,-15 63,-46 V 965 c 0,-36 -10,-64 -30,-84 L 442,47 C 390,-6 338,-33 285,-33 Z"
   id="path2341" />
  </g>
  <g
   id="bullet-char-template-9679"
   transform="matrix(4.8828125e-4,0,0,-4.8828125e-4,0,0)">
   <path
   d="M 813,0 C 632,0 489,54 383,161 276,268 223,411 223,592 c 0,181 53,324 160,431 106,107 249,161 430,161 179,0 323,-54 432,-161 108,-107 162,-251 162,-431 0,-180 -54,-324 -162,-431 C 1136,54 992,0 813,0 Z"
   id="path2344" />
  </g>
  <g
   id="bullet-char-template-8226"
   transform="matrix(4.8828125e-4,0,0,-4.8828125e-4,0,0)">
   <path
   d="m 346,457 c -73,0 -137,26 -191,78 -54,51 -81,114 -81,188 0,73 27,136 81,188 54,52 118,78 191,78 73,0 134,-26 185,-79 51,-51 77,-114 77,-187 0,-75 -25,-137 -76,-188 -50,-52 -112,-78 -186,-78 z"
   id="path2347" />
  </g>
  <g
   id="bullet-char-template-8211"
   transform="matrix(4.8828125e-4,0,0,-4.8828125e-4,0,0)">
   <path
   d="M -4,459 H 1135 V 606 H -4 Z"
   id="path2350" />
  </g>
  <g
   id="bullet-char-template-61548"
   transform="matrix(4.8828125e-4,0,0,-4.8828125e-4,0,0)">
   <path
   d="m 173,740 c 0,163 58,303 173,419 116,115 255,173 419,173 163,0 302,-58 418,-173 116,-116 174,-256 174,-419 0,-163 -58,-303 -174,-418 C 1067,206 928,148 765,148 601,148 462,206 346,322 231,437 173,577 173,740 Z"
   id="path2353" />
  </g>
 </defs>
 
 <g
   inkscape:groupmode="layer"
   id="layer1"
   inkscape:label="Layer 1"><path
     fill="#000000"
     stroke="none"
     d="m 18935,58622 c -252,-14 -634,-27 -850,-29 l -391,-4 -112,-124 -113,-124 125,-255 c 171,-348 321,-561 459,-651 136,-90 1066,-382 1517,-477 630,-133 1151,-393 1694,-844 263,-219 484,-369 687,-466 165,-79 308,-152 318,-164 10,-12 69,-42 132,-68 105,-42 115,-60 115,-198 0,-171 47,-420 141,-757 79,-277 107,-636 112,-1428 2,-475 -10,-643 -58,-807 -45,-153 -59,-305 -51,-582 6,-221 -7,-414 -30,-469 -42,-100 -272,-347 -323,-347 -31,0 -180,-220 -317,-469 -61,-110 -74,-196 -76,-494 -3,-482 -37,-663 -159,-843 -57,-84 -131,-231 -164,-328 -71,-205 -83,-669 -23,-882 29,-106 28,-217 -4,-441 -41,-285 -66,-395 -192,-847 -30,-107 -80,-333 -112,-502 -31,-170 -71,-300 -88,-289 -18,10 -32,-58 -32,-151 0,-94 -22,-202 -49,-241 -29,-42 -47,-158 -46,-299 1,-154 -24,-297 -77,-437 -43,-115 -124,-480 -181,-812 -126,-739 -202,-1015 -401,-1458 -85,-189 -181,-422 -214,-518 -52,-154 -121,-564 -124,-734 -1,-43 -30,-62 -91,-62 -116,0 -143,-78 -76,-221 29,-63 70,-251 90,-418 20,-167 76,-405 125,-529 49,-124 113,-337 142,-473 28,-135 76,-358 106,-493 84,-385 81,-434 -100,-1341 -12,-58 -36,-1185 -54,-2505 -19,-1319 -53,-2764 -76,-3212 -37,-727 -35,-834 16,-1010 78,-269 72,-420 -31,-752 -106,-340 -106,-339 -17,-440 65,-74 70,-131 69,-684 -1,-782 -54,-1673 -110,-1860 -30,-100 -132,-242 -314,-438 -274,-296 -336,-402 -551,-933 -176,-435 -223,-645 -223,-1004 -1,-396 -34,-519 -204,-743 -175,-231 -450,-415 -814,-545 -162,-58 -344,-137 -406,-174 -61,-38 -208,-102 -326,-141 -119,-40 -387,-169 -595,-287 -473,-269 -479,-271 -913,-336 -466,-70 -712,-134 -1094,-286 -172,-69 -425,-156 -563,-194 -138,-38 -640,-229 -1116,-424 -1844,-754 -2035,-841 -2439,-1108 -127,-84 -365,-216 -529,-292 -163,-77 -471,-221 -685,-321 -365,-171 -617,-352 -617,-444 0,-22 -28,-64 -62,-92 -63,-54 -550,-277 -603,-277 -82,0 -584,1178 -762,1789 -67,229 -187,615 -267,857 -80,243 -176,540 -214,661 -38,121 -164,375 -281,565 -117,189 -228,402 -247,474 -19,71 -74,500 -122,952 -106,988 -132,1127 -286,1499 -65,159 -133,391 -151,515 -18,125 -64,289 -102,365 -39,75 -96,224 -128,331 -70,237 -275,553 -392,607 -78,35 -533,658 -875,1197 -69,109 -225,434 -346,723 -205,490 -220,542 -222,806 -2,274 2,289 131,465 213,291 338,613 486,1255 77,331 139,635 139,675 0,41 -66,312 -147,603 -176,630 -252,739 -548,778 -163,22 -181,35 -236,159 -83,187 -355,481 -527,568 -133,68 -178,71 -679,48 l -537,-25 -278,-270 c -153,-148 -353,-339 -445,-424 -139,-130 -166,-175 -165,-282 1,-239 96,-669 174,-797 64,-102 71,-137 36,-179 -34,-41 -31,-69 14,-139 32,-48 57,-117 57,-155 0,-37 86,-240 190,-451 l 189,-383 45,-605 c 25,-333 37,-637 27,-674 -10,-38 -6,-496 10,-1017 l 27,-948 125,-395 c 104,-330 134,-500 180,-1021 72,-820 219,-1472 394,-1750 157,-249 302,-633 382,-1015 170,-804 372,-1303 671,-1653 182,-214 199,-261 318,-922 122,-670 175,-875 320,-1226 138,-333 160,-643 68,-947 -53,-177 -94,-537 -158,-1407 -21,-272 -62,-598 -93,-724 -36,-147 -56,-392 -56,-688 0,-387 17,-534 111,-952 134,-596 214,-767 517,-1111 128,-146 313,-384 411,-529 98,-146 277,-392 397,-547 120,-155 311,-445 425,-644 258,-450 414,-659 871,-1168 445,-494 474,-538 523,-781 22,-107 59,-226 84,-265 83,-133 164,-551 184,-957 15,-301 11,-328 -63,-397 -104,-97 -166,-94 -206,9 -41,109 -202,234 -301,234 -42,0 -105,30 -138,67 -34,37 -136,102 -226,144 -238,110 -336,168 -377,224 -31,42 -409,235 -462,235 -44,0 -330,145 -350,177 -30,49 -256,141 -345,141 -67,0 -224,-42 -395,-107 -39,-15 -155,-52 -259,-83 -225,-67 -186,-40 -1311,-900 C 1666,8765 1496,8626 1378,8466 1225,8259 866,7511 765,7191 731,7084 692,6981 678,6962 664,6942 640,6841 626,6736 591,6472 524,6329 386,6224 198,6080 8,5608 0,5304 v -42 c 1,-26 3,-50 7,-72 72,-406 123,-598 184,-685 36,-52 65,-121 65,-154 0,-32 23,-101 52,-153 28,-51 74,-175 103,-275 28,-100 123,-282 212,-404 89,-122 162,-246 162,-275 0,-73 703,-990 812,-1059 111,-70 234,-180 472,-420 119,-120 291,-240 483,-337 163,-82 368,-217 456,-299 87,-82 190,-179 229,-215 101,-93 566,-314 718,-341 71,-13 157,-38 191,-56 92,-47 1051,-170 1328,-170 222,0 250,10 429,143 252,187 528,502 633,721 47,99 91,266 99,379 14,200 17,204 143,236 70,18 198,44 285,57 86,14 197,53 247,88 49,34 193,81 319,105 126,23 261,59 300,80 171,91 436,318 454,390 10,43 68,151 127,240 99,150 123,166 327,208 121,25 264,67 318,94 54,27 151,45 217,40 66,-4 145,13 174,37 30,25 179,52 330,60 481,24 614,50 733,140 62,48 148,87 190,87 119,0 224,196 197,370 -65,432 -78,381 149,556 282,218 332,281 354,447 14,105 36,144 80,144 73,0 177,108 177,183 0,100 105,308 174,345 38,20 124,36 191,36 89,0 170,38 296,137 241,190 310,407 275,865 -13,179 -38,348 -55,375 -16,27 -138,122 -270,210 -277,186 -305,260 -104,276 127,11 135,18 117,107 -12,62 4,125 45,180 53,70 92,83 226,78 420,-16 1449,-277 1718,-437 86,-50 372,-265 635,-476 634,-508 677,-533 1008,-574 153,-19 452,-85 666,-145 353,-101 417,-109 723,-89 389,25 658,90 807,196 58,41 476,200 928,353 452,153 963,336 1134,408 371,155 965,310 1478,386 523,78 1339,70 2369,-22 l 878,-79 198,115 c 351,203 828,426 1009,471 206,51 238,74 749,540 213,194 470,422 571,507 240,200 335,350 465,731 99,292 244,1004 244,1200 0,144 -208,314 -688,562 l -459,238 -677,-23 c -601,-19 -711,-14 -969,48 -159,38 -381,79 -492,92 l -202,23 -711,-357 c -392,-197 -749,-357 -793,-357 -45,0 -150,26 -235,59 -124,48 -279,59 -789,59 -616,0 -645,-3 -981,-111 -694,-224 -1259,-303 -1259,-177 0,22 47,113 105,203 145,226 333,643 422,937 41,136 154,390 251,564 273,493 389,754 430,968 87,458 75,439 453,751 195,161 440,358 547,440 459,351 1206,472 1720,279 445,-168 931,-190 1416,-66 256,66 453,67 1729,12 996,-42 1381,-80 1508,-148 78,-42 888,-301 1313,-419 155,-44 548,-196 872,-339 324,-144 599,-261 611,-261 12,0 652,-303 1422,-675 1481,-714 2029,-963 2687,-1219 223,-87 542,-212 709,-278 168,-65 549,-190 847,-277 1212,-355 1951,-696 2959,-1365 637,-424 721,-497 1087,-952 293,-365 475,-522 1088,-937 717,-486 1492,-881 1863,-949 155,-29 409,-109 565,-179 156,-69 430,-188 609,-264 417,-177 1770,-524 2046,-525 112,-1 400,-40 639,-87 487,-96 500,-104 976,-543 413,-381 463,-414 921,-600 978,-397 1559,-539 2236,-547 314,-4 450,39 626,200 l 80,73 552,-276 c 467,-234 627,-337 1045,-674 781,-628 883,-667 1929,-723 l 686,-37 319,220 319,220 351,27 c 407,32 482,72 627,334 127,229 160,403 224,1179 30,359 67,763 82,899 7,66 11,123 12,172 v 26 c -3,173 -58,243 -205,315 -154,75 -340,73 -387,-4 -39,-63 -484,-37 -616,36 -419,234 -377,226 -1128,202 -760,-25 -1298,-80 -1371,-140 -36,-29 -56,-24 -81,21 -19,33 -64,60 -100,60 -36,0 -95,36 -131,80 -35,44 -169,125 -298,179 -353,149 -772,398 -930,553 -78,76 -189,155 -248,176 -105,36 -108,44 -166,433 -68,459 -272,1030 -456,1278 -65,88 -331,454 -592,814 -575,792 -1152,1522 -1393,1762 -106,105 -301,240 -479,332 -165,85 -404,221 -533,303 -128,82 -405,249 -617,371 -422,243 -730,443 -1056,685 -280,208 -760,476 -1063,593 -840,325 -1016,402 -1328,577 -190,108 -470,290 -623,405 -388,292 -1151,740 -1950,1144 -552,280 -867,473 -1684,1033 -1550,1063 -2465,1765 -3616,2776 -291,256 -657,568 -814,693 -325,262 -1568,1093 -1748,1169 -65,28 -231,137 -366,243 -357,279 -637,462 -1104,723 -594,332 -1071,651 -1267,849 -93,95 -365,381 -604,637 -364,389 -459,515 -588,779 -85,173 -315,571 -511,883 -433,691 -580,1023 -690,1563 -47,227 -126,496 -178,597 -51,102 -114,315 -141,480 -29,180 -115,463 -221,726 -206,510 -287,771 -287,925 0,62 -24,158 -53,214 -28,55 -52,138 -52,183 0,45 -47,188 -103,318 -246,564 -521,1551 -640,2293 -40,245 -94,534 -122,640 -58,226 -107,893 -158,2135 -104,2511 -116,2713 -197,3214 -12,80 4,739 38,1464 36,804 53,1615 43,2077 -27,1162 -122,2582 -200,2999 -48,251 -82,670 -109,1305 -44,1061 -73,1302 -195,1607 -47,118 -86,255 -86,304 0,49 -40,132 -88,185 -56,60 -89,137 -89,208 -1,342 -448,1684 -707,2123 -100,170 -223,398 -272,507 -142,312 -366,673 -477,766 -62,53 -146,85 -218,85 -90,0 -122,18 -140,80 -12,44 -39,611 -60,1260 -27,863 -26,1184 2,1194 111,37 151,126 129,286 -55,397 -88,948 -89,1502 -3,627 -35,843 -136,894 -33,17 -211,41 -395,53 -185,12 -629,45 -988,73 -359,28 -962,61 -1341,73 -922,29 -1393,74 -2046,197 -344,65 -536,93 -824,95 h -67 c -181,-1 -402,-12 -714,-29 z"
     id="path2365"
     style="fill:#000000;display:inline"
     transform="translate(0,-346.99999)" /><g
     id="layer9"
     inkscape:label="Shoes"
     style="display:inline"
     transform="translate(0,-346.99999)"><path
       fill="#ffff00"
       stroke="none"
       d="m 21947,58094 c 458,-19 1151,-53 1539,-76 388,-22 915,-47 1170,-55 l 465,-15 19,-253 c 11,-139 28,-562 39,-941 11,-378 29,-756 41,-840 l 21,-153 -144,73 c -170,87 -481,95 -1329,34 -291,-21 -624,-42 -741,-46 -116,-4 -275,-35 -352,-68 -171,-74 -221,-63 -646,141 -214,102 -393,219 -512,333 -319,308 -912,672 -1373,843 -102,38 -327,102 -501,142 -173,40 -385,104 -470,142 -86,38 -290,100 -453,139 -334,79 -526,167 -634,289 -117,131 -227,331 -227,413 0,68 21,76 221,80 121,2 403,16 626,29 223,14 660,27 971,31 521,5 600,-3 1001,-101 384,-93 535,-110 1269,-141 z"
       id="path2372" /><path
       fill="#ffff00"
       stroke="none"
       d="m 54732,6160 c -136,-49 -137,-54 -181,-768 -38,-624 -19,-952 57,-952 59,0 1174,-1047 1174,-1102 0,-61 -322,6 -561,117 -124,57 -330,178 -458,270 -292,208 -675,588 -675,669 0,33 40,93 89,132 74,60 90,105 94,266 3,107 -7,308 -23,446 -35,312 28,688 136,810 79,89 432,295 507,296 36,0 36,-13 0,-71 -24,-39 -96,-90 -159,-113 z"
       id="path2701"
       style="display:inline" /><path
       fill="#ffff00"
       stroke="none"
       d="m 57440,4475 c -42,-927 -8,-821 -333,-1049 -316,-223 -889,-69 -1363,366 -125,115 -343,310 -485,433 -401,350 -483,589 -424,1232 36,388 73,462 304,608 223,142 369,176 888,207 814,49 1293,44 1342,-16 79,-95 111,-895 71,-1781 z"
       id="path2708" /><path
       fill="#ffff00"
       stroke="none"
       d="m 58529,6101 c 41,-26 36,-166 -29,-890 -94,-1055 -121,-1204 -247,-1345 -173,-194 -224,-53 -124,344 33,130 66,518 85,1006 18,436 43,821 56,855 25,66 175,83 259,30 z"
       id="path2715" /><path
       fill="#ffff00"
       stroke="none"
       d="m 57771,3843 c -7,-8 -14,488 -14,1102 v 1117 h 89 c 49,0 98,-22 109,-50 54,-142 -111,-2095 -184,-2169 z"
       id="path2722" /></g><g
     id="layer10"
     inkscape:label="Socks"
     style="display:inline"
     transform="translate(0,-346.99999)"><path
       fill="#2a6099"
       stroke="none"
       d="m 24983,55572 c 84,-84 178,-1200 178,-2120 l 1,-568 -468,-21 c -257,-12 -642,-46 -855,-75 -214,-30 -487,-54 -609,-54 l -220,-1 v 440 c 0,243 -15,508 -34,591 -18,83 -60,436 -92,786 -32,349 -72,681 -89,737 -49,156 -44,162 125,162 87,0 231,25 320,55 294,100 1658,153 1743,68 z"
       id="path2379" /><path
       fill="#2a6099"
       stroke="none"
       d="m 54035,6769 c 194,-101 378,-206 409,-234 30,-27 102,-49 159,-50 96,0 91,-7 -78,-104 -442,-253 -539,-629 -416,-1615 23,-182 22,-185 -69,-185 -51,0 -93,-16 -93,-36 0,-55 -179,-41 -376,31 -189,69 -901,465 -1009,560 -39,35 -61,106 -61,195 0,142 56,285 456,1155 111,242 231,508 267,591 35,82 78,149 96,149 18,0 107,-61 197,-137 91,-75 324,-219 518,-320 z"
       id="path2687" /></g><g
     id="layer11"
     inkscape:label="Pants"
     style="display:inline"
     transform="translate(0,-346.99999)"><path
       fill="#ff0000"
       stroke="none"
       d="m 25744,52553 c 12,-37 58,-111 102,-164 44,-54 101,-161 126,-238 62,-193 158,-380 341,-660 176,-271 540,-1294 630,-1771 80,-421 115,-537 264,-871 200,-447 239,-699 264,-1708 15,-571 46,-1049 90,-1358 137,-953 150,-1327 158,-4356 7,-2812 42,-4166 127,-4833 19,-156 49,-703 66,-1217 29,-852 45,-1011 177,-1781 79,-466 191,-1012 249,-1213 57,-202 104,-387 104,-412 0,-44 251,-734 368,-1011 30,-72 109,-357 176,-635 66,-277 201,-708 299,-958 98,-250 197,-552 219,-671 21,-118 93,-361 158,-540 66,-178 152,-477 193,-664 110,-511 319,-974 752,-1668 141,-227 326,-539 410,-694 84,-156 201,-346 260,-424 113,-149 637,-727 992,-1095 219,-226 994,-758 1517,-1041 349,-188 622,-368 988,-651 155,-120 339,-247 406,-281 68,-34 282,-169 476,-299 194,-131 464,-302 599,-381 299,-175 740,-527 1447,-1156 291,-258 727,-624 970,-813 243,-188 520,-409 617,-490 248,-209 757,-581 1376,-1007 291,-200 766,-531 1056,-736 383,-271 743,-483 1324,-781 959,-491 1419,-762 1887,-1110 312,-232 688,-458 1184,-711 87,-45 314,-130 505,-189 545,-170 1047,-442 1635,-886 139,-105 385,-269 546,-364 162,-95 501,-296 753,-446 252,-150 524,-305 604,-345 329,-165 667,-520 1299,-1364 900,-1202 1219,-1650 1219,-1713 0,-37 39,-170 86,-296 48,-125 103,-349 124,-496 34,-244 76,-363 183,-513 31,-43 7,-121 -106,-359 -80,-168 -146,-314 -146,-326 0,-11 -127,-292 -283,-623 -161,-343 -293,-673 -306,-766 -16,-120 -51,-191 -131,-266 -94,-89 -109,-127 -109,-283 v -180 l -282,5 c -377,6 -953,142 -1555,366 -627,235 -711,285 -1187,705 -217,191 -466,383 -553,427 -205,103 -986,279 -1235,279 -204,0 -1190,207 -1533,322 -114,38 -384,150 -600,248 -503,228 -608,265 -988,348 -244,53 -429,129 -829,338 -584,306 -738,401 -1186,732 -501,370 -577,439 -776,708 -291,395 -524,632 -729,742 -104,56 -365,227 -581,379 -407,286 -1402,814 -1764,935 -114,38 -350,118 -524,178 -175,60 -532,175 -794,256 -620,191 -2054,765 -2946,1180 -388,181 -745,340 -794,355 -48,15 -228,105 -398,202 -386,216 -1587,803 -1647,803 -24,0 -237,85 -474,190 -238,105 -542,219 -676,252 -134,33 -490,145 -791,249 -301,103 -650,204 -776,223 -126,18 -812,61 -1524,96 l -1294,63 -315,-78 c -470,-117 -855,-92 -1297,85 l -227,91 v 376 c -1,456 -51,682 -264,1187 -91,213 -193,469 -228,568 -35,99 -160,321 -277,494 -207,304 -218,332 -374,955 -88,353 -223,786 -300,963 -132,305 -483,875 -847,1376 -92,126 -240,380 -329,565 -89,184 -294,544 -455,800 -162,255 -373,602 -469,770 -201,352 -611,800 -806,881 -119,50 -130,67 -135,204 -15,409 13,577 165,966 216,558 271,653 568,987 146,163 295,366 333,451 109,247 137,720 138,2314 0,1180 -11,1539 -50,1686 -38,142 -43,258 -19,477 17,158 47,1050 68,1982 80,3627 117,4363 236,4773 36,125 48,250 34,355 -33,246 -228,1052 -312,1291 -97,276 -113,563 -64,1127 53,609 107,825 320,1291 212,464 313,827 457,1650 59,336 131,668 160,737 31,73 54,244 55,412 2,157 17,366 34,463 78,436 142,730 230,1058 166,612 240,1074 193,1198 -54,140 -45,762 13,923 27,75 106,231 176,346 l 128,210 v 443 c 0,414 6,457 100,656 56,117 155,257 221,311 210,173 223,187 349,396 l 123,205 -11,443 c -13,496 33,681 177,720 45,12 232,22 416,23 184,0 446,26 581,57 174,39 400,55 759,51 349,-4 562,10 670,43 182,56 236,46 266,-49 z"
       id="path2386" /><g
       id="layer12"
       inkscape:label="Lines"
       style="display:inline"><path
         fill="#000000"
         stroke="none"
         d="m 25223,50093 c 125,-207 372,-646 547,-976 903,-1699 1149,-2134 1212,-2134 177,-1 96,255 -328,1040 -168,310 -443,827 -611,1147 -168,320 -377,693 -465,829 -195,300 -327,558 -440,860 -129,343 -254,491 -341,404 -89,-89 122,-670 426,-1170 z"
         id="path2393" /><path
         fill="#000000"
         stroke="none"
         d="m 23868,49080 c -11,-31 36,-178 106,-327 69,-149 166,-392 215,-540 126,-377 200,-542 441,-978 389,-705 815,-1821 920,-2410 22,-123 69,-343 106,-488 93,-373 345,-1748 441,-2404 83,-564 124,-700 210,-700 72,0 160,100 160,181 0,88 -280,1761 -300,1794 -8,13 -55,268 -105,567 -224,1353 -538,2307 -1146,3479 -154,296 -337,699 -408,895 -182,508 -318,815 -399,906 -82,92 -210,105 -241,25 z"
         id="path2400" /><path
         fill="#000000"
         stroke="none"
         d="m 21846,48129 c -51,-61 -46,-69 237,-402 126,-149 202,-279 241,-412 31,-107 103,-295 158,-419 56,-123 159,-419 228,-659 171,-589 224,-707 311,-694 148,23 149,104 10,598 -73,259 -186,598 -250,753 -65,156 -137,346 -160,424 -96,317 -508,864 -650,864 -45,0 -101,-24 -125,-53 z"
         id="path2407" /><path
         fill="#000000"
         stroke="none"
         d="m 24137,44351 c 409,-839 522,-1065 1094,-2184 405,-793 593,-1259 738,-1834 190,-753 336,-1130 624,-1605 152,-253 331,-796 491,-1499 71,-311 183,-747 249,-971 66,-223 136,-529 156,-681 50,-381 121,-490 241,-370 76,76 51,555 -45,880 -122,410 -318,1189 -390,1547 -78,391 -100,446 -532,1342 -218,450 -388,852 -418,988 -109,481 -328,1193 -440,1428 -64,136 -186,402 -270,593 -85,191 -268,546 -407,789 -139,244 -331,619 -426,835 -212,482 -713,1497 -850,1724 -103,170 -186,213 -224,114 -45,-116 30,-315 409,-1096 z"
         id="path2414" /><path
         fill="#000000"
         stroke="none"
         d="m 23515,43279 c 235,-677 640,-1700 782,-1976 45,-87 154,-365 242,-617 88,-253 265,-713 394,-1023 344,-828 934,-2366 934,-2433 0,-32 23,-102 51,-156 28,-54 116,-293 196,-532 80,-239 193,-539 251,-667 95,-209 303,-871 362,-1151 l 22,-106 -115,138 c -63,76 -181,217 -264,315 -82,97 -224,321 -314,497 -316,613 -1492,2502 -1847,2966 -104,136 -303,398 -443,582 -139,184 -297,375 -350,423 -54,49 -204,215 -335,371 -130,155 -356,412 -502,571 -223,242 -289,344 -413,639 -138,328 -248,501 -317,501 -17,0 -49,-23 -72,-51 -33,-39 -15,-126 84,-410 136,-393 169,-444 549,-862 142,-156 333,-383 427,-506 93,-122 243,-288 334,-368 203,-179 958,-1187 1353,-1807 560,-881 1138,-1837 1291,-2138 149,-295 372,-601 804,-1105 192,-224 376,-539 377,-646 0,-24 57,-95 127,-159 181,-163 348,-519 489,-1040 135,-498 251,-803 411,-1087 143,-253 266,-663 332,-1107 30,-202 63,-381 73,-397 32,-50 147,-32 170,26 64,168 -27,889 -153,1209 -38,96 -117,253 -176,348 -141,229 -277,595 -336,906 -53,275 -198,663 -392,1048 -211,420 -425,974 -616,1602 -101,330 -244,750 -317,935 -73,184 -256,684 -406,1111 -284,810 -600,1631 -1323,3439 -237,592 -446,1132 -465,1200 -20,68 -50,141 -67,162 -18,22 -62,125 -99,230 -37,104 -138,341 -225,525 -87,184 -184,444 -216,577 -64,260 -267,792 -356,927 -58,89 -110,102 -193,49 -62,-39 -66,-25 257,-953 z"
         id="path2421" /><path
         fill="#000000"
         stroke="none"
         d="m 22988,37788 c 555,-439 1532,-1515 1821,-2006 48,-82 165,-264 260,-404 184,-275 566,-1073 920,-1924 295,-709 680,-1505 871,-1803 263,-409 342,-558 706,-1331 375,-797 530,-1208 594,-1576 58,-337 67,-358 152,-346 186,27 155,500 -70,1070 -171,431 -824,1772 -995,2044 -197,312 -781,1491 -936,1889 -172,442 -665,1505 -843,1817 -393,688 -961,1433 -1612,2112 -318,332 -435,436 -1058,940 -145,117 -412,333 -592,478 -346,280 -402,315 -442,275 -122,-123 99,-346 1224,-1235 z"
         id="path2428" /><path
         fill="#000000"
         stroke="none"
         d="m 21907,36060 c 588,-434 666,-495 884,-699 279,-259 781,-838 1100,-1267 254,-342 460,-549 971,-978 620,-520 1399,-1070 1479,-1044 21,7 42,47 48,89 14,95 -78,182 -557,527 -921,662 -1316,1024 -1870,1719 -801,1006 -1163,1364 -1785,1770 -308,201 -430,258 -499,233 -110,-39 -33,-157 229,-350 z"
         id="path2435" /><path
         fill="#000000"
         stroke="none"
         d="m 22056,31814 c 29,-14 125,-59 212,-100 145,-68 436,-239 1270,-745 412,-250 790,-559 957,-783 310,-416 669,-761 1451,-1392 451,-364 913,-726 1026,-805 206,-142 206,-143 100,-154 -128,-13 -658,159 -967,314 -121,61 -364,199 -539,307 -174,108 -436,239 -582,292 -145,52 -352,128 -458,168 -107,40 -345,113 -529,163 -458,125 -1106,450 -1553,778 -509,375 -628,447 -717,434 -110,-16 -124,-186 -20,-242 44,-24 243,-160 442,-304 200,-144 471,-327 602,-407 299,-181 961,-478 1173,-526 274,-61 1138,-383 1360,-506 117,-65 334,-188 483,-275 371,-213 972,-448 1296,-504 147,-26 326,-72 398,-102 73,-31 165,-55 206,-55 41,0 331,-170 645,-377 926,-611 1244,-787 1421,-787 110,0 112,103 5,200 -44,40 -191,132 -326,206 -384,207 -1427,911 -1623,1094 -97,91 -314,258 -482,372 -309,209 -1322,999 -1776,1386 -135,116 -397,378 -580,584 -658,735 -981,997 -1766,1431 -204,113 -442,256 -529,319 -314,225 -571,323 -636,245 -52,-63 -31,-197 36,-229 z"
         id="path2442" /><path
         fill="#000000"
         stroke="none"
         d="m 22656,27702 c 165,-50 355,-113 423,-139 68,-27 179,-59 247,-72 139,-27 665,-237 1270,-507 570,-255 823,-385 1085,-560 237,-158 344,-175 411,-68 32,51 20,78 -67,150 -223,185 -626,405 -1315,717 -900,409 -959,432 -1588,619 -286,85 -618,196 -738,246 -259,109 -227,105 -312,42 -145,-107 89,-278 584,-428 z"
         id="path2449" /><path
         fill="#000000"
         stroke="none"
         d="m 26785,26758 c 0,-13 83,-65 185,-117 241,-121 429,-272 1045,-836 280,-256 645,-573 812,-705 167,-132 388,-312 490,-401 181,-155 190,-158 256,-98 38,34 69,80 69,103 0,59 -217,254 -633,569 -202,153 -599,499 -882,769 -596,568 -812,740 -1023,814 -190,68 -191,68 -261,-10 -32,-36 -58,-75 -58,-88 z"
         id="path2456" /><path
         fill="#000000"
         stroke="none"
         d="m 26398,25890 c -53,-99 -8,-180 112,-204 136,-27 1019,-850 1147,-1069 51,-87 181,-253 289,-367 108,-115 168,-199 132,-186 -239,88 -817,209 -1523,320 -379,59 -621,119 -853,210 -354,140 -444,138 -428,-8 23,-192 756,-442 1563,-532 555,-62 1597,-394 1889,-602 76,-54 133,-68 218,-52 67,13 177,0 263,-31 120,-42 158,-44 208,-7 37,27 53,69 40,102 -34,89 -337,266 -571,333 -191,55 -245,95 -540,397 -181,184 -379,422 -440,529 -62,107 -190,265 -286,353 -96,87 -319,295 -495,463 -429,407 -640,509 -725,351 z"
         id="path2463" /><path
         fill="#000000"
         stroke="none"
         d="m 23061,23976 c -154,-124 -336,-263 -404,-310 -298,-204 -635,-503 -635,-563 0,-35 24,-84 54,-109 46,-37 79,-26 203,67 82,62 300,222 484,357 184,136 438,326 564,423 126,97 285,195 353,217 262,84 917,416 917,464 0,45 -108,169 -144,165 -8,-1 -181,-70 -385,-153 -534,-218 -692,-306 -1007,-558 z"
         id="path2470" /><path
         fill="#000000"
         stroke="none"
         d="m 31273,22301 c -25,-10 -45,-45 -44,-77 0,-202 1359,-2418 1763,-2875 564,-636 1131,-1544 1285,-2056 12,-41 53,-103 91,-137 96,-87 177,-16 177,154 0,310 -743,1519 -1376,2241 -279,319 -430,533 -670,952 -120,210 -304,514 -408,675 -103,161 -263,433 -354,604 -264,495 -333,572 -464,519 z"
         id="path2477" /><path
         fill="#000000"
         stroke="none"
         d="m 25634,19545 -24,-822 102,-106 102,-107 -181,-536 c -100,-295 -246,-681 -326,-857 -178,-396 -272,-738 -238,-872 20,-81 41,-97 117,-88 80,10 100,39 152,223 33,116 164,467 292,779 127,312 305,826 396,1142 210,736 370,1194 583,1671 148,333 198,408 384,576 238,215 673,742 673,815 0,86 -108,88 -225,4 -64,-46 -293,-270 -508,-497 -437,-461 -626,-759 -767,-1209 -49,-156 -120,-346 -158,-424 l -70,-141 19,1200 c 14,938 9,1218 -27,1284 -59,113 -120,129 -165,45 -43,-80 -96,-929 -131,-2080 z"
         id="path2484" /><path
         fill="#000000"
         stroke="none"
         d="m 29873,20241 c 524,-561 831,-923 986,-1161 171,-262 491,-859 528,-983 22,-73 17,-79 -39,-47 -95,53 -190,-12 -190,-129 0,-146 -88,-414 -248,-761 -242,-525 -422,-1304 -422,-1829 0,-223 64,-316 162,-235 84,70 109,161 154,547 81,692 167,1027 388,1496 113,243 232,503 263,578 49,121 62,131 115,88 169,-139 722,-1176 939,-1759 68,-185 166,-494 217,-688 169,-641 262,-836 360,-754 81,67 53,322 -88,813 -244,848 -658,1756 -1098,2413 -132,196 -321,516 -422,712 -334,651 -495,869 -1163,1576 -202,214 -453,496 -559,628 -205,253 -265,283 -328,165 -52,-97 41,-237 445,-670 z"
         id="path2491" /><path
         fill="#000000"
         stroke="none"
         d="m 27948,20508 c -100,-121 -69,-1127 48,-1552 27,-97 90,-329 140,-516 l 91,-341 -101,-436 c -123,-533 -172,-649 -491,-1159 -138,-222 -251,-429 -251,-462 0,-32 26,-80 58,-106 50,-42 73,-29 185,97 70,80 237,330 371,555 133,226 249,410 257,410 33,0 149,-325 171,-482 37,-253 189,-622 418,-1011 146,-249 220,-342 262,-333 104,20 75,300 -51,506 -146,237 -290,608 -352,905 -28,135 -94,328 -147,428 -93,175 -96,200 -98,763 -2,544 -9,610 -117,1006 -98,361 -120,514 -146,1040 -36,722 -23,618 -90,686 -69,68 -101,68 -157,2 z"
         id="path2498" /><path
         fill="#000000"
         stroke="none"
         d="m 36034,18890 c 114,-161 537,-637 1070,-1204 575,-612 846,-951 1269,-1585 297,-446 571,-802 1498,-1943 157,-194 383,-511 502,-705 118,-194 337,-535 486,-759 149,-223 308,-469 354,-546 158,-272 286,-410 365,-399 125,18 108,145 -55,394 -84,128 -382,592 -664,1032 -281,439 -687,1014 -901,1279 -763,941 -929,1157 -1275,1662 -662,968 -771,1106 -1369,1727 -570,591 -1048,1135 -1133,1288 -47,86 -124,106 -182,47 -65,-64 -53,-164 35,-288 z"
         id="path2505" /><path
         fill="#000000"
         stroke="none"
         d="m 34275,18653 c 119,-287 246,-434 622,-719 398,-302 536,-448 789,-838 104,-161 304,-427 445,-592 141,-165 305,-371 365,-458 59,-88 167,-226 239,-309 157,-181 364,-567 420,-785 50,-192 195,-423 265,-423 153,0 114,292 -101,757 -151,327 -269,498 -691,1007 -391,472 -673,850 -758,1018 -82,161 -628,701 -887,877 -222,151 -323,279 -503,636 -127,251 -156,276 -231,200 -75,-74 -70,-136 26,-371 z"
         id="path2512" /><path
         fill="#000000"
         stroke="none"
         d="m 38912,16846 c 428,-349 1096,-1022 1937,-1953 449,-496 614,-652 1739,-1639 913,-802 1470,-1355 1877,-1865 692,-867 1155,-1319 2028,-1979 257,-194 545,-440 641,-548 185,-208 698,-1136 734,-1330 47,-248 170,-313 279,-147 74,113 49,217 -124,512 -74,126 -176,312 -227,413 -184,365 -476,777 -663,933 -104,87 -403,317 -665,512 -262,194 -583,452 -713,573 -232,215 -1093,1191 -1479,1679 -225,284 -919,958 -1283,1246 -800,634 -1434,1236 -2364,2248 -775,844 -1199,1258 -1694,1656 -175,141 -378,330 -452,419 -143,175 -162,186 -227,121 -133,-133 21,-333 656,-851 z"
         id="path2519" /><path
         fill="#000000"
         stroke="none"
         d="m 43771,13594 c 587,-343 1653,-1074 2231,-1531 348,-275 1291,-1185 1956,-1887 561,-593 725,-793 1058,-1288 216,-322 439,-689 494,-815 222,-503 252,-561 298,-579 26,-10 72,18 101,62 47,73 47,102 -4,273 -115,388 -364,803 -949,1583 -437,582 -723,897 -1516,1665 -1227,1189 -2392,2101 -3440,2693 -418,237 -762,473 -1051,722 -260,224 -264,227 -301,190 -155,-155 331,-626 1123,-1088 z"
         id="path2526" /><path
         fill="#000000"
         stroke="none"
         d="m 49983,8549 c 75,-56 160,-135 189,-174 28,-40 224,-255 433,-478 334,-355 877,-1092 1044,-1416 62,-120 203,-200 257,-145 71,70 -3,281 -192,545 -102,141 -246,357 -320,479 -135,222 -418,543 -1042,1181 -334,340 -441,402 -524,299 -54,-67 5,-177 155,-291 z"
         id="path2533" /></g></g><g
     id="layer13"
     inkscape:label="Body"
     style="display:inline"
     transform="translate(0,-346.99999)"><path
       fill="#fff5ce"
       stroke="none"
       d="m 3219,33552 c 0,-254 -2,-260 -79,-234 -207,68 -424,-43 -590,-302 -228,-355 -206,-536 70,-580 111,-18 187,-65 319,-197 96,-96 174,-205 174,-242 0,-84 88,-162 155,-136 27,10 95,111 150,224 l 101,206 v 794 793 h 106 c 137,0 189,-105 339,-679 l 113,-432 -91,-379 c -50,-209 -101,-443 -113,-521 -47,-295 -133,-492 -275,-624 -171,-160 -270,-428 -297,-804 -16,-228 -5,-302 77,-529 249,-688 740,-1545 1220,-2128 124,-152 285,-349 356,-438 135,-169 294,-568 413,-1033 37,-145 133,-427 212,-626 142,-356 146,-377 198,-1086 77,-1064 124,-1232 557,-2000 99,-175 169,-355 196,-502 23,-127 114,-421 201,-655 88,-234 197,-564 242,-732 121,-448 664,-1749 788,-1886 81,-91 262,-76 549,45 305,128 574,318 654,463 60,108 92,125 1104,604 226,107 504,257 617,334 301,205 719,406 1365,659 314,123 848,342 1188,487 340,145 705,284 811,308 107,25 329,97 494,159 277,106 661,206 1346,352 186,40 460,151 882,356 337,164 654,298 705,298 76,0 133,-55 316,-308 122,-170 383,-523 578,-785 376,-503 490,-676 707,-1076 74,-136 203,-344 287,-463 84,-119 153,-229 153,-245 0,-16 88,-182 194,-371 107,-188 220,-443 251,-566 32,-124 89,-288 128,-365 39,-76 211,-469 383,-871 171,-402 374,-855 449,-1007 76,-151 149,-338 163,-416 32,-183 304,-868 501,-1260 84,-170 154,-333 154,-363 0,-29 -108,-124 -240,-209 -439,-284 -675,-579 -599,-747 71,-154 -51,-500 -377,-1070 -111,-194 -225,-442 -254,-553 -64,-246 -294,-786 -409,-960 -47,-71 -105,-189 -130,-263 -35,-108 -78,-150 -226,-225 -297,-150 -587,-368 -587,-441 0,-120 102,-110 405,37 283,137 477,184 477,114 0,-63 112,-73 237,-20 197,82 1443,402 1717,441 302,43 1016,55 1076,18 30,-19 -5,-61 -115,-138 -87,-61 -256,-186 -376,-279 -350,-269 -731,-437 -1305,-575 -281,-68 -570,-149 -643,-180 -113,-49 -166,-51 -394,-15 -144,24 -355,33 -468,20 l -206,-22 -424,422 c -235,233 -466,498 -517,593 -78,144 -314,1045 -446,1703 -34,169 -124,218 -222,121 l -75,-75 73,-330 c 201,-910 295,-1288 355,-1420 69,-152 184,-305 488,-650 l 185,-208 -202,-69 c -111,-38 -354,-173 -538,-299 -351,-239 -632,-362 -1324,-578 -351,-109 -429,-148 -546,-268 -183,-188 -262,-402 -236,-639 19,-181 257,-950 409,-1328 l 77,-189 -257,25 c -305,30 -478,114 -804,395 -483,415 -748,612 -961,713 -468,223 -1989,526 -1959,390 6,-25 -69,-96 -166,-158 -97,-63 -229,-158 -293,-211 l -116,-97 -191,94 c -104,51 -201,93 -216,93 -14,0 -56,27 -93,61 -69,62 -252,173 -571,346 -96,52 -205,133 -241,179 -36,46 -87,84 -112,84 -25,0 -65,23 -88,51 -72,86 -752,396 -919,418 -166,22 -392,-5 -767,-92 -199,-46 -245,-75 -493,-318 -151,-147 -322,-313 -380,-369 l -104,-101 -125,184 c -243,359 -407,533 -612,647 -194,108 -214,112 -380,76 -217,-46 -208,-46 -208,3 0,54 109,133 186,135 35,0 98,23 141,50 43,27 154,60 247,73 149,21 177,14 234,-57 56,-69 74,-74 122,-33 32,26 57,75 57,109 0,33 30,99 66,145 68,88 100,255 134,706 14,181 8,276 -19,293 -22,13 -40,100 -40,192 0,132 -18,186 -83,247 -61,57 -90,134 -107,280 -13,110 -54,264 -92,342 -37,78 -290,386 -561,686 -334,368 -548,640 -663,841 -93,163 -300,481 -459,707 -159,227 -404,578 -543,782 -139,204 -331,456 -426,560 -225,246 -301,401 -382,775 -143,659 -173,1456 -68,1808 20,66 52,422 70,790 28,549 55,753 144,1126 138,569 128,707 -88,1273 -109,288 -190,582 -250,917 -159,879 -180,944 -388,1177 -276,310 -510,906 -636,1625 -28,158 -82,347 -120,419 -218,414 -415,914 -520,1323 -99,384 -126,573 -156,1080 -28,486 -50,648 -107,776 -142,319 -173,551 -174,1326 -2,717 -33,1391 -101,2178 -24,278 -52,413 -107,505 -99,168 -93,180 32,74 136,-114 237,-145 302,-92 100,83 55,172 -170,331 -324,229 -370,279 -414,449 -22,84 -76,233 -121,330 -45,97 -113,303 -151,459 -78,315 -63,393 89,485 52,31 180,129 284,219 243,208 347,260 635,320 310,64 586,37 754,-74 229,-151 344,-496 344,-1030 z"
       id="path2540" /><path
       fill="#fff5ce"
       stroke="none"
       d="m 3271,32479 -23,-137 -164,145 c -91,80 -209,168 -263,196 -118,61 -106,160 33,286 111,101 159,100 288,-9 119,-100 165,-271 129,-481 z"
       id="path2582" /><path
       fill="#fff5ce"
       stroke="none"
       d="m 26432,11346 c 426,61 627,17 1118,-244 370,-197 394,-216 381,-305 -9,-53 -23,-191 -34,-307 -24,-279 -140,-714 -263,-986 -84,-184 -155,-267 -449,-521 -192,-166 -412,-369 -490,-450 -201,-211 -438,-377 -582,-407 -251,-53 -449,-136 -761,-322 -176,-105 -371,-206 -433,-223 -78,-23 -286,-11 -671,36 -1651,204 -2959,102 -3938,-307 -762,-319 -1993,-713 -2558,-820 -513,-96 -630,-110 -651,-76 -21,34 63,72 159,72 120,0 231,74 298,197 36,67 136,179 223,250 101,83 187,197 241,319 58,131 121,211 206,261 68,40 143,114 168,165 40,82 76,96 356,137 356,51 721,146 752,196 11,19 -11,65 -49,104 -69,69 -80,69 -502,14 -237,-31 -481,-56 -543,-56 -162,0 -269,-87 -269,-218 0,-176 -95,-59 -180,222 -60,195 -72,313 -62,611 l 12,370 132,135 c 142,145 510,384 542,352 11,-11 -37,-102 -107,-203 -167,-244 -166,-362 4,-452 240,-126 540,13 540,251 0,65 23,149 51,187 46,62 98,68 643,71 472,2 627,15 753,63 87,33 347,107 578,164 509,125 1135,418 1570,735 259,189 1756,983 2013,1068 130,43 620,6 866,-65 249,-72 522,-77 936,-18 z"
       id="path2596" /><path
       fill="#fff5ce"
       stroke="none"
       d="m 9904,6328 c 117,-48 229,-88 250,-88 21,-1 97,-30 169,-65 l 131,-64 -154,-140 c -131,-119 -164,-178 -217,-386 -34,-135 -83,-301 -109,-369 -26,-68 -57,-193 -68,-278 -20,-146 -11,-168 176,-416 108,-144 234,-279 280,-300 61,-28 88,-77 106,-194 36,-242 -2,-266 -528,-326 -360,-42 -1265,-218 -1304,-254 -18,-17 -75,-31 -125,-31 -84,0 -91,10 -78,122 13,110 1,130 -114,199 -129,76 -129,76 -57,143 185,173 96,404 -145,372 -149,-20 -206,22 -206,153 0,136 -69,312 -136,349 -98,52 -251,1 -303,-101 -36,-68 -42,-153 -23,-315 l 26,-222 -104,112 c -88,93 -122,108 -213,90 -59,-12 -120,-41 -135,-65 -95,-149 40,-552 277,-830 302,-353 357,-405 529,-498 93,-50 169,-107 168,-127 -4,-64 -302,-264 -395,-264 -96,0 -175,-22 -520,-144 -316,-111 -657,-180 -775,-157 -105,20 -137,45 -442,345 -87,86 -191,174 -231,195 -103,54 -475,548 -475,630 0,37 -24,102 -54,144 -48,70 -48,91 0,207 30,71 54,158 54,193 0,35 36,75 80,88 135,43 805,583 844,681 21,51 35,175 31,275 -5,174 1,188 142,300 80,65 157,143 169,174 48,122 955,818 1169,896 347,128 827,233 952,208 29,-6 299,-43 600,-83 367,-48 616,-100 758,-159 z"
       id="path2694"
       style="display:inline" /><path
       fill="#fff5ce"
       stroke="none"
       d="m 18684,9131 c -47,0 -49,10 -13,53 24,29 50,53 57,53 7,0 13,-24 13,-53 0,-29 -26,-53 -57,-53 z"
       id="path2652" /><path
       fill="#fff5ce"
       stroke="none"
       d="m 17618,8564 c 12,-202 48,-484 79,-625 70,-321 73,-641 7,-731 -46,-64 -52,-59 -86,72 -104,405 -203,1498 -146,1606 79,148 122,51 146,-322 z"
       id="path2659" /><path
       fill="#fff5ce"
       stroke="none"
       d="m 17169,8664 c 11,-63 44,-380 73,-704 29,-324 72,-668 94,-764 33,-145 30,-197 -16,-310 l -57,-136 -2,107 c -1,58 -55,320 -121,582 -119,475 -233,1070 -233,1219 0,85 41,113 166,118 61,2 82,-22 96,-112 z"
       id="path2666" /><path
       fill="#fff5ce"
       stroke="none"
       d="m 16730,7996 c 41,-219 115,-542 164,-717 103,-362 95,-476 -43,-686 l -97,-146 -100,169 c -55,93 -149,328 -210,522 -60,194 -147,467 -194,606 -97,292 -106,467 -31,611 109,211 345,284 405,126 18,-47 66,-265 106,-485 z"
       id="path2673" /><path
       fill="#fff5ce"
       stroke="none"
       d="m 6832,8220 c -227,110 -341,148 -484,163 -149,15 -182,5 -271,-80 -245,-235 -134,-618 179,-618 119,0 145,14 175,93 l 36,94 84,-79 c 46,-43 142,-92 213,-108 175,-39 265,47 265,251 0,126 7,140 53,102 29,-24 53,-81 53,-127 0,-45 33,-112 72,-150 l 73,-67 -170,-145 c -93,-80 -225,-170 -293,-200 -67,-30 -168,-77 -223,-106 -127,-66 -185,-65 -436,7 -113,32 -299,65 -414,74 -137,10 -243,40 -308,89 -118,87 -125,118 -33,147 81,26 120,151 124,399 2,162 16,197 109,272 167,136 454,210 869,225 149,5 171,-6 261,-123 54,-71 83,-121 66,-113 z"
       id="path2680" /><path
       fill="#e8a202"
       stroke="none"
       d="m 10843,5132 181,-248 -119,-102 c -267,-228 -275,-229 -389,-93 -140,167 -156,258 -86,487 113,377 229,512 231,272 0,-37 82,-180 182,-316 z"
       id="path2729" /><g
       id="layer14"
       inkscape:label="Lines"><path
         fill="#000000"
         stroke="none"
         d="m 11911,20591 c -28,-44 51,-120 311,-300 116,-80 246,-239 468,-572 l 307,-461 68,-398 c 98,-570 99,-821 3,-1005 -91,-174 -98,-267 -26,-327 85,-71 157,-15 254,197 130,283 140,543 46,1137 l -79,502 -189,263 c -103,145 -230,331 -281,413 -128,207 -285,370 -471,490 -162,105 -366,135 -412,61 z"
         id="path2547" /><path
         fill="#000000"
         stroke="none"
         d="m 16971,20038 c -794,-392 -1073,-511 -1388,-592 -392,-100 -926,-449 -1173,-765 -64,-82 -212,-296 -330,-476 -270,-414 -598,-747 -987,-1003 -167,-110 -346,-250 -398,-311 -127,-152 -523,-757 -621,-950 -45,-88 -260,-336 -490,-564 -226,-224 -442,-471 -480,-548 -39,-78 -96,-173 -127,-212 -32,-39 -76,-126 -99,-194 -23,-68 -105,-231 -183,-363 -151,-252 -173,-420 -61,-441 84,-16 252,227 543,783 226,429 270,488 620,832 294,290 428,456 613,759 426,698 500,786 828,997 397,256 796,668 1169,1209 168,243 372,502 453,576 155,140 672,410 784,410 123,0 894,328 1497,638 405,207 678,324 823,353 124,24 226,65 237,93 46,120 -219,217 -419,154 -51,-17 -416,-190 -811,-385 z"
         id="path2554" /><path
         fill="#000000"
         stroke="none"
         d="m 14437,16717 c 0,-98 160,-136 741,-178 768,-56 936,-109 1498,-475 542,-354 759,-639 1044,-1370 139,-358 196,-566 252,-922 95,-603 127,-724 194,-750 161,-62 180,229 61,954 -98,595 -518,1502 -870,1879 -309,330 -999,749 -1440,874 -354,100 -1297,160 -1418,90 -34,-20 -62,-66 -62,-102 z"
         id="path2561" /><path
         fill="#000000"
         stroke="none"
         d="m 8789,11182 c -77,-318 -193,-723 -259,-900 -66,-177 -125,-341 -131,-364 -12,-45 114,-257 153,-257 29,0 329,712 378,899 21,78 70,306 111,506 120,600 302,1116 649,1839 171,357 169,495 -7,414 -226,-103 -643,-1101 -894,-2137 z"
         id="path2568" /><path
         fill="#000000"
         stroke="none"
         d="m 10759,10966 c 0,-842 8,-965 76,-1235 100,-393 136,-826 75,-898 -36,-44 -35,-54 4,-54 27,0 148,-47 269,-105 121,-57 221,-91 221,-75 0,16 -25,98 -54,182 -29,83 -71,262 -92,396 -21,135 -69,335 -107,444 -107,303 -141,1002 -96,1972 30,642 29,832 -5,873 -48,58 -161,70 -191,20 -60,-97 -99,-696 -100,-1520 z"
         id="path2575" /></g></g><g
     id="layer15"
     inkscape:label="Belt"
     style="display:inline"
     transform="translate(0,-346.99999)"><path
       fill="#2a6099"
       stroke="none"
       d="m 20015,23228 c 81,-157 264,-468 407,-691 143,-223 343,-562 445,-753 102,-191 379,-640 615,-999 473,-715 575,-937 775,-1685 248,-926 281,-1014 448,-1210 124,-146 209,-315 405,-811 308,-779 333,-880 318,-1279 -14,-366 -30,-388 -278,-389 -234,-1 -524,-86 -847,-248 -156,-78 -300,-133 -319,-121 -79,49 -396,753 -581,1291 -109,317 -227,625 -263,683 -141,232 -917,2067 -917,2169 0,69 -502,1021 -678,1285 -83,125 -230,371 -327,547 -171,312 -757,1144 -1206,1714 -122,155 -223,299 -223,320 0,20 91,65 203,100 111,34 316,133 454,218 255,158 658,549 700,682 28,86 30,86 158,20 173,-89 555,-542 711,-843 z"
       id="path2589" /></g><g
     id="layer16"
     inkscape:label="Hair"
     style="display:inline"
     transform="translate(0,-346.99999)"><path
       fill="#e8a202"
       stroke="none"
       d="m 5308,9978 c 34,0 105,-48 157,-106 52,-58 106,-106 121,-106 66,0 544,-311 544,-354 0,-43 -170,-122 -450,-210 -54,-17 -139,-63 -190,-103 -51,-41 -124,-73 -161,-73 -38,0 -182,-89 -319,-196 -326,-256 -433,-458 -419,-792 13,-306 81,-498 261,-728 221,-284 584,-475 846,-444 71,8 169,-10 233,-43 169,-87 622,-112 816,-44 213,74 421,184 471,250 22,29 138,129 258,222 120,93 346,269 503,392 157,122 285,243 285,268 0,26 120,142 267,258 237,188 293,216 505,251 141,24 281,28 342,10 154,-44 431,-175 456,-216 12,-20 96,-76 187,-124 90,-49 237,-143 324,-209 88,-66 176,-122 197,-123 21,-1 75,-42 121,-90 45,-49 259,-175 476,-282 242,-119 436,-241 506,-318 62,-68 133,-124 158,-124 25,0 81,-47 124,-106 43,-58 99,-105 125,-105 149,0 240,-353 148,-572 -64,-152 -144,-204 -313,-204 -82,0 -165,-36 -258,-110 l -137,-109 -124,138 c -68,76 -167,165 -221,199 -57,35 -107,104 -119,163 -28,141 -233,291 -506,370 -127,36 -261,83 -300,103 -156,82 -335,128 -706,183 -213,31 -406,72 -429,91 -62,50 -860,51 -954,0 -43,-23 -178,-52 -300,-64 -122,-12 -253,-44 -291,-70 -39,-26 -96,-48 -129,-48 -108,0 -1548,-1100 -1548,-1182 0,-23 -57,-93 -128,-157 l -127,-116 23,-234 23,-233 -248,-186 c -136,-102 -276,-185 -312,-185 -67,0 -282,-143 -331,-220 -15,-25 -28,-84 -29,-133 0,-48 -25,-135 -56,-194 -68,-127 -78,-463 -18,-576 24,-44 50,-108 58,-140 8,-33 29,-119 46,-191 35,-142 372,-592 443,-592 24,0 176,-127 339,-282 162,-155 305,-282 319,-282 28,0 280,-301 280,-335 0,-12 -32,-92 -71,-177 -52,-115 -144,-212 -350,-369 -309,-235 -400,-256 -672,-160 -83,29 -259,53 -391,53 -132,0 -250,16 -262,35 -12,20 -61,35 -108,35 -127,0 -516,141 -600,217 -40,36 -88,66 -106,66 -19,0 -137,91 -262,204 -248,220 -384,317 -542,386 -129,57 -308,199 -491,389 -79,82 -162,150 -185,150 -23,0 -70,31 -105,70 -35,39 -83,71 -107,71 -40,0 -334,358 -334,407 0,12 -54,86 -120,163 -66,77 -131,181 -143,231 -13,50 -94,183 -180,295 -86,112 -157,234 -157,272 0,38 -31,108 -70,158 -39,49 -71,121 -71,159 0,38 -31,109 -70,159 -39,49 -71,110 -71,134 0,69 -73,285 -136,403 -37,68 -57,194 -57,353 -1,323 97,537 315,686 86,60 166,123 177,141 11,18 37,164 57,325 20,161 58,340 84,399 26,59 75,194 110,301 35,106 141,356 236,555 134,280 225,415 408,604 274,284 2157,1733 2252,1734 35,0 112,31 170,70 58,38 141,70 183,70 43,0 87,16 99,36 35,56 223,41 258,-22 33,-58 360,-190 473,-190 z"
       id="path2603"
       style="display:inline" /><g
       id="layer17"
       inkscape:label="Lines"
       style="display:inline"><path
         fill="#000000"
         stroke="none"
         d="m 3658,9398 c -53,-81 -55,-117 -18,-294 105,-502 70,-1209 -68,-1366 -35,-39 -153,-256 -264,-483 -111,-226 -223,-420 -250,-430 -70,-27 -161,-267 -149,-391 8,-77 35,-114 102,-138 128,-45 275,0 311,94 17,43 63,108 103,144 40,36 156,234 257,441 101,206 211,407 245,445 210,242 292,1080 170,1728 -47,251 -77,288 -249,319 -113,21 -136,13 -190,-69 z"
         id="path2610"
         style="display:inline" /><path
         fill="#000000"
         stroke="none"
         d="m 2619,8485 c 0,-17 -55,-151 -123,-296 -68,-145 -123,-285 -123,-311 0,-26 -15,-57 -32,-67 -18,-11 -85,-127 -150,-258 -65,-131 -131,-243 -146,-250 -15,-6 -50,-67 -77,-133 -28,-66 -65,-120 -84,-120 -51,0 -81,-228 -44,-327 37,-96 195,-154 316,-115 37,11 101,97 141,191 40,93 97,190 127,215 30,24 54,58 54,74 0,17 72,148 159,292 87,143 159,296 159,340 0,43 44,144 98,225 174,259 225,398 199,543 -34,184 -73,220 -240,220 -123,0 -152,-15 -189,-95 -25,-53 -45,-110 -45,-128 z"
         id="path2617" /><path
         fill="#000000"
         stroke="none"
         d="m 4863,6292 c 22,-206 14,-241 -106,-489 -71,-148 -159,-285 -196,-304 -94,-51 -284,-342 -283,-435 1,-121 43,-161 195,-185 152,-24 153,-23 376,248 297,361 531,804 505,957 -10,56 -24,175 -31,264 -15,164 -97,332 -174,356 -24,7 -87,8 -141,1 -132,-17 -173,-134 -145,-413 z"
         id="path2624" /><path
         fill="#000000"
         stroke="none"
         d="m 2869,6213 c -48,-9 -135,-52 -195,-96 -131,-98 -224,-118 -830,-177 -405,-40 -491,-40 -572,2 -185,96 -329,51 -346,-109 -13,-120 -3,-150 88,-258 83,-98 85,-111 36,-206 -119,-227 -116,-232 789,-1399 l 159,-205 7,-474 c 4,-298 22,-493 47,-524 59,-71 205,-99 286,-56 74,40 187,270 157,319 -10,16 -20,145 -21,287 -2,142 -31,395 -65,562 -59,294 -70,316 -369,704 -169,220 -352,427 -405,460 -63,38 -117,117 -152,222 -29,89 -44,164 -32,166 12,1 93,8 181,14 540,38 890,82 926,118 22,22 74,41 115,41 41,0 105,23 143,52 37,28 101,52 142,52 217,4 353,357 183,476 -79,55 -114,59 -272,29 z"
         id="path2631" /><path
         fill="#000000"
         stroke="none"
         d="m 2205,5191 c -187,-36 -143,-428 83,-728 85,-114 155,-239 155,-279 0,-40 56,-141 125,-225 69,-84 158,-228 199,-321 41,-93 101,-208 134,-257 69,-100 176,-610 179,-846 0,-88 21,-253 45,-369 38,-184 57,-215 154,-254 98,-40 120,-37 206,30 93,73 95,82 74,343 -70,879 -99,1042 -221,1278 -26,52 -48,116 -48,144 0,27 -96,175 -213,329 -116,154 -222,320 -234,368 -11,49 -82,171 -158,272 -75,101 -136,220 -136,265 0,90 -155,277 -222,270 -23,-3 -78,-12 -122,-20 z"
         id="path2638" /><path
         fill="#000000"
         stroke="none"
         d="m 3587,1572 c 13,-91 41,-175 62,-188 20,-12 457,-27 969,-33 914,-10 934,-8 1018,67 73,65 82,94 59,199 -26,121 -32,125 -237,150 -116,15 -504,33 -863,40 -359,7 -701,25 -760,38 -79,19 -128,8 -190,-42 -74,-60 -80,-86 -58,-231 z"
         id="path2645" /></g></g></g>
</svg>
