<?xml version="1.0" encoding="UTF-8" standalone="no"?>
<svg
   version="1.2"
   width="181.55699mm"
   height="149.89844mm"
   viewBox="0 0 18155.699 14989.844"
   preserveAspectRatio="xMidYMid"
   fill-rule="evenodd"
   stroke-width="28.222"
   stroke-linejoin="round"
   xml:space="preserve"
   id="svg332"
   sodipodi:docname="koza.svg"
   inkscape:version="1.2.2 (732a01da63, 2022-12-09, custom)"
   xmlns:inkscape="http://www.inkscape.org/namespaces/inkscape"
   xmlns:sodipodi="http://sodipodi.sourceforge.net/DTD/sodipodi-0.dtd"
   xmlns="http://www.w3.org/2000/svg"
   xmlns:svg="http://www.w3.org/2000/svg"
   xmlns:ooo="http://xml.openoffice.org/svg/export"><sodipodi:namedview
   id="namedview334"
   pagecolor="#ffffff"
   bordercolor="#000000"
   borderopacity="0.25"
   inkscape:showpageshadow="2"
   inkscape:pageopacity="0.0"
   inkscape:pagecheckerboard="0"
   inkscape:deskcolor="#d1d1d1"
   inkscape:document-units="mm"
   showgrid="false"
   inkscape:zoom="1.0753989"
   inkscape:cx="343.12847"
   inkscape:cy="294.30938"
   inkscape:window-width="1850"
   inkscape:window-height="1016"
   inkscape:window-x="0"
   inkscape:window-y="0"
   inkscape:window-maximized="1"
   inkscape:current-layer="layer1" />
 <defs
   class="ClipPathGroup"
   id="defs204">
  <clipPath
   id="presentation_clip_path"
   clipPathUnits="userSpaceOnUse">
   <rect
   x="0"
   y="0"
   width="18360"
   height="15194"
   id="rect198" />
  </clipPath>
  <clipPath
   id="presentation_clip_path_shrink"
   clipPathUnits="userSpaceOnUse">
   <rect
   x="18"
   y="15"
   width="18324"
   height="15164"
   id="rect201" />
  </clipPath>
 </defs>
 <defs
   class="TextShapeIndex"
   id="defs208">
  <g
   ooo:slide="id1"
   ooo:id-list="id3 id4 id5 id6 id7"
   id="g206" />
 </defs>
 <defs
   class="EmbeddedBulletChars"
   id="defs240">
  <g
   id="bullet-char-template-57356"
   transform="matrix(4.8828125e-4,0,0,-4.8828125e-4,0,0)">
   <path
   d="M 580,1141 1163,571 580,0 -4,571 Z"
   id="path210" />
  </g>
  <g
   id="bullet-char-template-57354"
   transform="matrix(4.8828125e-4,0,0,-4.8828125e-4,0,0)">
   <path
   d="M 8,1128 H 1137 V 0 H 8 Z"
   id="path213" />
  </g>
  <g
   id="bullet-char-template-10146"
   transform="matrix(4.8828125e-4,0,0,-4.8828125e-4,0,0)">
   <path
   d="M 174,0 602,739 174,1481 1456,739 Z M 1358,739 309,1346 659,739 Z"
   id="path216" />
  </g>
  <g
   id="bullet-char-template-10132"
   transform="matrix(4.8828125e-4,0,0,-4.8828125e-4,0,0)">
   <path
   d="M 2015,739 1276,0 H 717 l 543,543 H 174 v 393 h 1086 l -543,545 h 557 z"
   id="path219" />
  </g>
  <g
   id="bullet-char-template-10007"
   transform="matrix(4.8828125e-4,0,0,-4.8828125e-4,0,0)">
   <path
   d="m 0,-2 c -7,16 -16,29 -25,39 l 381,530 c -94,256 -141,385 -141,387 0,25 13,38 40,38 9,0 21,-2 34,-5 21,4 42,12 65,25 l 27,-13 111,-251 280,301 64,-25 24,25 c 21,-10 41,-24 62,-43 C 886,937 835,863 770,784 769,783 710,716 594,584 L 774,223 c 0,-27 -21,-55 -63,-84 l 16,-20 C 717,90 699,76 672,76 641,76 570,178 457,381 L 164,-76 c -22,-34 -53,-51 -92,-51 -42,0 -63,17 -64,51 -7,9 -10,24 -10,44 0,9 1,19 2,30 z"
   id="path222" />
  </g>
  <g
   id="bullet-char-template-10004"
   transform="matrix(4.8828125e-4,0,0,-4.8828125e-4,0,0)">
   <path
   d="M 285,-33 C 182,-33 111,30 74,156 52,228 41,333 41,471 c 0,78 14,145 41,201 34,71 87,106 158,106 53,0 88,-31 106,-94 l 23,-176 c 8,-64 28,-97 59,-98 l 735,706 c 11,11 33,17 66,17 42,0 63,-15 63,-46 V 965 c 0,-36 -10,-64 -30,-84 L 442,47 C 390,-6 338,-33 285,-33 Z"
   id="path225" />
  </g>
  <g
   id="bullet-char-template-9679"
   transform="matrix(4.8828125e-4,0,0,-4.8828125e-4,0,0)">
   <path
   d="M 813,0 C 632,0 489,54 383,161 276,268 223,411 223,592 c 0,181 53,324 160,431 106,107 249,161 430,161 179,0 323,-54 432,-161 108,-107 162,-251 162,-431 0,-180 -54,-324 -162,-431 C 1136,54 992,0 813,0 Z"
   id="path228" />
  </g>
  <g
   id="bullet-char-template-8226"
   transform="matrix(4.8828125e-4,0,0,-4.8828125e-4,0,0)">
   <path
   d="m 346,457 c -73,0 -137,26 -191,78 -54,51 -81,114 -81,188 0,73 27,136 81,188 54,52 118,78 191,78 73,0 134,-26 185,-79 51,-51 77,-114 77,-187 0,-75 -25,-137 -76,-188 -50,-52 -112,-78 -186,-78 z"
   id="path231" />
  </g>
  <g
   id="bullet-char-template-8211"
   transform="matrix(4.8828125e-4,0,0,-4.8828125e-4,0,0)">
   <path
   d="M -4,459 H 1135 V 606 H -4 Z"
   id="path234" />
  </g>
  <g
   id="bullet-char-template-61548"
   transform="matrix(4.8828125e-4,0,0,-4.8828125e-4,0,0)">
   <path
   d="m 173,740 c 0,163 58,303 173,419 116,115 255,173 419,173 163,0 302,-58 418,-173 116,-116 174,-256 174,-419 0,-163 -58,-303 -174,-418 C 1067,206 928,148 765,148 601,148 462,206 346,322 231,437 173,577 173,740 Z"
   id="path237" />
  </g>
 </defs>
 
 <g
   inkscape:groupmode="layer"
   id="layer1"
   inkscape:label="Layer 1"
   transform="translate(-101.30119,-101.15563)"><g
     id="layer2"
     inkscape:label="Pants"
     style="display:inline"><path
       fill="#2a6099"
       stroke="none"
       d="m 10007,9895 c 371,92 765,171 1139,255 379,87 758,168 1124,303 -554,-350 -1608,-532 -2263,-558 z m -280,-428 c 157,-87 290,-209 412,-338 46,-44 82,-101 134,-139 -35,-4 -68,15 -99,28 -87,45 -166,106 -239,171 -91,83 -173,175 -240,278 -3,3 -8,13 -11,15 -1,2 -3,5 -3,3 0,1 -1,1 1,2 h 1 l 4,-1 c 10,-4 30,-14 40,-19 z M 9510,7858 c -37,376 -79,753 -61,1132 89,-747 197,-1501 233,-2253 -78,371 -128,745 -172,1121 z m -711,969 c 142,-302 207,-634 281,-957 67,-321 127,-657 171,-982 -127,389 -211,809 -296,1210 -47,226 -96,508 -156,729 z M 7104,8351 c 309,-129 618,-287 914,-444 293,-161 602,-326 874,-520 -611,287 -1220,599 -1788,964 z m -620,-900 c 370,-16 741,-6 1111,-22 423,-21 856,-47 1257,-193 -726,146 -1478,94 -2212,172 -105,12 -211,28 -314,56 53,-5 105,-11 158,-13 z m -1207,-847 28,9 c 431,114 876,170 1316,238 763,106 1544,200 2312,254 -753,-127 -1544,-228 -2302,-325 -405,-54 -924,-106 -1325,-173 l -28,-6 -28,-9 z m 619,-982 c -366,-16 -1434,558 -1764,778 370,-152 736,-332 1099,-503 171,-80 374,-181 549,-246 38,-13 76,-27 116,-29 z m 4312,2358 c -59,-148 -138,-361 -197,-512 -56,-151 -146,-364 -190,-516 36,478 479,1719 835,2026 -107,-149 -171,-322 -244,-489 -70,-169 -138,-338 -204,-509 z m 1437,1219 c -280,27 -553,86 -826,152 -272,68 -541,144 -801,250 279,-28 553,-86 825,-152 272,-68 541,-144 802,-250 z M 2922,4909 c -375,-72 -766,-157 -1147,-181 751,175 1511,353 2275,456 -366,-109 -754,-196 -1128,-275 z m -10,-1144 c -227,79 -475,445 -568,662 106,-103 198,-216 290,-330 81,-98 184,-248 278,-332 z m 860,453 c -165,21 -322,84 -476,145 -153,64 -302,135 -442,226 324,-76 627,-214 918,-371 z m 1326,485 c -176,-5 -353,-1 -530,5 -435,18 -889,51 -1319,113 525,13 1063,-23 1587,-60 l 263,-21 132,-10 c 43,-1 89,-12 131,-2 -9,-6 -21,-7 -31,-9 -77,-12 -155,-13 -233,-16 z m 6871,5287 274,204 c 46,142 129,358 270,715 68,174 160,368 266,585 -41,-44 -84,-87 -129,-128 -433,-390 -983,-619 -1531,-798 -721,-236 -1471,-350 -2199,-560 -43,-140 -45,-239 -45,-240 v -34 l -25,-23 c -22,-19 -43,-38 -65,-57 104,31 210,57 316,82 208,45 418,83 633,90 -198,-86 -403,-141 -611,-189 -147,-32 -294,-60 -444,-76 C 8075,9042 7500,8684 6512,8136 6319,7973 6136,7799 5953,7626 5558,7248 5161,6835 4759,6464 c 320,378 655,742 1009,1088 158,150 318,301 486,442 -172,-94 -356,-194 -554,-302 C 4079,6810 3607,6529 2693,5796 2295,5476 1855,5190 1502,4961 1271,4810 1034,4656 936,4569 c 228,-19 349,-81 499,-158 95,-49 203,-105 366,-165 393,-144 803,-775 930,-982 121,66 373,194 530,194 112,0 191,66 301,159 40,34 82,68 129,104 187,140 868,586 1182,760 280,156 1177,567 1302,567 21,0 67,45 115,93 19,19 41,40 66,64 -309,-85 -622,-30 -913,140 -98,50 -192,127 -297,149 -111,12 -234,25 -345,36 -433,36 -1477,149 -1831,-47 406,269 1573,151 2069,97 l 115,-14 c 48,-6 86,-25 121,-43 137,-77 260,-164 403,-224 139,-60 289,-96 441,-96 90,-1 180,11 269,31 38,35 83,73 136,113 106,78 654,290 1631,630 588,204 1205,409 1428,479 311,535 647,1054 1026,1543 90,113 184,224 290,323 87,82 168,135 293,89 14,-5 28,-12 43,-18 83,138 185,262 292,383 106,116 217,227 343,323 l -45,285 -687,244 h 649 l -32,204 97,71 c -123,-44 -247,-85 -373,-119 -213,-56 -427,-108 -649,-121 202,90 409,160 622,219 170,44 342,89 517,108 z m -1604,1935 c -81,-108 -155,-221 -207,-347 197,777 1586,1864 2240,2334 -483,-470 -1016,-909 -1491,-1386 -192,-190 -379,-386 -542,-601 z m -149,1325 c 391,206 781,416 1191,582 318,129 647,258 991,289 l -70,-23 c -436,-146 -861,-354 -1287,-532 -272,-112 -541,-238 -825,-316 z m 164,-1787 c -247,-183 -498,-359 -768,-508 426,400 898,745 1391,1058 205,227 411,457 608,681 385,442 778,892 1122,1367 53,71 114,171 165,246 -43,-79 -93,-186 -141,-261 -28,-44 -90,-145 -118,-189 -110,-166 -268,-382 -390,-541 -485,-623 -1014,-1211 -1567,-1774 -256,-258 -513,-517 -791,-752 896,283 1819,574 2635,1020 -788,-600 -2102,-997 -3077,-1161 140,45 282,90 424,135 254,261 506,545 752,812 69,76 139,152 209,229 -146,-127 -300,-245 -454,-362 z m 1564,1018 c 147,59 296,109 454,130 -128,-95 -270,-163 -416,-224 -147,-58 -296,-108 -454,-130 128,95 270,163 416,224 z m -956,-822 c 550,215 1107,465 1643,708 -235,-189 -500,-338 -776,-459 -277,-118 -567,-214 -867,-249 z m 1840,-67 c 6,14 13,27 20,41 250,511 533,1089 720,1731 251,864 -142,1364 -223,1455 -219,54 -457,110 -518,119 -186,-87 -1870,-1143 -1961,-1214 -54,-42 -595,-403 -1151,-748 -778,-481 -1060,-608 -1179,-632 21,-35 46,-75 67,-106 44,-69 89,-139 114,-193 127,-212 194,-281 380,-637 174,-335 320,-670 321,-673 l 9,-19 -8,-19 c -11,-30 -110,-282 -288,-295 -112,-138 -175,-278 -210,-392 700,284 1453,414 2168,653 625,205 1270,458 1739,929 z"
       id="path256" /><path
       fill="none"
       stroke="#3465a4"
       d="m 10007,9895 c 371,92 765,171 1139,255 379,87 758,168 1124,303 -554,-350 -1608,-532 -2263,-558 z"
       id="path258" /><path
       fill="none"
       stroke="#3465a4"
       d="m 9727,9467 c 157,-87 290,-209 412,-338 46,-44 82,-101 134,-139 -35,-4 -68,15 -99,28 -87,45 -166,106 -239,171 -91,83 -173,175 -240,278 -3,3 -8,13 -11,15 -1,2 -3,5 -3,3 0,1 -1,1 1,2 h 1 l 4,-1 c 10,-4 30,-14 40,-19 z"
       id="path260" /><path
       fill="none"
       stroke="#3465a4"
       d="m 9510,7858 c -37,376 -79,753 -61,1132 89,-747 197,-1501 233,-2253 -78,371 -128,745 -172,1121 z"
       id="path262" /><path
       fill="none"
       stroke="#3465a4"
       d="m 8799,8827 c 142,-302 207,-634 281,-957 67,-321 127,-657 171,-982 -127,389 -211,809 -296,1210 -47,226 -96,508 -156,729 z"
       id="path264" /><path
       fill="none"
       stroke="#3465a4"
       d="m 7104,8351 c 309,-129 618,-287 914,-444 293,-161 602,-326 874,-520 -611,287 -1220,599 -1788,964 z"
       id="path266" /><path
       fill="none"
       stroke="#3465a4"
       d="m 6484,7451 c 370,-16 741,-6 1111,-22 423,-21 856,-47 1257,-193 -726,146 -1478,94 -2212,172 -105,12 -211,28 -314,56 53,-5 105,-11 158,-13 z"
       id="path268" /><path
       fill="none"
       stroke="#3465a4"
       d="m 5277,6604 28,9 c 431,114 876,170 1316,238 763,106 1544,200 2312,254 -753,-127 -1544,-228 -2302,-325 -405,-54 -924,-106 -1325,-173 l -28,-6 -28,-9 z"
       id="path270" /><path
       fill="none"
       stroke="#3465a4"
       d="m 5896,5622 c -366,-16 -1434,558 -1764,778 370,-152 736,-332 1099,-503 171,-80 374,-181 549,-246 38,-13 76,-27 116,-29 z"
       id="path272" /><path
       fill="none"
       stroke="#3465a4"
       d="m 10208,7980 c -59,-148 -138,-361 -197,-512 -56,-151 -146,-364 -190,-516 36,478 479,1719 835,2026 -107,-149 -171,-322 -244,-489 -70,-169 -138,-338 -204,-509 z"
       id="path274" /><path
       fill="none"
       stroke="#3465a4"
       d="m 11645,9199 c -280,27 -553,86 -826,152 -272,68 -541,144 -801,250 279,-28 553,-86 825,-152 272,-68 541,-144 802,-250 z"
       id="path276" /><path
       fill="none"
       stroke="#3465a4"
       d="m 2922,4909 c -375,-72 -766,-157 -1147,-181 751,175 1511,353 2275,456 -366,-109 -754,-196 -1128,-275 z"
       id="path278" /><path
       fill="none"
       stroke="#3465a4"
       d="m 2912,3765 c -227,79 -475,445 -568,662 106,-103 198,-216 290,-330 81,-98 184,-248 278,-332 z"
       id="path280" /><path
       fill="none"
       stroke="#3465a4"
       d="m 3772,4218 c -165,21 -322,84 -476,145 -153,64 -302,135 -442,226 324,-76 627,-214 918,-371 z"
       id="path282" /><path
       fill="none"
       stroke="#3465a4"
       d="m 5098,4703 c -176,-5 -353,-1 -530,5 -435,18 -889,51 -1319,113 525,13 1063,-23 1587,-60 l 263,-21 132,-10 c 43,-1 89,-12 131,-2 -9,-6 -21,-7 -31,-9 -77,-12 -155,-13 -233,-16 z"
       id="path284" /><path
       fill="none"
       stroke="#3465a4"
       d="m 11969,9990 274,204 c 46,142 129,358 270,715 68,174 160,368 266,585 -41,-44 -84,-87 -129,-128 -433,-390 -983,-619 -1531,-798 -721,-236 -1471,-350 -2199,-560 -43,-140 -45,-239 -45,-240 v -34 l -25,-23 c -22,-19 -43,-38 -65,-57 104,31 210,57 316,82 208,45 418,83 633,90 -198,-86 -403,-141 -611,-189 -147,-32 -294,-60 -444,-76 C 8075,9042 7500,8684 6512,8136 6319,7973 6136,7799 5953,7626 5558,7248 5161,6835 4759,6464 c 320,378 655,742 1009,1088 158,150 318,301 486,442 -172,-94 -356,-194 -554,-302 C 4079,6810 3607,6529 2693,5796 2295,5476 1855,5190 1502,4961 1271,4810 1034,4656 936,4569 c 228,-19 349,-81 499,-158 95,-49 203,-105 366,-165 393,-144 803,-775 930,-982 121,66 373,194 530,194 112,0 191,66 301,159 40,34 82,68 129,104 187,140 868,586 1182,760 280,156 1177,567 1302,567 21,0 67,45 115,93 19,19 41,40 66,64 -309,-85 -622,-30 -913,140 -98,50 -192,127 -297,149 -111,12 -234,25 -345,36 -433,36 -1477,149 -1831,-47 406,269 1573,151 2069,97 l 115,-14 c 48,-6 86,-25 121,-43 137,-77 260,-164 403,-224 139,-60 289,-96 441,-96 90,-1 180,11 269,31 38,35 83,73 136,113 106,78 654,290 1631,630 588,204 1205,409 1428,479 311,535 647,1054 1026,1543 90,113 184,224 290,323 87,82 168,135 293,89 14,-5 28,-12 43,-18 83,138 185,262 292,383 106,116 217,227 343,323 l -45,285 -687,244 h 649 l -32,204 97,71 c -123,-44 -247,-85 -373,-119 -213,-56 -427,-108 -649,-121 202,90 409,160 622,219 170,44 342,89 517,108 z"
       id="path286" /><path
       fill="none"
       stroke="#3465a4"
       d="m 10365,11925 c -81,-108 -155,-221 -207,-347 197,777 1586,1864 2240,2334 -483,-470 -1016,-909 -1491,-1386 -192,-190 -379,-386 -542,-601 z"
       id="path288" /><path
       fill="none"
       stroke="#3465a4"
       d="m 10216,13250 c 391,206 781,416 1191,582 318,129 647,258 991,289 l -70,-23 c -436,-146 -861,-354 -1287,-532 -272,-112 -541,-238 -825,-316 z"
       id="path290" /><path
       fill="none"
       stroke="#3465a4"
       d="m 10380,11463 c -247,-183 -498,-359 -768,-508 426,400 898,745 1391,1058 205,227 411,457 608,681 385,442 778,892 1122,1367 53,71 114,171 165,246 -43,-79 -93,-186 -141,-261 -28,-44 -90,-145 -118,-189 -110,-166 -268,-382 -390,-541 -485,-623 -1014,-1211 -1567,-1774 -256,-258 -513,-517 -791,-752 896,283 1819,574 2635,1020 -788,-600 -2102,-997 -3077,-1161 140,45 282,90 424,135 254,261 506,545 752,812 69,76 139,152 209,229 -146,-127 -300,-245 -454,-362 z"
       id="path292" /><path
       fill="none"
       stroke="#3465a4"
       d="m 11944,12481 c 147,59 296,109 454,130 -128,-95 -270,-163 -416,-224 -147,-58 -296,-108 -454,-130 128,95 270,163 416,224 z"
       id="path294" /><path
       fill="none"
       stroke="#3465a4"
       d="m 10988,11659 c 550,215 1107,465 1643,708 -235,-189 -500,-338 -776,-459 -277,-118 -567,-214 -867,-249 z"
       id="path296" /><path
       fill="none"
       stroke="#3465a4"
       d="m 12828,11592 c 6,14 13,27 20,41 250,511 533,1089 720,1731 251,864 -142,1364 -223,1455 -219,54 -457,110 -518,119 -186,-87 -1870,-1143 -1961,-1214 -54,-42 -595,-403 -1151,-748 -778,-481 -1060,-608 -1179,-632 21,-35 46,-75 67,-106 44,-69 89,-139 114,-193 127,-212 194,-281 380,-637 174,-335 320,-670 321,-673 l 9,-19 -8,-19 c -11,-30 -110,-282 -288,-295 -112,-138 -175,-278 -210,-392 700,284 1453,414 2168,653 625,205 1270,458 1739,929 z"
       id="path298" /></g><path
     fill="#ffff00"
     stroke="none"
     d="m 9852,4731 c -149,-118 -300,-233 -467,-327 262,276 559,519 886,714 -128,-142 -271,-266 -419,-387 z m 2212,-368 c -348,-351 -728,-699 -1093,-1031 247,309 546,594 826,874 277,273 594,555 873,825 -83,-119 -195,-236 -293,-344 -99,-106 -211,-221 -313,-324 z m -668,1419 c 215,121 451,205 698,231 -106,-67 -220,-113 -337,-153 -117,-38 -236,-72 -361,-78 z M 8967,4357 c 196,9 328,12 383,-19 86,-49 198,-127 181,-237 -7,-45 -17,-89 -25,-119 56,-35 63,-61 65,-70 3,-12 -6,-95 -21,-201 80,-45 215,-165 414,-343 63,-58 123,-111 166,-148 125,-106 909,-271 1017,-284 26,7 110,38 185,65 40,15 85,31 131,48 85,137 162,278 251,412 186,283 379,566 627,798 -177,-258 -388,-580 -567,-837 -87,-119 -169,-244 -264,-357 131,46 270,92 375,113 203,42 1403,1328 1482,1831 -175,189 -401,381 -634,561 -212,50 -424,99 -637,144 -77,15 -154,33 -232,40 -4,0 -11,2 -14,-2 3,4 10,3 14,4 79,-2 157,-14 235,-24 174,-23 347,-48 520,-75 -144,109 -289,213 -422,309 -304,219 -552,398 -668,533 -103,-80 -207,-160 -306,-237 140,19 283,13 420,-19 -160,-49 -328,-61 -493,-38 -211,-164 -397,-311 -517,-406 122,22 243,43 324,57 226,39 451,79 678,112 -395,-89 -806,-197 -1203,-297 205,-43 409,-86 614,-129 167,-34 605,-124 767,-154 86,-15 171,-33 257,-43 -86,6 -173,19 -259,30 -565,82 -1171,180 -1737,273 181,-239 372,-497 554,-733 108,-139 216,-278 329,-414 115,-133 221,-278 364,-381 -148,96 -262,237 -384,364 -234,259 -457,527 -680,795 -21,-21 -42,-43 -65,-63 -46,-42 -118,-100 -168,-140 -338,-259 -696,-492 -1057,-719 z m 9123,1187 c 1,6 1,9 3,18 -69,62 -189,135 -282,153 -70,8 -138,9 -205,22 -96,14 -191,32 -286,50 -586,-149 -1077,-539 -1473,-986 301,494 835,921 1422,996 -13,2 -26,5 -40,8 -91,-11 -180,-34 -270,-53 -148,-36 -295,-77 -441,-121 -292,-91 -588,-174 -873,-287 262,179 987,447 1461,486 -41,8 -81,16 -122,24 -11,3 -23,5 -34,7 -90,-4 -181,-7 -271,-11 -268,-14 -537,-30 -795,-103 -108,-30 -205,-81 -308,-125 175,147 393,233 620,263 175,28 354,32 532,22 -197,40 -410,89 -567,146 -264,86 -524,191 -790,260 -48,11 -97,22 -147,31 103,-222 177,-457 259,-687 -84,187 -169,373 -263,555 -26,49 -52,100 -83,146 -126,19 -256,31 -377,44 -39,6 -81,9 -122,16 10,-15 19,-30 29,-45 28,-33 57,-66 86,-99 344,-382 701,-758 1055,-1131 -320,311 -642,619 -956,936 173,-272 348,-543 535,-806 20,-29 43,-56 65,-84 -95,106 -178,222 -263,336 -183,252 -363,507 -541,763 -7,7 -14,14 -21,22 -6,6 -11,13 -17,19 239,-607 483,-1213 695,-1831 5,-23 19,-48 15,-71 3,23 -11,48 -17,71 -264,694 -568,1373 -861,2056 -336,444 -799,1069 -1134,1489 153,-289 298,-582 442,-875 438,-902 856,-1814 1239,-2741 -591,1169 -1160,2433 -1742,3631 l -130,-69 -214,-139 c -78,-218 -192,-475 -329,-589 242,48 540,107 720,146 45,11 90,19 134,33 -43,-17 -87,-29 -131,-42 -194,-56 -519,-144 -767,-212 26,-33 55,-71 88,-114 l 858,-335 -788,243 c 96,-126 212,-279 336,-444 v 30 c 354,-20 715,-297 983,-511 95,-79 187,-160 274,-247 -295,256 -817,656 -1221,681 103,-138 212,-284 320,-430 226,-75 492,-164 663,-222 -175,45 -401,105 -618,161 259,-353 508,-703 660,-941 2,165 2,329 1,489 -1,77 -4,160 -14,235 l 18,-57 c 51,-211 59,-431 67,-647 8,-394 -6,-788 -55,-1179 -17,271 -20,552 -19,833 -259,320 -1491,1814 -2093,2118 -108,-80 -223,-168 -341,-259 105,-119 363,-305 636,-502 670,-483 1503,-1084 1563,-1642 45,-422 56,-718 -1,-974 43,66 85,132 127,198 170,285 351,572 435,896 -64,-330 -228,-631 -381,-927 -119,-222 -246,-439 -378,-653 -15,-23 -44,-69 -69,-108 345,79 670,162 777,205 -21,45 -43,104 -39,145 4,32 23,70 41,106 5,9 10,20 15,30 -10,10 -19,24 -26,43 -23,62 -9,152 17,208 27,58 94,132 120,158 35,121 68,130 84,133 15,5 95,45 163,80 44,43 263,250 371,280 39,11 79,14 126,17 89,5 212,12 400,88 281,112 653,388 724,481 7,9 15,21 25,34 95,131 317,437 829,689 146,72 312,99 458,99 157,0 291,-32 348,-71 40,-27 46,-57 45,-77 -7,-93 -559,-1207 -827,-1342 l -4,-2 c -6,-2 -271,-107 -553,-218 131,16 262,29 388,51 125,23 250,51 344,137 168,154 265,400 395,592 60,81 108,161 144,259 66,174 111,357 144,541 z m -8075,-251 c -206,171 -377,388 -569,574 224,-75 469,-364 569,-574 z m 233,-3 c -87,104 -229,279 -317,379 -5,6 -9,9 -13,14 l -3,2 c -216,165 -552,419 -674,503 -28,-9 -56,-19 -86,-28 188,-314 73,-918 -99,-1382 -51,-140 -121,-299 -184,-395 420,239 841,483 1232,769 53,40 103,83 152,128 -2,3 -5,7 -8,10 z m 1351,3418 c -107,-117 -219,-229 -346,-325 259,-130 504,-438 665,-659 -127,140 -260,277 -404,398 -103,85 -321,267 -458,217 -150,-98 -259,-261 -373,-400 -320,-424 -621,-868 -916,-1311 24,-61 70,-177 121,-309 250,370 1137,1682 1265,1876 7,12 12,20 15,23 3,4 -2,-4 -15,-23 -112,-185 -796,-1398 -1103,-1941 150,167 310,325 475,479 171,158 349,311 539,448 65,42 128,97 204,117 -66,-40 -116,-103 -172,-155 l -166,-163 c -303,-296 -613,-586 -948,-847 l -12,-21 c 29,-74 57,-146 82,-209 l 2017,1902 -196,1256 c -80,-127 -175,-242 -274,-353 z M 7723,4119 c 9,-7 18,-14 28,-22 20,-17 41,-33 60,-46 l 33,-9 c -18,15 -36,31 -56,47 -188,157 -473,394 -253,1111 12,37 114,360 309,387 25,3 60,5 100,5 161,0 411,-28 522,-83 0,21 0,43 1,64 3,38 8,76 20,114 37,-69 50,-144 56,-220 3,-31 3,-61 2,-92 15,-76 29,-197 48,-378 15,-137 30,-280 44,-330 15,-57 40,-122 65,-180 59,228 270,1135 -52,1502 -420,-144 -895,-309 -1281,-452 l -63,-106 c -7,-12 -11,-23 -13,-34 1,-11 4,-22 10,-31 26,-50 38,-105 47,-153 22,-127 29,-256 38,-382 12,-125 7,-265 55,-380 61,-88 130,-168 198,-251 10,-11 21,-25 32,-38 16,-14 33,-28 50,-43 z m 1384,2023 c -124,-41 -261,-87 -405,-137 364,-449 48,-1537 34,-1586 l -5,2 c 16,-33 30,-58 40,-71 h 10 c 38,26 129,174 229,444 169,459 284,1054 97,1348 z m 3254,2437 281,1022 252,184 z m -147,1148 147,81 -147,-1509 z m 795,-215 c 56,148 108,287 111,378 -65,67 -549,77 -922,-17 l -2,-6 c -168,-51 -287,-109 -278,-152 29,-139 194,-1312 291,-1968 210,369 463,826 628,1106 7,222 94,452 172,659 z m 92,-1156 c -3,6 -6,13 -9,19 l -218,310 -499,-842 483,281 c 81,77 148,141 243,232 z m -1744,-1618 808,958 c -286,-294 -1841,-1572 -2112,-1795 17,-43 32,-81 44,-113 70,5 155,10 234,14 z m -1312,-955 -90,95 c -147,133 -294,267 -441,398 -45,-14 -96,-31 -154,-50 120,-85 320,-235 601,-450 18,2 47,4 84,7 z"
     id="path305"
     style="display:inline" /><path
     fill="#ffdbb6"
     stroke="none"
     d="m 12056,2754 c 3,-87 18,-172 24,-260 -30,82 -76,274 -11,343 -15,-25 -13,-55 -13,-83 z m 300,-142 c -83,47 -128,-5 -162,-1 -35,3 -58,0 -87,0 31,11 70,12 94,33 23,20 144,59 160,59 15,0 48,-21 72,-31 l 54,-80 130,-112 c -87,44 -179,86 -261,132 z m 663,-687 c 20,-28 39,-57 56,-86 36,-59 71,-118 101,-180 -33,50 -82,121 -115,170 -20,28 -39,57 -59,84 -11,13 -25,32 -24,51 2,54 35,99 46,148 30,99 -36,202 -121,251 65,-26 116,-84 140,-149 24,-69 -8,-141 -33,-204 -5,-15 -11,-31 -10,-45 0,-15 8,-24 19,-40 z m -669,-196 c -17,20 -44,65 -67,76 35,-4 62,-34 91,-53 22,-18 57,-48 78,-64 53,-30 198,-115 250,-142 l 1,-1 c 98,19 196,42 297,50 -90,-46 -182,-83 -279,-111 -11,-3 -21,-5 -34,-1 -66,25 -124,64 -182,101 -63,37 -113,86 -155,145 z m 445,77 136,-49 c -87,-17 -248,-51 -262,-51 -14,0 -182,79 -210,89 -28,10 -128,145 -138,152 l 41,172 v -159 c 26,7 75,20 77,23 2,3 164,-36 220,-62 56,-26 91,-77 136,-115 z m -240,522 c 93,84 191,162 302,219 -93,-82 -192,-160 -302,-219 z m 62,488 c 14,-4 119,-56 178,-83 -125,31 -291,67 -374,95 -80,26 -221,110 -252,113 16,-1 115,-8 138,-10 26,-1 159,-34 180,-45 22,-10 115,-67 130,-70 z m -197,306 c 75,-18 147,-44 216,-80 10,-33 19,-66 23,-100 -21,19 -38,41 -55,63 -67,11 -132,30 -194,56 -42,-13 -90,-19 -127,-44 0,15 11,27 20,36 29,32 66,54 104,72 z m 255,-2143 -20,-96 c -8,-27 -15,-69 -29,-93 11,30 13,63 18,95 14,95 27,197 49,290 3,12 7,25 12,37 1,3 6,14 16,17 74,26 147,62 212,107 26,18 52,39 67,68 -10,-32 -36,-56 -60,-77 -52,-41 -109,-74 -169,-102 -14,-6 -28,-12 -43,-17 -27,-73 -35,-153 -53,-229 z m 696,549 c -19,-29 -43,-50 -77,-60 4,33 18,60 34,86 l 8,14 c 0,1 0,-1 1,-2 3,23 9,45 23,65 20,-32 33,-71 11,-103 z m -1215,1485 -10,-11 c -110,-104 -180,-192 -192,-214 -14,-25 -46,-92 -83,-173 6,3 13,7 20,11 47,51 68,122 108,180 -24,-68 -41,-144 -94,-197 -18,-9 -34,-20 -51,-31 -73,-163 -160,-367 -167,-418 0,-4 0,-9 -1,-17 34,24 152,69 171,69 20,0 108,-13 124,-38 15,-24 55,-50 82,-75 1,0 88,139 111,167 24,29 -33,-177 -38,-193 -5,-15 -49,-102 -73,-152 l 17,139 c -62,-13 -165,-68 -245,-65 -45,2 -120,27 -173,53 -11,-35 -25,-81 -46,-142 l -5,-18 c 53,-3 102,8 157,13 76,4 159,8 231,-23 -19,-2 -38,-9 -57,-13 -55,-14 -111,-24 -167,-31 l -56,-6 c -45,-5 -97,4 -134,32 l -6,-4 c -30,-28 -102,-201 -175,-564 l -2,-11 -5,-10 c -12,-28 -26,-66 -34,-108 5,-82 15,-162 32,-196 41,-83 407,157 531,177 124,21 656,-536 752,-377 97,158 291,343 436,515 l 213,55 c 12,20 15,25 35,62 -97,-17 -200,-5 -295,-29 -70,-57 -108,-149 -155,-226 20,55 45,107 74,158 19,31 39,66 71,87 101,31 209,13 313,23 9,18 20,38 31,58 20,37 42,77 60,112 -6,37 -9,76 -13,112 v 2 c -2,46 -21,90 -52,123 -10,7 -23,19 -33,27 -5,4 -12,9 -17,3 9,14 29,-3 39,-8 22,-10 39,-25 51,-42 -9,46 -23,95 -45,136 -24,46 -49,75 -69,93 18,-94 12,-193 -13,-289 12,-14 28,-26 38,-41 4,-4 7,-9 9,-17 3,-9 -1,-18 -3,-22 -23,-39 -54,-66 -89,-91 20,37 56,70 71,108 -7,16 -20,30 -30,46 -27,-95 -73,-185 -129,-261 66,181 121,369 108,563 -1,12 -3,24 -4,36 l -21,15 -2,48 c -1,20 -2,39 -3,59 -2,10 -5,20 -8,30 3,-4 5,-8 8,-12 -4,81 -7,162 -10,243 -2,9 -3,18 -4,27 -21,167 -108,298 -178,404 -19,29 -38,57 -53,82 -24,41 -46,89 -65,134 2,-77 1,-155 -1,-232 -10,113 -21,226 -42,337 -1,6 -2,12 -4,18 l -3,12 c -16,21 -29,36 -39,44 -68,52 -118,102 -368,26 -57,-18 -118,-50 -178,-89 l -75,-94 c -27,-33 -53,-67 -78,-99 z M 332,3491 c 176,87 396,74 564,-27 54,-35 109,-75 140,-133 -23,33 -56,56 -88,80 -180,119 -412,146 -616,80 z M 1473,2471 c -261,-118 -544,202 -657,407 126,-180 403,-493 647,-387 122,56 182,175 111,298 87,-121 24,-257 -101,-318 z m -553,747 c 97,-102 442,-105 579,-86 -139,-52 -490,-49 -579,86 z M 1960,1994 c -35,108 104,148 184,115 27,-10 54,-26 72,-48 -25,14 -51,23 -77,29 -74,16 -181,0 -179,-96 z m 460,174 c -88,54 -175,42 -216,-60 12,125 139,148 227,76 26,-20 48,-46 58,-76 -20,25 -44,44 -69,60 z m -1000,1652 -74,-54 c -66,-48 -113,-77 -148,-91 -13,-5 -27,-10 -43,-15 -80,-27 -190,-52 -306,-67 -4,-1 -9,-2 -14,-2 -32,-4 -65,-7 -97,-9 -31,-2 -62,-3 -93,-3 -202,0 -362,-19 -425,-247 0,-2 -1,-4 -2,-6 v -1 c -3,-13 -6,-26 -8,-39 -1,-3 -1,-6 -2,-9 -2,-11 -3,-21 -4,-31 v -6 c -4,-51 3,-95 16,-134 1,-3 3,-6 4,-9 2,-6 4,-12 7,-18 2,-5 5,-11 8,-16 1,-3 3,-5 4,-8 28,-51 72,-99 132,-143 10,-8 20,-15 31,-22 23,-15 67,-40 119,-69 192,-108 515,-289 741,-514 5,-5 10,-10 14,-15 -4,5 -9,10 -14,15 8,-9 15,-16 23,-23 7,-7 15,-14 22,-21 1,0 1,-1 2,-1 158,-145 305,-217 409,-242 -15,3 -31,8 -47,14 50,-17 93,-25 126,-25 -9,0 -18,1 -28,2 24,-3 44,-2 60,1 l 4,1 c 2,0 5,1 7,2 l 29,13 25,-21 c 8,-7 16,-14 25,-20 5,-4 10,-7 15,-11 5,-4 10,-7 15,-10 6,-4 12,-8 18,-11 4,-2 7,-4 11,-6 7,-4 14,-7 21,-11 3,-1 5,-2 7,-3 l 24,-9 c 2,0 3,-1 5,-1 8,-3 16,-5 24,-6 1,-1 3,-1 4,-1 8,-2 15,-3 23,-3 h 8 17 c 8,1 16,3 24,5 5,2 10,3 15,6 1,0 3,1 5,2 2,2 5,4 8,6 1,1 3,2 5,3 l 8,8 3,3 c 3,4 7,8 10,13 7,11 13,25 17,40 l 23,85 62,-62 c 15,-15 30,-27 44,-36 2,-2 4,-3 7,-4 l 9,-6 c 1,0 2,-1 3,-1 19,-9 37,-12 54,-9 5,1 10,3 15,5 1,1 3,2 5,2 l 9,6 c 1,1 3,2 4,3 l 12,9 3,3 c 3,3 6,7 9,10 0,1 1,1 1,2 15,18 27,38 33,53 l 26,67 54,-47 c 10,-10 20,-16 28,-21 l 4,-2 h 1 c -2,0 -3,1 -5,2 l 4,-2 c 3,-2 7,-4 11,-5 0,0 -1,0 -1,1 2,-1 4,-2 6,-2 1,-1 1,-1 2,-1 5,-1 10,-2 14,-1 h 2 c 8,1 16,5 22,11 2,1 3,2 4,3 -8,-8 -17,-13 -26,-14 10,1 18,6 22,11 2,1 3,2 4,3 6,6 10,13 14,21 2,2 3,5 4,8 0,1 1,2 1,3 -2,-6 -4,-11 -7,-16 1,2 2,3 2,5 2,2 3,5 4,8 0,1 1,2 1,3 v 1 c 2,5 4,10 5,16 1,2 1,4 2,6 0,4 1,7 1,11 2,18 -1,33 -7,40 l -104,110 c -9,2 -19,4 -31,6 0,0 0,-1 1,-1 -1,0 -2,1 -2,2 -66,12 -162,19 -169,-43 -12,68 74,80 145,72 -7,11 -11,24 -14,38 l -15,16 13,-6 c -10,71 29,155 106,153 -65,-25 -90,-97 -83,-164 l 211,-102 c 48,-23 76,-20 92,-12 7,4 14,9 21,19 2,3 4,6 5,9 9,16 15,35 17,54 0,1 0,3 0,4 v 8 c 0,1 1,1 1,2 1,34 -6,65 -15,74 l -36,36 c -1,0 -2,1 -4,1 -89,42 -190,96 -226,193 28,-57 96,-104 170,-134 l -4,3 140,-13 c 22,-2 43,-2 62,-1 h 2 c 9,1 16,1 24,2 3,1 6,1 9,2 5,1 10,2 14,3 3,1 6,1 8,2 6,2 12,4 17,6 1,0 2,0 3,1 6,2 12,5 17,8 2,1 3,2 4,3 4,2 8,5 12,8 1,1 3,2 4,4 4,4 9,8 12,12 28,35 33,88 15,143 -2,6 -4,11 -7,16 0,2 -1,3 -2,4 -3,5 -6,11 -10,16 l -1,1 -12,15 -3,3 c -5,5 -10,11 -16,16 -1,0 -2,1 -3,2 -5,4 -10,9 -15,13 -2,1 -3,2 -5,3 -6,5 -12,10 -19,15 -1,1 -3,2 -4,3 -6,4 -13,8 -19,12 -1,1 -3,2 -4,3 -8,4 -15,9 -23,13 -2,1 -3,2 -5,3 l -21,12 c -2,0 -3,1 -4,2 -8,4 -17,8 -25,12 l -6,3 c -7,4 -15,7 -23,11 -1,0 -2,1 -3,1 -8,4 -17,7 -25,11 -2,1 -4,2 -6,2 -9,4 -17,7 -25,10 0,0 -1,0 -1,1 -9,3 -17,6 -25,9 -2,0 -4,1 -6,2 -8,3 -17,5 -25,8 h -1 c -8,3 -15,5 -22,7 -1,0 -2,1 -3,1 v -124 124 c -42,12 -78,18 -102,18 v 51 c -9,-9 -12,-11 -18,-17 -175,181 -493,288 -750,225 -47,-12 -91,-28 -132,-52 -94,-53 -164,-143 -205,-243 19,51 44,100 78,143 59,77 136,129 223,160 94,33 199,42 305,31 l -46,64 -105,146 123,-143 12,-14 c 2,6 5,11 8,17 v 2 l 2,2 c 22,40 68,88 129,128 41,59 65,129 15,192 -113,142 -336,261 -523,369 -32,18 -66,25 -101,23 -1,-1 -2,-1 -3,-2 -72,-62 -158,-134 -239,-196 z M 2561,2285 Z m 0,26 -15,17 c 1,-5 2,-10 3,-14 5,-1 9,-2 12,-3 z M 12725,1207 h 1 l 1,1 c -1,0 -1,-1 -2,-1 z m 3106,2883 c -10,-1 -29,1 -35,12 -54,75 -175,54 -249,17 75,52 208,76 270,-2 1,-1 7,-1 12,0 76,14 149,47 222,75 168,69 334,142 500,216 291,130 582,260 869,398 40,22 82,40 118,68 -33,-32 -73,-55 -112,-79 -274,-164 -563,-301 -854,-433 -167,-74 -335,-145 -507,-207 -77,-26 -153,-56 -234,-65 z m -921,-931 c 32,19 65,33 101,43 -32,-26 -69,-49 -103,-73 -8,-6 -10,-8 -14,-13 -28,-28 -122,4 -109,-58 -21,27 3,53 31,60 14,7 56,9 61,16 11,13 20,17 33,25 z m -90,249 c 46,14 90,-9 135,-9 11,-1 23,1 34,8 -7,-11 -20,-18 -33,-20 -42,-11 -88,7 -128,-2 -31,-20 -69,-53 -53,-96 -37,39 6,98 45,119 z m 123,219 c 5,-6 18,-21 23,-27 2,-2 5,-7 8,-6 -1,-2 -4,0 -5,1 -6,3 -10,6 -15,10 -38,28 -84,74 -131,74 -13,0 -21,-7 -33,-17 -34,-30 -46,-72 -33,-118 -39,47 -15,122 36,152 60,29 114,-29 150,-69 z m -463,-692 c 2,-5 3,-10 5,-16 0,-1 1,-1 1,-2 0,1 0,1 0,1 13,-20 57,-39 118,-55 102,-26 251,-45 371,-50 -40,36 -76,93 -89,122 47,-37 83,-86 128,-123 10,-1 19,-1 28,-1 5,0 10,1 16,3 4,2 9,5 14,8 2,2 5,3 7,5 68,51 166,211 238,340 21,35 39,68 54,96 15,28 30,54 43,78 1,1 2,3 2,4 6,9 11,18 15,26 5,7 8,14 12,21 2,2 3,4 4,6 23,38 41,65 57,82 11,12 24,24 38,38 101,93 286,226 445,286 8,3 18,7 29,11 34,13 81,32 139,54 10,4 20,8 31,12 3,1 5,3 8,4 342,133 952,374 994,390 222,116 719,1105 767,1247 -69,45 -422,100 -702,-38 -490,-240 -702,-533 -792,-657 -5,-7 -10,-14 -14,-20 131,68 263,134 396,198 196,91 393,187 603,242 30,6 61,13 92,10 -31,2 -61,-6 -91,-13 -208,-62 -400,-165 -592,-262 -170,-88 -337,-180 -503,-275 -153,-134 -453,-338 -684,-430 -162,-65 -278,-83 -367,-91 72,-39 136,-95 182,-162 -72,81 -170,134 -274,156 -31,-2 -56,-5 -78,-11 -67,-19 -240,-170 -333,-260 l -5,-6 -7,-3 c -17,-9 -36,-19 -54,-28 l 141,-15 c 82,41 171,67 250,72 25,0 51,-2 74,-13 -25,6 -49,4 -73,1 -72,-12 -141,-38 -207,-68 -89,-41 -176,-87 -250,-152 48,61 120,116 200,157 l -218,-23 c -16,-7 -30,-14 -40,-18 -8,-14 -21,-48 -29,-79 l -4,-13 -9,-9 c -11,-11 -30,-31 -49,-55 l 219,-72 -248,37 c -13,-18 -25,-35 -31,-50 -19,-40 -25,-100 -14,-130 2,-6 4,-9 5,-9 11,-5 20,-13 26,-23 l 232,-82 -226,31 c -5,-20 -16,-42 -30,-70 -12,-23 -29,-58 -31,-73 -2,-16 19,-72 46,-122 104,-29 208,-59 314,-69 -96,-3 -193,10 -289,25 l 5,-8 -25,-24 c 0,-1 -1,-4 -1,-7 l 6,-6 c -2,-2 -5,-4 -7,-6 0,-5 0,-13 2,-22 l 1,-6 c 2,-12 5,-24 8,-36 z M 8363,4053 c -1,1 -42,63 -115,68 -69,5 -146,-41 -229,-135 l 13,-28 -13,28 c 0,0 0,-1 -1,-1 5,-10 10,-18 14,-27 v -1 c 0,-1 0,-2 1,-2 l 1,-5 -1,2 c 2,-4 4,-8 5,-12 7,-18 13,-36 18,-54 0,-3 1,-6 2,-8 l 3,-15 c 1,-4 1,-7 2,-10 1,-4 2,-9 2,-13 1,-4 2,-8 2,-11 1,-4 1,-7 2,-11 0,-5 1,-9 2,-14 v -7 c 1,-7 2,-13 3,-19 5,-51 10,-72 18,-78 -9,7 -13,31 -18,78 5,-51 10,-72 18,-78 1,-1 2,-2 3,-2 l 1,-1 c 7,-2 15,-5 22,-8 l 6,-3 c 6,-3 11,-6 16,-10 15,-11 30,-25 45,-41 0,-1 1,-1 1,-2 3,-4 6,-7 9,-11 5,-7 11,-14 16,-21 0,-1 1,-2 2,-3 23,-33 43,-70 63,-105 2,-2 3,-5 5,-8 1,-2 2,-3 3,-5 18,-33 42,-74 55,-84 4,-1 8,-1 12,-2 h 1 c 5,0 9,0 14,-1 h 1 c 9,0 21,-1 33,-1 h 6 10 c 6,0 12,0 18,1 16,0 30,1 44,1 3,1 7,1 10,1 13,1 23,2 31,2 l 28,3 16,-22 c 34,-45 78,-95 104,-120 4,-5 9,-9 12,-12 h 1 136 2 l 15,-15 15,-15 c 0,-1 1,-1 1,-1 16,-16 33,-30 49,-40 18,-13 34,-21 42,-21 1,0 1,-1 2,-1 2,1 5,1 8,2 10,3 23,9 37,17 21,12 44,27 65,43 3,3 7,5 10,8 l 15,12 14,11 h 18 c 81,2 175,8 230,16 8,1 16,3 22,4 3,0 6,1 9,1 6,22 15,64 24,117 4,22 9,47 14,76 28,160 58,363 63,422 -5,4 -13,9 -22,15 -53,6 -123,13 -165,17 -25,-218 -54,-435 -105,-648 -5,210 9,420 28,629 -60,5 -122,7 -179,0 -22,-15 -37,-60 -49,-90 -39,-115 -61,-235 -90,-354 -2,91 -1,298 48,422 -64,34 -145,27 -211,2 -124,-70 -181,-291 -216,-424 17,111 46,295 125,405 -5,14 -17,43 -35,63 -37,10 -90,11 -152,-26 -115,-68 -198,-177 -209,-192 -2,-8 -8,-43 33,-63 l -11,-22 c -53,25 -53,73 -46,95 l 2,3 c 2,3 32,45 82,94 16,24 32,49 48,70 -3,27 1,55 4,81 5,26 10,54 21,79 z m 589,201 c -171,-8 -210,-9 -236,9 -3,1 -6,4 -9,7 -99,-22 -203,-67 -236,-148 48,12 105,19 148,3 86,-31 187,-41 204,-31 26,15 93,37 122,46 9,23 31,73 67,117 -22,-1 -42,-2 -60,-3 z m 334,-314 v -1 c 2,0 4,0 6,0 z m 9,-2 c -1,0 -2,1 -3,1 z m -762,8089 c -15,2 -31,3 -47,4 h -5 -23 c -8,1 -15,1 -22,1 -8,0 -16,-1 -24,-1 -9,-1 -17,-1 -26,-2 -8,0 -15,-1 -22,-2 -10,0 -20,-1 -30,-2 -7,-1 -14,-2 -20,-3 -11,-1 -22,-3 -33,-4 -7,-1 -13,-2 -19,-3 -12,-2 -25,-4 -37,-6 -6,-1 -11,-2 -17,-3 -14,-3 -29,-6 -43,-8 l -12,-3 c -19,-3 -38,-7 -57,-10 -131,-26 -280,-55 -455,-67 -11,0 -23,-1 -34,-2 -7,0 -15,-1 -22,-1 -3,0 -7,0 -10,-1 -8,0 -16,0 -24,-1 h -7 c -8,0 -17,-1 -25,-1 h -4 c -286,-8 -365,39 -446,88 -1,1 -1,1 -2,1 l -9,6 c -66,40 -199,55 -243,60 -8,1 -13,2 -17,2 l -10,1 -12,5 c -9,3 -22,10 -43,20 -1,1 -2,1 -3,1 -17,9 -38,19 -65,33 -38,20 -101,51 -138,68 -1,0 -1,0 -1,0 -3,-8 -6,-17 -9,-26 -14,-55 -23,-145 9,-211 v -1 c 2,-4 5,-9 8,-13 0,-1 1,-2 1,-3 4,-5 7,-10 11,-15 15,-18 33,-33 53,-48 70,-50 161,-78 224,-95 12,-3 22,-6 31,-8 6,-2 11,-3 15,-4 1,0 1,-1 2,-1 4,-1 7,-1 10,-2 l 1,-1 19,-5 c 11,-5 21,-13 29,-23 l 9,-13 c 5,-8 10,-17 16,-28 6,-11 11,-24 18,-37 36,-77 85,-183 185,-233 80,-42 192,-52 333,-66 18,-1 37,-3 56,-5 13,-1 27,-3 41,-4 55,-6 113,-13 175,-23 74,-12 154,-27 240,-50 42,-11 80,-22 115,-33 21,-7 42,-14 61,-21 1,0 2,0 3,-1 1,0 1,0 2,-1 61,-23 109,-46 148,-71 96,-61 129,-123 161,-184 7,-12 13,-24 21,-37 v -1 c 8,-13 22,-31 42,-52 21,-23 48,-49 79,-77 21,-19 44,-40 69,-60 91,-75 196,-150 282,-196 9,-5 17,-9 25,-13 l 17,-9 c 33,-14 61,-23 82,-24 h 2 c 90,0 170,142 201,212 -208,478 -538,1121 -717,1277 -14,10 -33,15 -41,29 -8,3 -15,6 -22,7 z m 453,-8077 12,9 c 13,6 27,7 39,9 17,2 34,4 51,4 -36,76 -35,155 -16,168 13,8 110,38 147,38 h 4 c 42,-3 68,-84 64,-155 -2,-25 -16,-43 -35,-56 7,0 15,-1 23,-2 37,24 104,67 146,96 4,17 7,36 10,54 4,25 -16,68 -132,134 -24,13 -119,13 -212,11 -64,-50 -98,-148 -98,-149 l -5,-13 -12,-3 c -5,-2 -10,-3 -15,-5 -8,-38 -14,-106 29,-140 z m 130,23 c 28,1 56,0 84,-1 31,9 60,25 61,52 v 1 c -62,8 -73,79 -24,114 -5,8 -11,13 -16,14 -28,1 -124,-28 -133,-33 -6,-10 -9,-77 28,-147 z m -453,86 c -23,6 -45,13 -61,19 -59,21 -170,-18 -208,-35 l -4,-1 c -9,-47 -16,-94 -24,-141 54,55 153,79 202,84 38,4 78,-19 97,-32 -1,36 1,71 -2,106 z m 183,-10 c -33,-17 -108,-7 -172,8 1,-3 2,-5 3,-8 12,-39 15,-81 11,-122 l 7,-12 c 10,7 21,13 32,18 69,28 148,38 220,15 -31,33 -74,75 -101,101 z m 416,-15 c 0,40 -9,76 -20,97 -16,-44 -17,-65 20,-97 z m -1285,121 c -195,159 -396,390 -399,655 2,37 8,75 21,110 -7,-37 -11,-74 -8,-110 22,-258 215,-474 386,-655 z m 414,235 c 12,-42 21,-87 41,-126 -116,209 -261,900 -90,1080 -28,-38 -42,-83 -49,-128 -21,-138 -3,-278 15,-416 20,-137 47,-275 83,-410 z m -761,780 v -1 c -201,-652 33,-847 221,-1003 31,-26 60,-50 85,-75 21,-20 39,-41 54,-61 90,100 178,148 261,142 72,-6 119,-50 140,-75 6,3 14,5 22,8 21,115 140,179 259,209 -54,88 -115,252 -135,326 -16,58 -30,191 -46,345 -17,154 -41,386 -62,427 -46,39 -402,97 -573,73 -111,-15 -202,-238 -226,-315 z M 2631,2052 c -2,0 -3,1 -5,1 2,0 3,-1 5,-1 z m -1285,1714 74,54 -1,2 c -89,-69 -171,-127 -221,-147 35,14 82,43 148,91 z m 8,-1540 c 123,-106 235,-164 321,-192 -89,30 -201,90 -321,192 z m -2,1 c 1,0 1,-1 2,-1 -1,0 -1,1 -2,1 -4,3 -7,7 -11,10 -2,2 -4,4 -6,5 -3,3 -5,5 -8,7 3,-2 5,-4 8,-7 2,-1 4,-3 6,-5 4,-3 7,-7 11,-10 z M 243,3055 c 31,-58 78,-102 124,-137 -56,42 -97,88 -124,137 z m 14771,-243 1,-1 h 27 c -9,0 -18,0 -28,1 z M 7354,5531 c -40,-46 -67,-94 -62,-135 2,11 6,22 13,34 l 63,106 c -5,-1 -10,-3 -14,-5 z m 396,-1435 c -10,8 -19,15 -28,22 -17,15 -34,29 -50,43 42,-50 93,-112 128,-150 32,-17 64,-34 95,-53 11,-6 22,-13 33,-20 -14,27 -34,54 -61,81 -8,7 -16,14 -24,22 l -33,9 c -19,13 -40,29 -60,46 z m 6721,-1119 c 1,-11 4,-25 9,-42 -3,12 -6,24 -8,36 z m -7805,9152 c -38,20 -102,52 -139,68 36,-16 98,-47 139,-68 z m 65,-33 c -16,9 -38,19 -65,33 27,-14 48,-24 65,-33 z m 6523,-9913 c 1,-20 2,-39 3,-59 l 2,-49 21,-15 c -5,41 -14,82 -26,123 z m -1020,930 75,94 c -3,-2 -6,-5 -10,-7 -190,-139 -360,-332 -390,-387 -20,-36 -72,-147 -125,-267 26,26 55,51 87,70 37,81 69,148 83,173 12,22 82,110 192,214 l 10,11 c 25,32 51,66 78,99 z m -5166,8889 -9,5 9,-6 z m 4610,-9864 c 2,2 5,4 8,6 1,8 1,13 1,17 7,51 94,255 167,418 -29,-19 -57,-42 -84,-65 -68,-154 -133,-315 -133,-350 0,-8 -2,-21 -10,-50 z m -125,-240 c 20,-5 39,-8 58,-10 l 5,18 c 21,61 35,107 46,142 -18,9 -34,18 -45,26 -11,-37 -27,-88 -52,-161 l -4,-11 z m 1748,205 c 9,-24 16,-49 21,-75 20,-18 45,-47 69,-93 22,-41 36,-90 45,-136 41,-55 38,-138 30,-207 13,27 25,50 32,68 5,65 -10,201 -62,299 -57,107 -84,93 -126,140 z m -6506,9967 c -8,2 -19,5 -39,15 9,-5 16,-8 21,-10 l 12,-5 9,-1 c -1,0 -2,1 -3,1 z m 4,-1 h -1 z m 4603,-10788 2,11 c 73,363 145,536 175,564 l 6,4 c -13,11 -24,23 -33,38 l -2,-1 c -53,-20 -137,-304 -194,-585 1,-43 3,-97 7,-149 8,42 22,80 34,108 z m 3084,1636 c 7,-19 53,-38 118,-54 -61,16 -105,35 -118,54 z m -1204,-768 v 41 c -10,56 -24,143 -38,254 3,-81 6,-162 10,-243 10,-17 20,-34 28,-52 z"
     id="path249"
     style="display:inline" /><path
     fill="#ffdbb6"
     stroke="none"
     d="m 13302,2503 -84,150 -144,307 -79,439 -360,174 -121,-18 289,403 637,968 247,-235 102,-721 v -565 l -108,-217 -367,-475 z"
     id="path312"
     style="display:inline" /><path
     fill="#000000"
     stroke="none"
     d="m 12214,9726 147,81 -147,-1509 z M 6627,6779 c -405,-54 -924,-106 -1325,-173 l -28,-6 -28,-9 27,12 28,9 c 431,114 876,170 1316,238 763,106 1544,200 2312,254 -753,-127 -1544,-228 -2302,-325 z m 4526,1415 c 7,12 12,20 15,23 3,4 -2,-4 -15,-23 z m 940,-2183 c -106,-67 -220,-113 -337,-153 -117,-38 -236,-72 -361,-78 215,121 451,205 698,231 z m 3736,-1894 c 76,14 149,47 222,75 168,69 334,142 500,216 291,130 582,260 869,398 40,22 82,40 118,68 -33,-32 -73,-55 -112,-79 -274,-164 -563,-301 -854,-433 -167,-74 -335,-145 -507,-207 -77,-26 -153,-56 -234,-65 -10,-1 -29,1 -35,12 -54,75 -175,54 -249,17 75,52 208,76 270,-2 1,-1 7,-1 12,0 z m -3187,5483 252,184 -533,-1206 z m -1802,-152 c 272,-68 541,-144 802,-250 -280,27 -553,86 -826,152 -272,68 -541,144 -802,250 280,-28 554,-86 826,-152 z m -704,-320 c 46,-44 82,-101 134,-139 -35,-4 -68,15 -99,28 -88,45 -167,106 -240,171 -91,83 -173,175 -240,278 -3,3 -8,13 -11,15 -1,2 -3,5 -3,3 0,1 -1,1 1,2 h 1 l 4,-1 c 10,-4 30,-14 40,-19 157,-87 290,-209 413,-338 z m 4680,-6010 c 14,7 56,9 61,16 11,13 20,17 33,25 32,19 65,33 101,43 -32,-26 -69,-49 -103,-73 -8,-6 -10,-8 -14,-13 -28,-28 -122,4 -109,-58 -21,27 3,53 31,60 z m 139,281 c 11,-1 23,1 34,8 -7,-11 -20,-18 -33,-20 -42,-11 -88,7 -128,-2 -31,-20 -69,-53 -53,-96 -37,39 6,98 45,119 46,14 90,-9 135,-9 z m -12,228 c 5,-6 18,-21 23,-27 2,-2 5,-7 8,-6 -1,-2 -4,0 -5,1 -6,3 -10,6 -15,10 -38,28 -84,74 -131,74 -13,0 -21,-7 -33,-17 -34,-30 -46,-72 -33,-118 -39,47 -15,122 36,152 60,29 114,-29 150,-69 z m 3147,1916 c -33,-184 -78,-366 -144,-540 -36,-98 -84,-178 -144,-259 -130,-192 -227,-438 -395,-592 -94,-86 -219,-114 -344,-137 -126,-22 -257,-35 -388,-51 282,111 547,216 553,218 l 4,2 c 268,135 820,1248 827,1341 1,20 -5,50 -45,77 -57,39 -191,71 -348,71 -146,0 -312,-27 -458,-99 -512,-251 -734,-557 -829,-688 -10,-13 -18,-25 -25,-34 -71,-93 -443,-369 -724,-481 -188,-76 -311,-83 -400,-88 -47,-3 -87,-6 -126,-17 -108,-30 -327,-237 -371,-280 -68,-35 -148,-75 -163,-80 -16,-3 -49,-12 -84,-133 -26,-26 -93,-100 -120,-158 -26,-56 -40,-146 -17,-208 7,-19 16,-33 26,-43 -5,-10 -10,-21 -15,-30 -18,-36 -37,-74 -41,-106 -4,-41 18,-100 39,-145 -107,-43 -432,-126 -777,-205 25,39 54,85 69,108 132,214 259,431 378,653 153,296 317,597 381,927 -84,-324 -265,-611 -435,-896 -42,-66 -84,-132 -127,-198 57,256 46,552 1,974 -60,558 -893,1158 -1563,1641 -273,197 -531,383 -636,502 118,91 233,179 341,259 602,-304 1834,-1797 2093,-2117 -1,-281 2,-562 19,-833 49,391 63,785 55,1179 -8,216 -16,435 -67,646 l -18,57 c 10,-75 13,-158 14,-235 1,-160 1,-323 -1,-488 -152,238 -401,587 -660,940 217,-56 443,-116 618,-161 -171,58 -437,147 -663,222 -108,146 -217,292 -320,430 404,-25 926,-425 1221,-681 -87,87 -179,168 -274,247 -268,214 -629,491 -983,511 v -30 c -124,165 -240,318 -336,444 l 788,-243 -858,335 c -33,43 -62,81 -88,114 248,68 573,156 767,212 44,13 88,25 131,42 -44,-14 -89,-22 -134,-33 -180,-39 -478,-98 -720,-146 137,114 251,371 329,589 l 214,139 130,69 c 582,-1198 1151,-2462 1742,-3630 -383,926 -801,1838 -1239,2740 -144,293 -289,586 -442,875 335,-420 798,-1045 1134,-1489 293,-683 597,-1361 861,-2055 6,-23 20,-48 17,-71 4,23 -10,48 -15,71 -212,618 -456,1223 -695,1830 6,-6 11,-13 17,-19 7,-8 14,-15 21,-22 178,-256 358,-511 541,-763 85,-114 168,-229 263,-335 -22,28 -45,55 -65,84 -187,262 -362,533 -535,805 314,-317 636,-625 956,-935 -354,372 -711,748 -1055,1130 -29,33 -58,66 -86,99 -10,15 -19,30 -29,45 41,-7 83,-10 122,-16 121,-13 251,-25 377,-44 31,-46 57,-97 83,-146 94,-182 179,-368 263,-555 -82,230 -156,465 -259,687 50,-9 99,-20 147,-31 266,-69 526,-174 790,-260 157,-57 370,-106 567,-146 -178,10 -357,6 -532,-22 -227,-30 -445,-116 -620,-263 103,44 200,95 308,125 258,73 527,89 795,103 90,4 181,7 271,11 11,-2 23,-4 34,-7 41,-8 81,-16 122,-24 -474,-39 -1199,-307 -1461,-486 285,113 581,196 873,287 146,44 293,85 441,121 90,19 179,42 270,53 14,-3 27,-6 40,-8 -587,-75 -1121,-501 -1422,-995 396,447 887,836 1473,985 95,-18 190,-36 286,-50 67,-13 135,-14 205,-22 93,-18 213,-91 282,-153 -2,-9 -3,-18 -3,-18 z m -5233,2581 -483,-281 499,842 218,-310 c 3,-6 6,-13 9,-19 -95,-91 -243,-232 -243,-232 z m -648,-378 c 0,0 -262,1829 -291,1968 -9,43 110,101 278,152 l 2,6 c 373,94 857,84 922,17 -3,-91 -55,-230 -111,-378 -78,-207 -165,-437 -172,-659 -165,-280 -628,-1106 -628,-1106 z m -243,2243 c -175,-19 -347,-64 -517,-108 -213,-59 -420,-129 -622,-219 222,13 436,65 649,121 126,34 250,75 373,119 l -97,-71 32,-204 h -649 l 687,-244 45,-285 c -126,-96 -237,-207 -343,-323 -107,-121 -209,-245 -292,-383 -15,6 -29,13 -43,18 -125,46 -206,-7 -293,-89 -106,-99 -200,-210 -290,-323 -379,-489 -716,-1008 -1027,-1543 -223,-70 -840,-275 -1428,-479 -977,-340 -1525,-552 -1631,-630 -53,-39 -98,-77 -136,-112 -89,-20 -179,-32 -269,-31 -152,0 -302,36 -441,96 -143,59 -266,146 -403,223 -35,18 -73,37 -121,43 l -115,14 c -496,54 -1662,172 -2068,-97 354,196 1397,83 1830,47 111,-11 234,-24 345,-36 105,-22 199,-99 297,-149 291,-169 604,-224 913,-139 -25,-24 -47,-45 -66,-64 -48,-48 -94,-93 -115,-93 -125,0 -1022,-411 -1302,-567 -314,-174 -995,-620 -1181,-760 -47,-36 -89,-70 -129,-104 -110,-93 -189,-159 -301,-159 -157,0 -409,-128 -530,-194 -127,207 -537,838 -930,982 -163,60 -271,116 -366,165 -150,77 -271,139 -499,158 98,87 335,241 566,392 353,229 793,514 1191,834 914,733 1385,1014 3006,1896 198,108 382,208 554,302 -168,-141 -328,-292 -486,-442 -354,-346 -689,-710 -1009,-1088 402,371 799,784 1194,1162 183,173 366,347 559,510 988,548 1563,906 2167,1425 150,16 297,44 444,76 208,48 413,103 611,189 -215,-7 -425,-45 -633,-90 -106,-25 -212,-51 -316,-82 22,19 43,38 65,57 l 25,23 v 34 c 0,1 2,100 45,240 728,210 1479,324 2200,560 548,179 1098,409 1531,799 45,41 88,84 129,128 -106,-217 -198,-411 -266,-585 -141,-358 -224,-574 -270,-716 z m -881,674 c -715,-239 -1468,-369 -2168,-653 35,114 98,254 210,392 178,13 277,265 288,295 l 8,19 -9,19 c -1,3 -147,338 -321,673 -186,356 -380,637 -380,637 -25,54 -70,124 -114,193 -21,31 -46,71 -67,106 119,24 401,151 1179,632 556,345 1097,706 1151,748 91,71 1775,1127 1961,1214 61,-9 299,-65 518,-119 81,-91 474,-591 223,-1455 -187,-642 -470,-1220 -720,-1731 -7,-14 -14,-27 -20,-41 -469,-471 -1114,-724 -1739,-929 z m -2530,1357 c 8,-14 41,-29 41,-29 179,-156 509,-799 717,-1277 -31,-70 -111,-212 -201,-212 -1,0 -1,0 -2,0 -21,1 -49,10 -82,24 -13,7 -27,14 -42,22 -86,46 -191,121 -282,196 -89,73 -164,146 -190,189 v 1 c -8,13 -14,25 -21,37 -32,61 -65,123 -161,184 -69,44 -171,86 -329,127 -175,46 -328,64 -456,77 -19,2 -38,4 -56,5 -141,14 -253,24 -333,66 -100,50 -149,156 -185,233 -7,13 -12,26 -18,37 -17,33 -33,56 -58,65 -5,1 -10,3 -16,5 -3,1 -6,1 -10,2 0,0 -1,1 -2,1 -4,1 -9,2 -15,4 -9,2 -19,5 -31,8 -62,17 -154,45 -224,95 -20,15 -38,30 -53,48 -4,5 -7,10 -11,15 0,1 -1,2 -1,3 -3,4 -6,9 -8,13 0,1 0,1 0,1 -33,66 -24,156 -9,211 3,10 6,19 9,26 36,-16 98,-47 139,-68 27,-14 49,-24 65,-33 1,0 2,0 3,-1 36,-18 50,-23 61,-25 1,0 2,-1 4,-1 4,0 9,-1 17,-2 44,-5 177,-20 243,-60 l 9,-5 c 1,-1 1,-1 2,-2 81,-49 160,-96 446,-88 1,0 3,0 4,0 8,0 17,1 25,1 2,0 5,0 7,0 8,1 16,1 24,1 3,1 7,1 10,1 7,0 15,1 22,1 11,1 23,2 34,2 175,12 324,41 455,67 19,3 38,7 57,10 4,1 8,2 12,3 14,2 29,5 43,8 6,1 11,2 17,3 12,2 25,4 37,6 6,1 12,2 19,3 11,1 22,3 33,4 6,1 13,2 20,3 10,1 20,2 30,2 7,1 14,2 22,2 9,1 17,1 26,2 8,0 16,1 24,1 7,0 14,0 22,-1 9,0 19,0 28,0 16,-1 32,-2 47,-4 7,-1 14,-4 22,-7 z M 2549,2314 c -1,4 -2,9 -3,14 l 15,-17 c -3,1 -7,2 -12,3 z m -891,1704 c 1,1 2,1 3,2 35,2 69,-5 101,-23 187,-108 410,-227 523,-369 50,-63 26,-133 -15,-192 -61,-40 -107,-88 -129,-128 -1,-1 -2,-2 -2,-2 0,0 0,-1 0,-2 -3,-6 -6,-11 -8,-17 l -12,14 -123,143 105,-146 46,-64 c -106,11 -211,2 -305,-31 -87,-31 -164,-83 -223,-160 -34,-43 -59,-92 -78,-143 41,100 111,190 205,243 41,24 85,40 132,52 257,63 575,-44 750,-225 0,0 9,8 18,17 v -51 c 24,0 60,-6 102,-18 1,0 2,-1 3,-1 7,-2 14,-4 22,-7 h 1 c 8,-3 17,-5 25,-8 2,-1 4,-2 6,-2 8,-3 16,-6 25,-9 0,-1 1,-1 1,-1 8,-3 16,-6 25,-10 2,0 4,-1 6,-2 8,-4 17,-7 25,-11 1,0 2,-1 3,-1 8,-4 16,-7 23,-11 2,-1 4,-2 6,-3 8,-4 17,-8 25,-12 1,-1 2,-2 4,-2 7,-4 14,-8 21,-12 2,-1 3,-2 5,-3 8,-4 15,-9 23,-13 1,-1 3,-2 4,-3 6,-4 13,-8 19,-12 1,-1 3,-2 4,-3 7,-5 13,-10 19,-15 2,-1 3,-2 5,-3 5,-4 10,-9 15,-13 1,-1 2,-2 3,-2 6,-5 11,-11 16,-16 1,-1 2,-2 3,-3 4,-5 8,-10 12,-15 l 1,-1 c 4,-5 7,-11 10,-16 1,-1 2,-2 2,-4 3,-5 5,-10 7,-16 18,-55 13,-108 -15,-143 -3,-4 -8,-8 -12,-12 -1,-2 -3,-3 -4,-4 -4,-3 -8,-6 -12,-8 -1,-1 -2,-2 -4,-3 -5,-3 -11,-6 -17,-8 -1,-1 -2,-1 -3,-1 -5,-2 -11,-4 -17,-6 -2,-1 -5,-1 -8,-2 -4,-1 -9,-2 -14,-3 -3,-1 -6,-1 -9,-2 -8,-1 -15,-1 -24,-2 0,0 -1,0 -2,0 -19,-1 -40,-1 -62,1 l -140,13 4,-3 c -74,30 -142,77 -170,134 36,-97 137,-151 226,-193 2,0 3,-1 4,-1 l 36,-36 c 9,-9 16,-40 15,-74 0,-1 -1,-1 -1,-2 0,-2 0,-5 0,-8 -2,-24 -9,-48 -22,-67 -4,-5 -10,-13 -21,-19 -16,-8 -44,-11 -92,12 l -211,102 c -7,67 18,139 83,164 -77,2 -116,-82 -106,-153 l -13,6 15,-16 c 3,-14 7,-27 14,-38 -71,8 -157,-4 -145,-72 7,62 103,55 169,43 0,-1 1,-2 2,-2 -1,0 -1,1 -1,1 12,-2 22,-4 31,-6 l 104,-110 c 6,-7 9,-22 7,-40 0,-4 -1,-7 -1,-11 -1,-2 -1,-4 -2,-6 -1,-6 -3,-11 -5,-16 0,-1 0,-1 0,-1 -4,-12 -11,-23 -19,-32 -4,-4 -13,-13 -26,-14 -1,0 -1,0 -2,0 -4,-1 -9,0 -14,1 -1,0 -1,0 -2,1 -6,1 -12,4 -20,8 -8,5 -18,11 -28,21 l -54,47 -26,-67 c -6,-15 -18,-35 -33,-53 0,-1 -1,-1 -1,-2 -3,-3 -6,-7 -9,-10 -1,-1 -2,-2 -3,-3 -4,-3 -8,-6 -12,-9 -1,-1 -3,-2 -4,-3 -3,-2 -6,-4 -9,-6 -2,0 -4,-1 -5,-2 -5,-2 -10,-4 -15,-5 -17,-3 -35,0 -54,9 -1,0 -2,1 -3,1 -3,2 -6,4 -9,6 -3,1 -5,2 -7,4 -14,9 -29,21 -44,36 l -62,62 -23,-85 c -4,-15 -10,-29 -17,-40 -3,-5 -7,-9 -10,-13 -1,-1 -2,-2 -3,-3 -3,-3 -5,-5 -8,-8 -2,-1 -4,-2 -5,-3 -3,-2 -6,-4 -8,-6 -2,-1 -4,-2 -5,-2 -5,-3 -10,-4 -15,-6 -8,-2 -16,-4 -24,-5 -5,0 -11,0 -17,0 -3,0 -5,0 -8,0 -8,0 -15,2 -23,3 -1,0 -3,0 -4,1 -8,1 -16,3 -24,6 -2,0 -3,1 -5,1 -8,3 -16,6 -24,9 -2,1 -4,2 -7,3 -7,4 -14,7 -21,11 -4,2 -7,4 -11,6 -6,3 -12,7 -18,11 -5,3 -10,6 -15,10 -5,4 -10,7 -15,11 -9,6 -17,13 -25,20 l -25,21 -29,-13 c -2,-1 -5,-2 -7,-2 -59,-17 -269,14 -524,249 -1,0 -2,1 -2,1 -15,14 -30,28 -45,44 -226,225 -549,406 -741,514 -54,30 -96,54 -119,69 -10,7 -21,14 -31,22 -49,36 -99,82 -132,143 -1,3 -3,5 -4,8 -3,5 -6,11 -8,16 -3,6 -5,12 -7,18 -1,3 -3,6 -4,9 -13,39 -20,83 -16,134 0,2 0,4 0,6 1,10 2,20 4,31 1,3 1,6 2,9 2,13 5,26 8,39 v 1 c 1,2 2,4 2,6 63,228 223,247 425,247 31,0 62,1 93,3 32,2 65,5 97,9 5,0 10,1 14,2 116,15 226,40 306,67 16,5 30,10 43,15 50,20 132,78 221,147 81,62 167,134 239,196 z m 5709,1517 c 386,143 861,308 1281,452 322,-367 111,-1273 52,-1501 -25,58 -50,123 -65,180 -14,50 -29,193 -44,330 -19,181 -33,302 -48,377 1,31 1,61 -2,92 -6,76 -19,151 -56,220 -12,-38 -17,-76 -20,-114 -1,-21 -1,-43 -1,-64 -111,55 -361,83 -522,83 -40,0 -75,-2 -100,-5 -195,-27 -297,-349 -309,-386 -220,-717 65,-954 253,-1111 20,-16 38,-32 56,-47 8,-8 16,-15 24,-22 27,-27 47,-54 61,-81 -11,7 -22,14 -33,20 -31,19 -63,36 -95,53 -35,38 -86,100 -128,150 -11,13 -22,27 -32,38 -68,83 -137,163 -198,251 -48,115 -43,255 -55,380 -9,126 -16,255 -38,382 -9,48 -21,103 -47,152 -6,9 -9,20 -10,31 -5,41 22,89 62,135 4,2 9,4 14,5 z m 484,-1369 c -188,156 -422,351 -221,1003 v 1 c 24,77 115,299 226,314 171,24 527,-34 573,-73 21,-41 45,-272 62,-426 16,-154 30,-287 46,-345 20,-74 81,-238 135,-326 -119,-30 -238,-94 -259,-209 -8,-3 -16,-5 -22,-8 -21,25 -68,69 -140,75 -83,6 -171,-42 -261,-142 -15,20 -33,41 -54,61 -25,25 -54,49 -85,75 z m 167,-180 c 83,94 160,140 229,135 73,-5 114,-67 115,-68 l 9,-15 c -11,-25 -16,-53 -21,-79 -3,-26 -7,-54 -4,-81 -16,-21 -32,-46 -48,-70 -50,-49 -80,-91 -82,-94 l -2,-3 c -7,-22 -7,-70 46,-95 l 11,22 c -41,20 -35,55 -33,63 11,15 94,124 209,192 62,37 115,36 152,26 18,-20 30,-49 35,-63 -79,-110 -108,-294 -125,-405 35,133 92,354 216,424 66,25 147,32 211,-2 -49,-124 -50,-331 -48,-422 29,119 51,239 90,354 12,30 27,75 49,90 57,7 119,5 179,0 -19,-209 -33,-419 -28,-629 51,213 80,430 105,648 42,-4 112,-11 165,-17 9,-6 17,-11 22,-15 -5,-59 -35,-262 -63,-422 -14,-87 -28,-161 -37,-193 -8,-1 -19,-3 -32,-5 -55,-8 -149,-14 -230,-16 h -18 l -14,-11 c -5,-4 -10,-8 -15,-12 -3,-3 -6,-5 -10,-8 -21,-16 -44,-31 -65,-43 -14,-8 -27,-14 -37,-17 -3,-1 -6,-1 -8,-2 0,0 -1,1 -2,1 -8,0 -24,8 -42,21 -16,10 -33,24 -49,40 0,0 -1,0 -1,1 -5,5 -10,10 -15,15 l -15,15 h -2 -137 c -3,3 -8,7 -12,12 -26,25 -70,75 -104,120 l -16,22 -28,-3 c -8,0 -18,-1 -31,-2 -3,0 -7,0 -10,-1 -14,0 -28,-1 -44,-1 -6,-1 -12,-1 -18,-1 -4,0 -7,0 -10,0 h -6 c -12,0 -23,1 -33,1 -1,0 -1,0 -1,0 -5,1 -9,1 -14,1 h -1 c -4,1 -8,1 -12,2 -13,10 -37,51 -55,84 -1,2 -2,3 -3,5 -2,3 -3,6 -5,8 -20,35 -40,72 -63,105 -1,1 -2,2 -2,3 -5,7 -11,14 -16,21 -3,4 -6,7 -9,11 0,1 -1,1 -1,2 -14,16 -29,30 -45,41 -5,4 -10,7 -16,10 -2,1 -4,2 -6,3 -7,3 -15,6 -22,8 l -1,1 c -1,0 -2,1 -3,2 -9,7 -13,31 -18,78 -1,6 -2,12 -3,19 0,2 0,5 0,7 -1,5 -2,9 -2,14 -1,4 -1,7 -2,11 0,3 -1,7 -2,11 0,4 -1,9 -2,13 -1,3 -1,6 -2,10 -1,5 -2,10 -3,15 -1,2 -2,5 -2,8 -5,18 -11,36 -18,54 -2,5 -3,10 -5,15 -1,0 -1,1 -1,2 -4,9 -9,18 -14,28 1,0 1,1 1,1 z m 3339,2750 -1026,-936 c -79,-4 -164,-9 -234,-14 -12,32 -27,70 -44,113 271,223 1826,1501 2112,1795 z M 9359,6225 c 58,19 109,36 154,50 147,-131 294,-265 441,-398 l 90,-95 c -37,-3 -66,-5 -84,-7 -281,215 -481,365 -601,450 z m -119,-39 c 122,-84 458,-338 674,-503 l 3,-2 c 4,-5 8,-8 13,-14 88,-100 230,-275 317,-378 3,-3 6,-7 8,-10 -49,-45 -99,-88 -152,-128 -391,-286 -812,-530 -1232,-769 63,96 133,255 184,395 172,464 287,1067 99,1381 30,9 58,19 86,28 z M 8734,4419 c 14,49 330,1136 -34,1585 144,50 281,96 405,137 187,-294 72,-888 -97,-1347 -100,-270 -191,-418 -229,-444 -4,0 -7,0 -10,0 -10,13 -24,38 -40,71 z m 561,-481 c -3,1 -6,1 -9,1 v 1 z m -259,30 c -12,-2 -26,-3 -39,-9 -4,-3 -8,-6 -12,-9 -43,34 -37,102 -29,140 5,2 10,3 15,5 l 12,3 5,13 c 0,1 34,99 98,149 93,2 188,2 212,-11 116,-66 136,-109 132,-134 -3,-18 -6,-37 -10,-54 -42,-29 -109,-72 -146,-96 -8,1 -16,2 -23,2 19,13 33,31 35,56 4,71 -22,152 -64,155 -1,0 -3,0 -4,0 -37,0 -134,-30 -147,-38 -19,-13 -20,-92 16,-168 -17,0 -34,-2 -51,-4 z m 205,163 c 11,-21 20,-57 20,-97 -37,32 -36,53 -20,97 z m 19,-107 c -1,-27 -30,-43 -61,-52 -28,1 -56,2 -84,1 -37,70 -34,137 -28,147 9,5 105,34 133,33 5,-1 11,-6 16,-14 -49,-35 -38,-106 24,-114 z m -584,25 c -1,3 -2,5 -3,8 64,-15 139,-25 172,-8 27,-26 70,-68 101,-101 -72,23 -151,13 -220,-15 -11,-5 -22,-11 -32,-18 l -7,12 c 4,41 1,83 -11,122 z m -14,10 c 3,-35 1,-70 2,-106 -19,13 -59,36 -97,32 -49,-5 -148,-29 -202,-84 8,47 15,94 24,141 l 4,1 c 38,17 149,56 208,35 16,-6 38,-13 61,-19 z m -192,63 c 33,81 137,126 236,148 3,-3 6,-6 9,-7 26,-18 65,-17 236,-9 18,1 38,2 60,3 -36,-44 -58,-94 -67,-117 -29,-9 -96,-31 -122,-46 -17,-10 -118,0 -204,31 -43,16 -100,9 -148,-3 z m 2783,4260 c 127,96 239,208 346,325 99,111 194,226 274,353 l 196,-1256 -2017,-1902 c -25,63 -53,135 -82,209 4,7 8,14 12,21 335,261 645,551 948,847 l 166,163 c 56,52 106,115 172,155 -76,-20 -139,-75 -204,-117 -190,-137 -368,-290 -539,-448 -165,-154 -325,-312 -475,-479 307,543 991,1756 1103,1941 -128,-194 -1015,-1506 -1265,-1876 -51,132 -97,248 -121,309 295,443 596,887 916,1311 114,139 223,302 373,400 137,50 355,-132 458,-217 144,-121 277,-258 404,-398 -161,221 -406,529 -665,659 z M 9530,4100 c 17,110 -95,188 -181,237 -55,31 -187,28 -383,19 361,227 719,460 1057,719 50,40 122,98 168,140 23,20 44,42 65,63 223,-268 446,-536 680,-795 122,-127 236,-268 384,-364 -143,103 -249,248 -364,381 -113,136 -221,275 -329,414 -182,236 -373,493 -554,732 566,-93 1172,-191 1737,-273 86,-11 173,-24 259,-30 -86,10 -171,28 -257,43 -162,30 -600,120 -767,154 -205,43 -409,86 -614,129 397,100 808,208 1203,297 -227,-33 -452,-73 -678,-112 -81,-14 -202,-35 -324,-57 120,95 306,242 517,406 165,-23 333,-11 493,38 -137,32 -280,38 -420,19 99,77 203,157 306,237 116,-135 364,-314 668,-533 133,-96 278,-200 422,-309 -173,27 -346,52 -520,75 -78,10 -156,22 -235,24 -4,-1 -11,0 -14,-4 3,4 10,2 14,2 78,-7 155,-25 232,-40 213,-45 425,-94 637,-144 233,-180 459,-371 634,-560 -79,-503 -1279,-1789 -1482,-1831 -105,-21 -244,-67 -375,-113 95,113 177,238 264,357 179,257 390,579 567,837 -248,-232 -441,-515 -627,-798 -89,-134 -166,-275 -251,-412 -46,-17 -91,-33 -131,-48 -75,-27 -159,-58 -185,-65 -108,13 -892,178 -1017,284 -43,37 -103,90 -166,148 -199,178 -334,298 -414,343 15,106 24,189 21,201 -2,9 -9,35 -65,70 8,30 18,74 25,119 z m 2779,-893 c 60,39 121,71 178,89 250,76 300,26 368,-26 10,-8 23,-23 39,-44 1,-4 2,-8 3,-12 2,-6 3,-12 4,-18 21,-111 32,-224 42,-337 2,77 3,155 1,232 19,-45 41,-93 65,-134 15,-25 34,-53 53,-82 70,-106 157,-237 178,-404 1,-9 2,-18 4,-27 14,-111 28,-198 38,-254 0,-14 0,-27 0,-41 -8,18 -18,35 -28,52 -3,4 -5,8 -8,12 3,-10 6,-20 8,-30 12,-41 21,-82 26,-123 1,-12 3,-24 4,-36 13,-194 -42,-382 -108,-563 56,76 102,166 129,261 10,-16 23,-30 30,-46 -15,-38 -51,-71 -71,-108 35,25 66,52 89,91 2,4 6,13 3,22 -2,8 -5,13 -9,17 -10,15 -26,27 -38,41 25,96 31,195 13,289 -5,26 -12,51 -21,75 l 9,-4 c 0,0 69,-33 126,-140 52,-98 67,-234 62,-299 -7,-18 -19,-41 -32,-68 8,69 11,152 -30,207 -12,17 -29,32 -51,42 -10,5 -30,22 -39,8 5,6 12,1 17,-3 10,-8 23,-20 33,-27 31,-33 50,-77 52,-123 0,-1 0,-2 0,-2 4,-36 7,-75 13,-112 -18,-35 -40,-75 -60,-112 -11,-20 -22,-40 -31,-58 -104,-10 -212,8 -313,-23 -32,-21 -52,-56 -71,-87 -29,-51 -54,-103 -74,-158 47,77 85,169 155,226 95,24 198,12 295,29 -20,-37 -35,-62 -35,-62 l -213,-55 c 0,0 -339,-357 -436,-515 -96,-159 -628,398 -752,377 -124,-20 -490,-260 -531,-177 -17,34 -27,114 -32,196 -4,52 -6,106 -7,149 57,281 141,565 194,585 l 2,1 c 9,-15 20,-27 33,-38 37,-28 89,-37 134,-32 l 56,6 c 56,7 112,17 167,31 19,4 38,11 57,13 -72,31 -155,27 -231,23 -55,-5 -104,-16 -157,-13 -19,2 -38,5 -58,10 l 8,4 4,11 c 25,73 41,124 52,161 11,-8 27,-17 45,-26 53,-26 128,-51 173,-53 80,-3 183,52 245,65 l -17,-139 c 0,0 68,137 73,152 5,16 62,223 38,194 -23,-28 -110,-168 -111,-168 0,0 -67,52 -82,76 -16,25 -104,38 -124,38 -19,0 -137,-45 -171,-69 -3,-2 -6,-4 -8,-6 l -51,-24 c 8,29 10,42 10,50 0,35 65,196 133,350 27,23 55,46 84,65 17,11 33,22 51,31 53,53 70,129 94,197 -40,-58 -61,-129 -108,-180 -7,-4 -14,-8 -20,-11 -32,-19 -61,-44 -87,-70 53,120 105,231 125,267 30,55 200,248 390,387 4,2 7,5 10,7 z m 934,985 -10,66 8,-66 c 29,-472 35,-944 38,-1417 0,-79 0,-158 1,-237 -11,50 -27,96 -46,139 -14,33 -30,64 -46,93 -11,125 -28,302 -47,381 -31,129 -186,594 -263,592 -40,-1 -126,-44 -220,-103 -21,-12 -42,-25 -62,-39 69,75 140,155 210,237 302,355 582,754 680,1030 118,-151 196,-299 211,-438 75,-708 55,-1025 -237,-1423 58,240 90,576 1,982 0,0 -2,-649 -145,-870 -17,358 -38,716 -73,1073 z m 1208,-903 c 14,28 25,50 30,70 l 226,-31 -232,82 c -6,10 -15,18 -26,23 -1,0 -3,3 -5,9 -11,30 -5,90 14,130 6,15 18,32 31,50 l 248,-37 -219,72 c 19,24 38,44 49,55 l 9,9 4,13 c 8,31 21,65 29,79 10,4 24,11 40,18 l 218,23 c -80,-41 -152,-96 -200,-157 74,65 161,111 250,152 66,30 135,56 207,68 24,3 48,5 73,-1 -23,11 -49,13 -74,13 -79,-5 -168,-31 -250,-72 l -141,15 c 18,9 37,19 54,28 l 7,3 5,6 c 93,90 266,241 333,260 22,6 47,9 78,11 104,-22 202,-75 274,-156 -46,67 -110,123 -182,162 89,8 205,26 367,91 231,92 531,296 684,430 166,95 333,187 503,275 192,97 384,200 592,262 30,7 60,15 91,13 -31,3 -62,-4 -92,-10 -210,-55 -407,-151 -603,-242 -133,-64 -265,-130 -396,-198 4,6 9,13 14,20 90,124 302,417 792,656 280,138 633,83 702,38 -48,-142 -545,-1130 -767,-1246 -42,-16 -652,-257 -994,-390 -3,-1 -5,-3 -8,-4 -11,-4 -21,-8 -31,-12 -58,-22 -105,-41 -139,-54 -11,-4 -21,-8 -29,-11 -159,-60 -344,-193 -445,-286 -14,-14 -27,-26 -38,-38 -16,-17 -35,-45 -57,-82 -1,-2 -2,-4 -4,-6 -4,-7 -8,-14 -12,-21 -4,-8 -9,-17 -15,-26 0,-1 -1,-3 -2,-4 -13,-24 -28,-50 -43,-78 -15,-28 -33,-61 -54,-96 -72,-128 -170,-289 -238,-340 -2,-2 -5,-3 -7,-5 -5,-3 -10,-6 -14,-8 -6,-2 -11,-3 -16,-3 -9,0 -18,0 -27,0 l -1,1 c -45,37 -81,86 -128,123 13,-29 49,-86 89,-122 -120,5 -269,24 -371,50 -65,16 -111,35 -118,54 0,1 0,1 -1,2 -2,6 -3,11 -5,16 -5,17 -8,31 -9,42 -2,9 -2,17 -2,22 2,2 5,4 7,6 l -6,6 c 0,3 1,6 1,7 l 25,24 -5,8 c 96,-15 193,-28 289,-25 -106,10 -210,40 -314,69 -27,50 -48,106 -46,122 2,15 19,50 31,73 z m 3784,2354 c -49,59 -112,100 -175,140 -65,38 -134,73 -218,91 -69,11 -141,9 -212,23 -205,33 -408,77 -612,119 -240,50 -576,112 -805,194 -391,132 -804,301 -1226,334 -62,6 -248,25 -308,35 -20,3 -41,7 -59,13 -21,29 -302,398 -302,398 -259,339 -608,797 -874,1128 0,0 -13,17 -25,31 l 375,201 1403,-241 158,108 -454,360 c 0,0 -785,74 -1280,6 l 173,104 c 0,0 628,1933 938,2543 310,609 -509,0 -509,0 l -822,-2474 -176,-307 -236,334 c -11,214 81,458 162,674 65,172 121,320 121,437 0,46 -23,87 -64,118 -78,57 -239,81 -423,81 -138,0 -289,-13 -426,-35 34,133 128,377 292,796 80,204 196,440 329,713 241,490 539,1100 730,1755 299,1029 -251,1595 -275,1619 l -15,15 -20,5 c -157,39 -527,130 -588,130 -28,0 -61,0 -1021,-597 -445,-276 -962,-603 -1022,-650 -50,-38 -560,-379 -1096,-712 -942,-586 -1139,-637 -1175,-640 -59,25 -104,21 -135,-14 -57,-66 -2,-152 108,-322 5,-8 10,-16 15,-24 -130,6 -261,-19 -409,-48 -129,-25 -274,-53 -443,-65 -362,-25 -436,21 -514,69 l -9,5 c -76,47 -192,64 -285,75 -5,0 -10,1 -13,1 -14,6 -63,30 -102,50 -145,74 -179,89 -203,89 -42,0 -63,-45 -70,-59 -40,-88 -68,-270 31,-386 100,-118 276,-163 360,-184 10,-3 19,-5 26,-7 6,-10 17,-33 26,-52 40,-85 100,-214 231,-281 97,-50 218,-61 370,-76 142,-13 303,-28 495,-78 334,-87 379,-172 427,-261 7,-14 14,-27 22,-41 54,-92 334,-340 542,-440 -202,-275 -240,-546 -247,-641 C 7922,9086 7229,8698 5624,7825 3993,6937 3519,6654 2595,5913 2203,5598 1767,5316 1417,5088 869,4732 712,4624 743,4507 c 14,-53 62,-82 142,-87 4,0 7,0 11,0 60,-80 137,-182 167,-218 37,-42 167,-260 223,-354 -57,-42 -99,-68 -125,-79 -109,-43 -326,-89 -516,-89 -174,0 -438,0 -525,-328 -58,-222 19,-406 230,-547 26,-17 70,-41 125,-72 188,-106 503,-282 719,-498 271,-271 533,-348 659,-322 107,-85 224,-118 316,-90 46,14 83,43 109,83 52,-35 103,-47 155,-37 58,12 104,54 134,99 76,-39 141,-16 181,26 33,34 54,87 56,138 81,-6 126,41 144,67 37,52 50,130 38,194 106,7 164,50 196,89 48,62 60,151 31,238 -62,189 -452,317 -567,317 v -16 c -104,94 -248,165 -400,198 18,3 34,4 39,-1 22,-27 208,-44 324,-51 16,-27 25,-43 26,-44 l 38,-67 66,40 c 99,58 384,210 519,210 167,0 280,94 399,195 38,32 78,65 121,99 185,138 855,577 1164,749 327,181 1135,535 1231,547 82,1 140,58 220,136 54,54 121,120 218,193 57,42 290,137 606,255 -18,-31 -29,-64 -29,-99 0,-25 10,-50 18,-74 18,-71 19,-157 22,-234 11,-215 -4,-434 65,-646 9,-22 21,-46 37,-66 98,-119 210,-223 327,-321 33,-26 73,-61 110,-83 57,-17 115,-32 173,-46 21,-51 27,-101 32,-145 8,-67 16,-144 96,-166 37,-11 86,-98 119,-156 44,-80 77,-138 129,-147 52,-10 138,-6 183,-3 117,-149 149,-149 168,-149 h 107 c 37,-36 112,-99 177,-92 59,6 141,65 176,93 286,7 310,37 323,53 17,22 48,182 74,345 88,-66 238,-201 337,-290 64,-58 125,-113 170,-151 173,-147 1055,-320 1117,-320 29,0 68,13 235,74 163,60 387,142 531,171 54,11 139,65 241,149 -27,-34 -54,-68 -79,-101 -109,-103 -191,-201 -211,-238 -31,-56 -279,-586 -279,-674 0,-9 -7,-49 -66,-226 -95,-65 -183,-466 -215,-626 -25,-56 -50,-133 -50,-215 0,-166 -33,-425 57,-577 89,-151 486,-380 644,-401 159,-21 593,-50 944,88 351,138 323,176 420,342 70,367 181,902 217,1078 l 7,-2 c 16,66 0,238 -63,358 -43,81 -93,125 -123,146 -8,176 -15,353 -22,529 7,14 14,29 22,47 l 2,-6 c 252,54 781,173 1012,256 3,-21 9,-44 18,-71 59,-169 646,-174 652,-174 129,0 255,209 418,504 48,88 94,172 118,197 77,82 280,236 445,299 42,15 136,52 255,98 263,30 532,23 808,62 109,17 227,42 325,98 279,172 371,494 556,739 98,137 150,295 195,444 37,129 68,259 90,392 2,12 4,27 5,39 0,23 -10,44 -22,61 z M 13336,1568 c 0,1 0,-1 1,-2 3,23 9,45 23,65 20,-32 33,-71 11,-103 -19,-29 -43,-50 -77,-60 4,33 18,60 34,86 z m -3066,3549 c -128,-142 -271,-266 -419,-387 -149,-118 -300,-233 -467,-327 262,276 559,519 886,714 z m -256,175 c -206,170 -377,387 -569,573 224,-75 469,-364 569,-573 z m 2655,-262 c -83,-119 -195,-236 -293,-344 -99,-106 -211,-221 -313,-324 -348,-351 -728,-699 -1093,-1031 247,309 546,594 826,874 277,273 594,555 873,825 z m 58,-3822 -1,-1 c 0,0 -2,0 -1,0 1,0 1,1 2,1 z m -101,-418 c 14,24 21,66 29,93 l 20,96 c 18,76 26,156 53,229 15,5 29,11 43,17 60,28 117,61 169,102 24,21 50,45 60,77 -15,-29 -41,-50 -67,-68 -65,-45 -138,-81 -212,-107 -10,-3 -15,-14 -16,-17 -5,-12 -9,-25 -12,-37 -22,-93 -35,-195 -49,-290 -5,-32 -7,-65 -18,-95 z m 277,1574 c 65,-26 116,-84 140,-149 24,-69 -8,-142 -33,-205 -5,-15 -11,-31 -10,-45 0,-15 8,-24 19,-40 20,-28 39,-57 56,-86 36,-59 71,-118 101,-180 -33,50 -82,121 -115,170 -20,28 -39,57 -59,84 -11,13 -25,32 -24,51 2,54 35,99 46,149 30,99 -36,202 -121,251 z m -46,184 c -93,-82 -192,-160 -302,-219 93,84 191,162 302,219 z m -801,207 c 3,-87 18,-172 24,-260 -30,82 -76,274 -11,343 -15,-25 -13,-55 -13,-83 z m 364,368 c 75,-18 147,-44 216,-80 10,-33 19,-66 23,-100 -21,19 -38,41 -55,63 -67,11 -132,30 -194,56 -42,-13 -90,-19 -127,-44 0,15 11,27 20,36 29,32 66,54 104,72 z m 67,-236 c 22,-10 115,-67 130,-70 14,-4 178,-83 178,-83 0,0 -291,67 -374,95 -80,26 -221,110 -252,113 16,-1 115,-8 138,-10 26,-1 159,-34 180,-45 z m -320,56 c 0,0 1,0 2,-1 -1,1 -1,1 -2,1 z m 266,-270 54,-80 130,-112 c 0,0 -179,86 -261,132 -83,47 -128,-5 -162,-1 -35,3 -87,0 -87,0 0,0 70,12 94,33 23,20 144,59 160,59 15,0 72,-31 72,-31 z m 269,-1127 1,-1 c 98,19 196,42 297,50 -90,-46 -182,-83 -279,-111 -11,-3 -21,-5 -34,-1 -66,25 -124,64 -182,101 -63,37 -113,86 -155,145 -17,20 -44,65 -67,76 35,-4 62,-34 91,-53 22,-18 57,-48 78,-64 53,-30 198,-115 250,-142 z m -243,249 c -28,10 -128,145 -138,152 l 41,173 v -160 c 0,0 75,20 77,23 2,3 164,-36 220,-62 56,-26 136,-115 136,-115 l 136,-49 c 0,0 -248,-51 -262,-51 -14,0 -182,79 -210,89 z M 7599,4920 c -7,-37 -11,-74 -8,-110 22,-258 215,-474 386,-655 -195,159 -396,390 -399,655 2,37 8,75 21,110 z m 709,-120 c 20,-137 47,-275 83,-410 12,-42 21,-87 41,-126 -116,209 -261,900 -90,1079 -28,-37 -42,-82 -49,-127 -21,-138 -3,-278 15,-416 z m 1904,8450 c 391,206 781,416 1191,582 318,129 647,258 991,289 l -70,-23 c -436,-146 -861,-354 -1287,-532 -272,-112 -541,-238 -825,-316 z m 2182,-639 c -128,-95 -270,-163 -416,-224 -147,-58 -296,-108 -454,-130 128,95 270,163 416,224 147,59 296,109 454,130 z m -543,-703 c -277,-118 -567,-214 -867,-249 550,215 1107,465 1643,708 -235,-189 -500,-338 -776,-459 z m 416,-1456 c -554,-350 -1608,-532 -2264,-558 372,92 766,171 1140,255 379,87 758,168 1124,303 z M 10409,8488 c -70,-169 -138,-338 -204,-509 -59,-148 -139,-361 -198,-512 -56,-151 -146,-364 -190,-516 36,478 480,1719 836,2026 -107,-149 -171,-322 -244,-489 z m -255,3090 c 197,777 1586,1864 2240,2334 -483,-470 -1016,-909 -1491,-1386 -192,-190 -379,-386 -542,-601 -81,-108 -155,-221 -207,-347 z m 467,18 c 69,76 139,152 209,229 -146,-127 -300,-245 -454,-362 -247,-183 -498,-359 -768,-508 426,400 898,745 1391,1058 205,227 411,457 608,681 385,442 778,892 1122,1367 53,71 114,171 165,246 -43,-79 -93,-186 -141,-261 -28,-44 -90,-145 -118,-189 -110,-166 -268,-382 -390,-541 -485,-623 -1014,-1211 -1567,-1774 -256,-258 -513,-517 -791,-752 896,283 1819,574 2635,1020 -788,-600 -2102,-997 -3077,-1161 140,45 282,90 424,135 254,261 506,545 752,812 z M 2431,2184 c 26,-20 48,-46 58,-76 -20,25 -44,44 -69,60 -88,54 -175,42 -216,-60 12,125 139,148 227,76 z m -215,-123 c -25,14 -51,23 -77,29 -74,16 -181,0 -179,-96 -35,108 104,148 184,115 27,-10 54,-26 72,-48 z m -753,430 c 122,56 182,175 111,298 87,-121 24,-257 -101,-318 -261,-118 -544,202 -657,407 126,-180 403,-493 647,-387 z m -543,727 c 97,-102 442,-105 579,-86 -139,-52 -490,-49 -579,86 z m -588,273 c 176,87 396,74 564,-27 54,-35 109,-75 140,-133 -23,33 -56,56 -88,80 -180,119 -412,146 -616,80 z m 4500,1270 263,-21 132,-10 c 43,-1 89,-12 131,-2 -9,-6 -21,-7 -31,-9 -77,-12 -155,-13 -233,-16 -176,-5 -353,-1 -530,5 -435,18 -888,51 -1318,113 524,13 1062,-23 1586,-60 z M 3293,4363 c -153,64 -302,135 -442,226 324,-76 627,-214 917,-371 -164,21 -321,84 -475,145 z m -384,-598 c -227,79 -475,445 -568,662 106,-103 198,-216 290,-330 81,-98 184,-248 278,-332 z m -1137,963 c 751,175 1511,353 2274,456 -365,-109 -753,-196 -1127,-275 -375,-72 -766,-157 -1147,-181 z m 2356,1671 c 370,-152 736,-332 1099,-503 171,-80 374,-181 549,-246 38,-13 76,-27 116,-29 -366,-16 -1434,558 -1764,778 z m 5378,1458 c -37,376 -79,753 -61,1132 89,-747 197,-1501 233,-2253 -78,371 -128,745 -172,1121 z m -658,-622 c -726,146 -1478,94 -2212,172 -105,12 -211,28 -314,56 53,-5 105,-11 158,-13 370,-16 741,-6 1111,-22 423,-21 856,-47 1257,-193 z m -834,671 c 293,-161 602,-326 874,-520 -611,287 -1220,599 -1788,964 309,-129 618,-287 914,-444 z M 9247,6887 c -44,325 -104,661 -171,982 -74,323 -139,655 -281,957 60,-221 109,-503 156,-729 85,-401 169,-821 296,-1210 z"
     id="path319"
     style="display:inline" /></g>
</svg>
