<?xml version="1.0" encoding="UTF-8" standalone="no"?>
<svg
   id="svg2834"
   version="1.1"
   viewBox="0 0 508 508"
   height="1920"
   width="1920"
   sodipodi:docname="gamer-zone-3655575.svg"
   inkscape:version="1.1.1 (3bf5ae0, 2021-09-20)"
   xmlns:inkscape="http://www.inkscape.org/namespaces/inkscape"
   xmlns:sodipodi="http://sodipodi.sourceforge.net/DTD/sodipodi-0.dtd"
   xmlns:xlink="http://www.w3.org/1999/xlink"
   xmlns="http://www.w3.org/2000/svg"
   xmlns:svg="http://www.w3.org/2000/svg">
  <sodipodi:namedview
     id="namedview78"
     pagecolor="#ffffff"
     bordercolor="#666666"
     borderopacity="1.0"
     inkscape:pageshadow="2"
     inkscape:pageopacity="0.0"
     inkscape:pagecheckerboard="0"
     showgrid="false"
     inkscape:zoom="0.16654921"
     inkscape:cx="2215.5614"
     inkscape:cy="939.66222"
     inkscape:window-width="1366"
     inkscape:window-height="744"
     inkscape:window-x="0"
     inkscape:window-y="0"
     inkscape:window-maximized="1"
     inkscape:current-layer="svg2834"
     inkscape:snap-global="false" />
  <defs
     id="defs2828">
    <linearGradient
       id="linearGradient4478">
      <stop
         style="stop-color:#330d0d;stop-opacity:0.99607849"
         offset="0"
         id="stop4480" />
      <stop
         id="stop4486"
         offset="0.47511348"
         style="stop-color:#fa4c4c;stop-opacity:1" />
      <stop
         style="stop-color:#ff8a65;stop-opacity:1"
         offset="1"
         id="stop4482" />
    </linearGradient>
    <linearGradient
       id="linearGradient19920">
      <stop
         style="stop-color:#757575;stop-opacity:1;"
         offset="0"
         id="stop19922" />
    </linearGradient>
    <linearGradient
       id="linearGradient6205">
      <stop
         id="stop6207"
         offset="0"
         style="stop-color:#d50000;stop-opacity:1" />
      <stop
         style="stop-color:#ce93d8;stop-opacity:1"
         offset="0.39729255"
         id="stop6209" />
      <stop
         id="stop6211"
         offset="0.95597363"
         style="stop-color:#00bfa5;stop-opacity:1" />
      <stop
         id="stop6213"
         offset="1"
         style="stop-color:#4a148c;stop-opacity:1" />
    </linearGradient>
    <linearGradient
       id="linearGradient4471-9">
      <stop
         style="stop-color:#426c40;stop-opacity:1"
         offset="0"
         id="stop4473-4" />
      <stop
         style="stop-color:#558a52;stop-opacity:1"
         offset="1"
         id="stop4475-8" />
    </linearGradient>
    <linearGradient
       y2="1096.3503"
       x2="581.60583"
       y1="3.2116654"
       x1="7.007309"
       gradientUnits="userSpaceOnUse"
       id="linearGradient4496"
       xlink:href="#linearGradient4471-9" />
    <linearGradient
       xlink:href="#linearGradient19920"
       id="linearGradient20006"
       gradientUnits="userSpaceOnUse"
       x1="230.20682"
       y1="354.3468"
       x2="230.20682"
       y2="382.15875" />
    <linearGradient
       xlink:href="#linearGradient19920"
       id="linearGradient20014"
       gradientUnits="userSpaceOnUse"
       gradientTransform="translate(133.48906,-211.35767)"
       x1="230.20682"
       y1="354.3468"
       x2="230.20682"
       y2="382.15875" />
    <linearGradient
       id="linearGradient4274-6">
      <stop
         style="stop-color:#ffffff;stop-opacity:1"
         offset="0"
         id="stop4276-1" />
      <stop
         style="stop-color:#fdebd3;stop-opacity:1"
         offset="1"
         id="stop4278-5" />
    </linearGradient>
    <radialGradient
       r="254"
       fy="142.875"
       fx="253.99998"
       cy="142.875"
       cx="253.99998"
       gradientTransform="matrix(2.1621406,0,0,2.1259843,410.81632,236.25)"
       gradientUnits="userSpaceOnUse"
       id="radialGradient4297"
       xlink:href="#linearGradient4274-6" />
    <clipPath
       clipPathUnits="userSpaceOnUse"
       id="clipPath4349">
      <rect
         style="color:#000000;fill:#f64c01;fill-opacity:1;fill-rule:nonzero;stroke:#000000;stroke-width:0.52916664;stroke-linecap:butt;stroke-linejoin:miter;stroke-miterlimit:4;stroke-opacity:1;stroke-dasharray:none;stroke-dashoffset:0;marker:none;visibility:visible;display:inline;overflow:visible;enable-background:accumulate"
         id="rect4351"
         width="217.6062"
         height="218.40622"
         x="68.801964"
         y="53.743385" />
    </clipPath>
    <radialGradient
       xlink:href="#linearGradient4262-0"
       id="radialGradient4268-2"
       cx="254"
       cy="142.875"
       fx="254"
       fy="142.875"
       r="254"
       gradientTransform="matrix(0.4545364,0,0,0.43984233,138.54774,80.032528)"
       gradientUnits="userSpaceOnUse" />
    <linearGradient
       id="linearGradient4262-0">
      <stop
         style="stop-color:#e0dde4;stop-opacity:1"
         offset="0"
         id="stop4264-0" />
      <stop
         style="stop-color:#dbaa8a;stop-opacity:1"
         offset="1"
         id="stop4266-1" />
    </linearGradient>
    <radialGradient
       xlink:href="#linearGradient4478"
       id="radialGradient4484"
       cx="243.00388"
       cy="-160.18578"
       fx="243.00388"
       fy="-160.18578"
       r="210.91946"
       gradientTransform="matrix(1.5429579,-1.2431516,1.4061869,1.7453305,140.49958,709.76371)"
       gradientUnits="userSpaceOnUse" />
    <radialGradient
       xlink:href="#linearGradient4478"
       id="radialGradient4606"
       gradientUnits="userSpaceOnUse"
       gradientTransform="matrix(1.5429579,-1.2431516,1.4061869,1.7453305,140.49958,709.76371)"
       cx="243.00388"
       cy="-160.18578"
       fx="243.00388"
       fy="-160.18578"
       r="210.91946" />
    <radialGradient
       xlink:href="#linearGradient4478"
       id="radialGradient4678"
       gradientUnits="userSpaceOnUse"
       gradientTransform="matrix(1.5429579,-1.2431516,1.4061869,1.7453305,140.49958,709.76371)"
       cx="243.00388"
       cy="-160.18578"
       fx="243.00388"
       fy="-160.18578"
       r="210.91946" />
    <radialGradient
       xlink:href="#linearGradient4478"
       id="radialGradient4700"
       gradientUnits="userSpaceOnUse"
       gradientTransform="matrix(1.5429579,-1.2431516,1.4061869,1.7453305,140.49958,709.76371)"
       cx="247.87094"
       cy="-151.9949"
       fx="247.87094"
       fy="-151.9949"
       r="210.91946" />
    <clipPath
       id="clipPath3028-9"
       clipPathUnits="userSpaceOnUse">
      <path
         id="path3030-7"
         d="m 0,207.251 67.044,0 L 67.044,0 0,0 0,207.251 z" />
    </clipPath>
    <clipPath
       id="clipPath6828"
       clipPathUnits="userSpaceOnUse">
      <path
         id="path6830"
         d="m 0,207.251 67.044,0 L 67.044,0 0,0 0,207.251 z" />
    </clipPath>
    <clipPath
       id="clipPath3028-9-1"
       clipPathUnits="userSpaceOnUse">
      <path
         id="path3030-7-7"
         d="m 0,207.251 67.044,0 L 67.044,0 0,0 0,207.251 z" />
    </clipPath>
    <clipPath
       id="clipPath3814"
       clipPathUnits="userSpaceOnUse">
      <path
         id="path3816"
         d="m 0,207.251 67.044,0 L 67.044,0 0,0 0,207.251 z" />
    </clipPath>
    <clipPath
       id="clipPath3028-9-1-8"
       clipPathUnits="userSpaceOnUse">
      <path
         id="path3030-7-7-0"
         d="m 0,207.251 67.044,0 L 67.044,0 0,0 0,207.251 z" />
    </clipPath>
    <clipPath
       id="clipPath4991"
       clipPathUnits="userSpaceOnUse">
      <path
         id="path4993"
         d="m 0,207.251 67.044,0 L 67.044,0 0,0 0,207.251 z" />
    </clipPath>
    <pattern
       id="EMFhbasepattern"
       patternUnits="userSpaceOnUse"
       width="6"
       height="6"
       x="0"
       y="0" />
    <clipPath
       clipPathUnits="userSpaceOnUse"
       id="clipEmfPath1">
      <path
         d="m 4.04729,-0.1499 714.57171,0 0,452.2469 -714.57171,0 z"
         id="path7" />
    </clipPath>
    <style
       id="style3112"
       type="text/css"> .str0 {stroke:#FECC00;stroke-width:20} .fil4 {fill:none} .fil3 {fill:#FECC00} .fil2 {fill:black} .fil0 {fill:#1A1813} .fil1 {fill:#F5CA2F;fill-rule:nonzero} </style>
    <style
       id="style3149"
       type="text/css"> .fil1 {fill:#2B2A29} .fil0 {fill:#FECC00} .fil2 {fill:#FEFEFE} </style>
    <pattern
       id="EMFhbasepattern-4"
       patternUnits="userSpaceOnUse"
       width="6"
       height="6"
       x="0"
       y="0" />
    <clipPath
       clipPathUnits="userSpaceOnUse"
       id="clipEmfPath1-1">
      <path
         d="M -0.449699,0 1049.3,0 l 0,654.462 -1049.749699,0 z"
         id="path7-7" />
    </clipPath>
  </defs>
  <metadata
     id="metadata2831" />
  <g
     id="g3366"
     transform="matrix(1.0481932,0,0,1.0481932,-288.80154,647.27201)"
     style="fill:#2b2a29;fill-opacity:1" />
  <g
     id="g9559">
    <path
       style="fill:#fecc00;fill-rule:evenodd;stroke-width:0.0448131"
       d="M 269.84384,6.5831039 501.41697,238.15623 c 8.77747,8.77747 8.77747,22.91015 0,31.68762 L 269.84384,501.41698 c -8.77747,8.77747 -22.91015,8.77747 -31.68762,0 L 6.583093,269.84385 c -8.7774707,-8.77747 -8.7774707,-22.91015 0,-31.68762 L 238.15622,6.5831039 c 8.77747,-8.7774707 22.91015,-8.7774707 31.68762,0 z"
       id="rect3151" />
    <path
       id="path9351"
       style="fill:#2b2a29;stroke:none;stroke-width:3.99999"
       d="M 960 57.011719 C 939.59291 57.011719 919.18526 64.76006 903.69141 80.253906 L 80.279297 903.66602 C 49.291604 934.65372 49.291604 985.2955 80.279297 1016.2832 L 903.69141 1839.6953 C 934.67911 1870.683 985.32089 1870.683 1016.3086 1839.6953 L 1839.7207 1016.2832 C 1870.7084 985.2955 1870.7084 934.65372 1839.7207 903.66602 L 1016.3086 80.253906 C 1000.8147 64.76006 980.40709 57.011719 960 57.011719 z M 960 112.86328 C 978.76172 112.86328 997.52416 119.96947 1011.7383 134.18359 L 1785.791 908.23633 C 1814.2192 936.66457 1814.1278 983.37607 1785.791 1011.7129 L 1011.7383 1785.7637 C 983.40146 1814.1005 936.68996 1814.1919 908.26172 1785.7637 L 134.21094 1011.7129 C 105.7827 983.28464 105.7827 936.66457 134.21094 908.23633 L 908.26172 134.18359 C 922.47584 119.96947 941.23828 112.86328 960 112.86328 z "
       transform="scale(0.26458333)" />
    <g
       id="g9539">
      <path
         style="color:#000000;font-style:normal;font-variant:normal;font-weight:normal;font-stretch:normal;font-size:medium;line-height:normal;font-family:Sans;-inkscape-font-specification:Sans;text-indent:0;text-align:start;text-decoration:none;text-decoration-line:none;letter-spacing:normal;word-spacing:normal;text-transform:none;writing-mode:lr-tb;direction:ltr;baseline-shift:baseline;text-anchor:start;display:inline;overflow:visible;visibility:visible;fill:#2b2a29;fill-opacity:1;stroke:none;stroke-width:2.34249;marker:none;enable-background:accumulate"
         d="m 176.56357,377.07821 c -5.22518,0 -9.47882,4.25365 -9.47882,9.47882 0,5.22517 4.25364,9.45652 9.47882,9.45652 h 154.87285 c 5.22518,0 9.47883,-4.23134 9.47883,-9.45652 0,-5.22517 -4.25365,-9.47882 -9.47883,-9.47882 z m 0,2.34182 h 154.87285 c 3.96795,0 7.137,3.16905 7.137,7.137 0,3.96795 -3.16905,7.1147 -7.137,7.1147 H 176.56357 c -3.96795,0 -7.13699,-3.14674 -7.13699,-7.1147 0,-3.96795 3.16904,-7.137 7.13699,-7.137 z"
         id="rect3206" />
      <path
         id="rect3208"
         d="m 177.35779,381.09108 c -3.23307,0 -5.83856,2.43586 -5.83856,5.45997 0,3.02411 2.60549,5.45465 5.83856,5.45465 h 115.26593 v -10.91462 z"
         style="color:#000000;display:inline;overflow:visible;visibility:visible;fill:#2b2a29;fill-opacity:1;stroke:none;stroke-width:2.01202;marker:none;enable-background:accumulate" />
      <g
         id="g9524">
        <path
           d="m 223.69612,370.66496 v 1.73469 h -2.8011 c -0.99058,0 -1.75603,-0.0877 -2.29634,-0.26304 -0.68724,-0.22277 -1.20149,-0.628 -1.54274,-1.21571 -0.37443,-0.64459 -0.56165,-1.56644 -0.56165,-2.76556 v -6.23496 h 2.1826 v 5.75863 c -10e-6,0.82943 0.0308,1.39344 0.0924,1.69204 0.0948,0.45974 0.30926,0.79033 0.6434,0.99176 0.33414,0.20143 0.88749,0.30215 1.66005,0.30215 z"
           style="font-style:normal;font-variant:normal;font-weight:normal;font-stretch:normal;font-size:20.4008px;line-height:125%;font-family:Aero;-inkscape-font-specification:Aero;text-align:start;letter-spacing:0px;word-spacing:0px;writing-mode:lr-tb;text-anchor:start;fill:#2b2a29;fill-opacity:1;stroke:none;stroke-width:0.7137"
           id="path3899" />
        <path
           d="m 226.58255,367.13869 c 0,1.12329 0.19906,1.99064 0.59719,2.60204 0.47396,0.72517 1.22044,1.08775 2.23946,1.08774 0.99057,1e-5 1.72521,-0.33414 2.20392,-1.00242 0.43603,-0.61141 0.65405,-1.49297 0.65407,-2.6447 -2e-5,-0.63984 -0.0569,-1.18016 -0.17063,-1.62095 -0.15642,-0.6114 -0.42658,-1.08536 -0.81047,-1.42188 -0.46449,-0.4076 -1.09012,-0.6114 -1.87689,-0.61141 -0.94319,1e-5 -1.65649,0.31993 -2.13993,0.95977 -0.46448,0.61616 -0.69672,1.50009 -0.69672,2.65181 z m 2.82243,-5.42448 c 1.04271,1e-5 1.91242,0.13983 2.60916,0.41946 0.8389,0.33652 1.47874,0.88394 1.91954,1.64227 0.49765,0.85314 0.74648,1.98353 0.74648,3.39119 0,1.7347 -0.37918,3.04757 -1.1375,3.93861 -0.85788,1.00954 -2.22763,1.5143 -4.10924,1.5143 -1.78683,0 -3.108,-0.45381 -3.96349,-1.36145 -0.8555,-0.90763 -1.28325,-2.28093 -1.28325,-4.1199 0,-1.35078 0.23224,-2.44326 0.69672,-3.27744 0.42183,-0.75832 1.04271,-1.31523 1.86266,-1.67071 0.7299,-0.31754 1.61621,-0.47632 2.65892,-0.47633 z"
           style="font-style:normal;font-variant:normal;font-weight:normal;font-stretch:normal;font-size:20.4008px;line-height:125%;font-family:Aero;-inkscape-font-specification:Aero;text-align:start;letter-spacing:0px;word-spacing:0px;writing-mode:lr-tb;text-anchor:start;fill:#2b2a29;fill-opacity:1;stroke:none;stroke-width:0.7137"
           id="path3901" />
        <path
           d="m 237.05471,372.39965 h -2.33189 l 4.40072,-10.47927 h 2.33189 l 4.47182,10.47927 h -2.44563 l -0.95978,-2.50962 h -4.56424 z m 1.61384,-4.35806 h 3.13524 l -1.58539,-4.00971 z"
           style="font-style:normal;font-variant:normal;font-weight:normal;font-stretch:normal;font-size:20.4008px;line-height:125%;font-family:Aero;-inkscape-font-specification:Aero;text-align:start;letter-spacing:0px;word-spacing:0px;writing-mode:lr-tb;text-anchor:start;fill:#2b2a29;fill-opacity:1;stroke:none;stroke-width:0.7137"
           id="path3903" />
        <path
           d="m 251.52236,372.39965 h -4.8344 v -10.47927 h 4.77752 c 1.70151,2e-5 2.9575,0.45739 3.76799,1.37212 0.7915,0.89105 1.18726,2.25132 1.18727,4.0808 -1e-5,0.90527 -0.11376,1.68019 -0.34125,2.32478 -0.29387,0.82469 -0.77257,1.46217 -1.4361,1.91243 -0.78205,0.5261 -1.82239,0.78914 -3.12103,0.78914 z m -0.0853,-8.65926 h -2.55227 v 6.83925 h 2.55227 c 0.95266,1e-5 1.59961,-0.19195 1.94087,-0.57586 0.41708,-0.46922 0.62562,-1.41477 0.62563,-2.83665 -1e-5,-1.26547 -0.16116,-2.13756 -0.48344,-2.61626 -0.36495,-0.54031 -1.05931,-0.81047 -2.08306,-0.81048 z"
           style="font-style:normal;font-variant:normal;font-weight:normal;font-stretch:normal;font-size:20.4008px;line-height:125%;font-family:Aero;-inkscape-font-specification:Aero;text-align:start;letter-spacing:0px;word-spacing:0px;writing-mode:lr-tb;text-anchor:start;fill:#2b2a29;fill-opacity:1;stroke:none;stroke-width:0.7137"
           id="path3905" />
        <path
           d="m 257.92083,361.92038 h 2.30344 v 10.47927 h -2.30344 z"
           style="font-style:normal;font-variant:normal;font-weight:normal;font-stretch:normal;font-size:20.4008px;line-height:125%;font-family:Aero;-inkscape-font-specification:Aero;text-align:start;letter-spacing:0px;word-spacing:0px;writing-mode:lr-tb;text-anchor:start;fill:#2b2a29;fill-opacity:1;stroke:none;stroke-width:0.7137"
           id="path3907" />
        <path
           d="m 264.66765,372.39965 h -2.25368 v -10.47927 h 2.79399 l 4.27276,7.5502 -0.0853,-7.5502 h 2.21102 v 10.47927 h -2.53094 l -4.49315,-7.91277 z"
           style="font-style:normal;font-variant:normal;font-weight:normal;font-stretch:normal;font-size:20.4008px;line-height:125%;font-family:Aero;-inkscape-font-specification:Aero;text-align:start;letter-spacing:0px;word-spacing:0px;writing-mode:lr-tb;text-anchor:start;fill:#2b2a29;fill-opacity:1;stroke:none;stroke-width:0.7137"
           id="path3909" />
        <path
           d="m 280.47898,370.48722 v -2.44563 h -2.92908 v -1.84845 h 5.17565 v 6.20651 h -4.72776 c -1.56407,0 -2.75134,-0.36021 -3.56181,-1.08063 -0.92896,-0.82943 -1.39345,-2.14941 -1.39345,-3.95994 0,-1.94323 0.44079,-3.35563 1.32235,-4.23721 0.80099,-0.80098 2.01196,-1.20147 3.63291,-1.20149 h 4.72776 v 1.82001 h -4.72776 c -0.79151,1e-5 -1.38159,0.23225 -1.77024,0.69673 -0.46923,0.55928 -0.70383,1.49298 -0.70383,2.8011 0,1.08064 0.17062,1.87452 0.51188,2.38165 0.38864,0.57824 1.0427,0.86735 1.96219,0.86735 z"
           style="font-style:normal;font-variant:normal;font-weight:normal;font-stretch:normal;font-size:20.4008px;line-height:125%;font-family:Aero;-inkscape-font-specification:Aero;text-align:start;letter-spacing:0px;word-spacing:0px;writing-mode:lr-tb;text-anchor:start;fill:#2b2a29;fill-opacity:1;stroke:none;stroke-width:0.7137"
           id="path3911" />
        <path
           d="m 289.74254,372.39965 h -1.73469 v -1.82001 h 1.73469 z"
           style="font-style:normal;font-variant:normal;font-weight:normal;font-stretch:normal;font-size:20.4008px;line-height:125%;font-family:Aero;-inkscape-font-specification:Aero;text-align:start;letter-spacing:0px;word-spacing:0px;writing-mode:lr-tb;text-anchor:start;fill:#2b2a29;fill-opacity:1;stroke:none;stroke-width:0.7137"
           id="path3913" />
        <path
           d="m 292.61474,372.39965 h -1.7347 v -1.82001 h 1.7347 z"
           style="font-style:normal;font-variant:normal;font-weight:normal;font-stretch:normal;font-size:20.4008px;line-height:125%;font-family:Aero;-inkscape-font-specification:Aero;text-align:start;letter-spacing:0px;word-spacing:0px;writing-mode:lr-tb;text-anchor:start;fill:#2b2a29;fill-opacity:1;stroke:none;stroke-width:0.7137"
           id="path3915" />
        <path
           d="m 295.48694,372.39965 h -1.7347 v -1.82001 h 1.7347 z"
           style="font-style:normal;font-variant:normal;font-weight:normal;font-stretch:normal;font-size:20.4008px;line-height:125%;font-family:Aero;-inkscape-font-specification:Aero;text-align:start;letter-spacing:0px;word-spacing:0px;writing-mode:lr-tb;text-anchor:start;fill:#2b2a29;fill-opacity:1;stroke:none;stroke-width:0.7137"
           id="path3917" />
      </g>
    </g>
    <path
       id="path3251"
       style="color:#000000;display:inline;overflow:visible;visibility:visible;fill:#2b2a29;fill-opacity:1;fill-rule:nonzero;stroke:none;stroke-width:0.5;marker:none;enable-background:accumulate"
       d="m 260.00145,255.77275 c 0,3.26576 -2.64741,5.91321 -5.91318,5.91321 -3.26576,0 -5.91317,-2.64745 -5.91317,-5.91321 0,-3.26574 2.64741,-5.9132 5.91317,-5.9132 3.26577,0 5.91318,2.64746 5.91318,5.9132 z m -27.38624,16.34073 c -0.6749,0 -1.22297,0.54848 -1.22297,1.22345 v 4.92042 c 0,0.68881 0.54807,1.23724 1.22297,1.23724 h 9.75651 c 0.67492,0 1.23725,-0.54843 1.23725,-1.23724 v -4.92042 c 0,-0.67497 -0.56233,-1.22345 -1.23725,-1.22345 z m 32.53183,-0.61821 c -0.80132,0 -1.43417,0.64636 -1.43417,1.43382 v 5.74994 c 0,0.78744 0.63285,1.43423 1.43417,1.43423 2.34768,-0.53425 12.94792,-2.55893 12.84964,-4.16158 -0.0982,-1.60266 -8.63218,-3.12091 -12.84964,-4.45641 z m 65.78064,-1.06879 c -5.79232,0 -10.47382,4.69576 -10.47382,10.47384 0,5.77799 4.6815,10.47373 10.47382,10.47373 5.77803,0 10.47379,-4.69574 10.47379,-10.47373 0,-5.77808 -4.69576,-10.47384 -10.47379,-10.47384 z m -153.40844,-6.66384 c -0.53419,0 -1.06843,0.19701 -1.49047,0.61862 l -5.96072,5.96116 c -0.21086,0.21092 -0.36541,0.44986 -0.46411,0.7027 -0.0147,0.0282 -0.0147,0.056 -0.0147,0.0843 l -0.0283,0.0282 c -0.11248,0.25324 -0.16872,0.52036 -0.16872,0.80136 v 8.13997 c 0,1.12472 0.91384,2.03857 2.03856,2.03857 h 12.18898 c 1.1247,0 2.02431,-0.91385 2.02431,-2.03857 v -8.13997 c 0,-0.281 -0.0562,-0.54812 -0.15446,-0.80136 l -0.0283,-0.0282 -0.0147,-0.0843 c -0.0988,-0.25284 -0.25321,-0.49179 -0.46405,-0.7027 l -5.96075,-5.96116 c -0.42203,-0.42163 -0.95625,-0.61862 -1.50435,-0.61862 z m 13.29943,-12.77908 c -0.28137,0 -0.54846,0.0564 -0.80132,0.15456 l -0.0423,0.0281 -0.0703,0.0143 c -0.25288,0.11272 -0.4922,0.26711 -0.70305,0.4641 l -5.96075,5.97496 c -0.82946,0.81525 -0.82946,2.16503 0,2.9806 l 5.96075,5.97467 c 0.21085,0.19698 0.45017,0.3515 0.70305,0.46404 l 0.0703,0.0143 0.0423,0.0277 c 0.25286,0.0986 0.51995,0.15504 0.80132,0.15504 h 8.14001 c 1.12467,0 2.03856,-0.91382 2.03856,-2.03857 v -12.1747 c 0,-1.12473 -0.91389,-2.03858 -2.03856,-2.03858 z m -26.1772,-0.11272 -8.13998,0.0414 c -1.12484,0.0143 -2.02457,0.92815 -2.02457,2.05287 l 0.0843,12.1886 c 0,1.12472 0.91377,2.0247 2.03847,2.0247 l 8.14002,-0.0561 c 0.28098,0 0.54846,-0.056 0.80132,-0.16855 l 0.0283,-0.0143 0.0843,-0.0284 c 0.25286,-0.0985 0.49183,-0.25321 0.70304,-0.46404 l 5.93259,-6.00311 c 0.81558,-0.8295 0.80132,-2.16506 -0.0281,-2.98023 l -6.00314,-5.93303 c -0.21084,-0.21091 -0.44982,-0.3653 -0.70266,-0.46363 l -0.0707,-0.0127 -0.042,-0.0281 c -0.25322,-0.0983 -0.52033,-0.15456 -0.80132,-0.15456 z m 189.83434,-2.23547 c -5.79195,0 -10.47344,4.69576 -10.47344,10.47381 0,5.77799 4.68149,10.47376 10.47344,10.47376 5.77842,0 10.4599,-4.69577 10.4599,-10.47376 0,-5.77805 -4.68148,-10.47381 -10.4599,-10.47381 z m -47.01225,0 c -5.79196,0 -10.47341,4.69576 -10.47341,10.47381 0,5.77799 4.68145,10.47376 10.47341,10.47376 5.77844,0 10.4738,-4.69577 10.4738,-10.47376 0,-5.77805 -4.69536,-10.47381 -10.4738,-10.47381 z m -55.06785,-0.67445 c -3.62694,0.73078 -6.35465,3.95026 -6.35465,7.80233 0,3.85204 2.72771,7.05767 6.35465,7.8028 1.08472,0.22036 2.12966,0.15694 3.22004,0 3.62694,-0.74513 6.35428,-3.95076 6.35428,-7.8028 0,-3.85207 -2.72734,-7.07155 -6.35428,-7.80233 0,0 -0.54771,-0.15219 -1.62855,-0.15219 -1.08083,0 -1.59149,0.15219 -1.59149,0.15219 z m -80.8376,-12.17518 c -1.12468,-0.0143 -2.05243,0.87183 -2.08059,1.99653 l -0.15446,8.14003 c -0.0147,0.28094 0.042,0.54806 0.1408,0.80127 l 0.0283,0.0282 0.0147,0.0842 c 0.0982,0.25289 0.23897,0.49182 0.44978,0.70266 l 5.8486,6.08761 c 0.80132,0.84327 2.13685,0.87141 2.98019,0.0701 l 6.08755,-5.86244 c 0.21084,-0.19656 0.36539,-0.43553 0.47794,-0.68883 l 0.0147,-0.0701 0.0283,-0.0426 c 0.11208,-0.23897 0.16833,-0.5061 0.18278,-0.78705 l 0.15445,-8.14003 c 0.0283,-1.12464 -0.87148,-2.05276 -1.99616,-2.08093 z m 159.36957,-8.94127 c -5.79232,0 -10.47382,4.69568 -10.47382,10.47378 0,5.77798 4.6815,10.47372 10.47382,10.47372 5.77803,0 10.47379,-4.69574 10.47379,-10.47372 0,-5.7781 -4.69576,-10.47378 -10.47379,-10.47378 z M 179.1219,194.08776 c 5.15941,-0.15473 10.8673,0.54828 14.88818,2.58683 0.78707,0.57636 0.78707,2.82576 1.05415,4.10515 2.27754,1.8557 3.59918,2.05254 5.00488,4.18946 1.81384,5.45477 3.90831,15.9144 5.46894,16.71576 0.81556,0.43582 26.68363,0.52014 39.88476,0.70295 1.3074,0.57645 2.57243,0.98408 3.96421,1.23717 l 4.20356,0.33741 h 0.82945 l 4.20356,-0.33741 c 1.39178,-0.25309 2.65719,-0.66072 3.96458,-1.23717 13.20111,-0.1827 39.0692,-0.26713 39.88477,-0.70295 1.56025,-0.80136 3.65509,-11.26099 5.46856,-16.71576 1.40605,-2.13692 2.72771,-2.33376 5.00525,-4.18946 0.26711,-1.27939 0.25284,-3.52879 1.05416,-4.10515 4.02086,-2.03855 9.72877,-2.74149 14.88818,-2.58683 5.48281,0.15473 10.68464,0.57644 15.63326,2.06663 1.15282,1.15277 0.71689,2.85392 1.06841,4.27384 1.96842,1.43395 5.07539,2.86797 5.97501,4.55508 1.7572,5.52497 2.44634,10.89543 3.66933,16.33614 7.02956,6.25615 13.44011,13.48224 16.51897,20.87723 6.43906,21.27062 10.41752,56.86748 15.7878,85.25198 1.9684,16.57523 -8.47727,28.6798 -17.05321,33.12235 -8.56162,4.44252 -22.6061,4.133 -34.35917,-6.43913 -9.91146,-12.14653 -34.64094,-56.74097 -37.73367,-57.21886 -2.86802,-0.80135 -23.23901,-0.3797 -38.32417,-0.51997 h -12.13233 l -38.32414,0.51997 c -3.09314,0.47789 -27.82222,45.07233 -37.73368,57.21886 -11.75306,10.57213 -25.79763,10.88165 -34.35935,6.43911 -8.5758,-4.44255 -19.02146,-16.54712 -17.06728,-33.12235 5.38449,-28.3845 9.36308,-63.98136 15.80197,-85.25198 3.07884,-7.39497 9.48965,-14.62107 16.51896,-20.87722 1.22313,-5.44071 1.91199,-10.81118 3.66941,-16.33615 0.89962,-1.6871 4.0066,-3.12113 5.975,-4.55506 0.35153,-1.41993 -0.0843,-3.12108 1.06842,-4.27386 4.9486,-1.49021 10.15042,-1.91196 15.63327,-2.06663 z" />
    <path
       style="color:#000000;font-style:normal;font-variant:normal;font-weight:normal;font-stretch:normal;font-size:26.1968px;line-height:125%;font-family:Aero;-inkscape-font-specification:Aero;text-indent:0;text-align:start;text-decoration:none;text-decoration-line:none;letter-spacing:0.757771px;word-spacing:0px;text-transform:none;writing-mode:lr-tb;direction:ltr;baseline-shift:baseline;text-anchor:start;display:inline;overflow:visible;visibility:visible;fill:#2b2a29;fill-opacity:1;fill-rule:nonzero;stroke:none;stroke-width:0.505181;marker:none;enable-background:accumulate"
       d="m 186.54114,109.21786 c -4.68943,4e-5 -8.27639,1.19827 -10.65657,3.57842 -2.61854,2.61858 -3.9061,6.77043 -3.9061,12.3737 0,5.23268 1.34503,9.15119 4.10271,11.61344 2.40731,2.1398 5.93724,3.15893 10.45996,3.15893 h 13.47474 0.39323 v -0.38011 -17.70855 -0.43252 h -0.39323 -14.75929 -0.40634 v 0.43252 5.25623 0.39322 h 0.40634 7.91706 v 6.19994 h -6.63251 c -2.53873,0 -4.28166,-0.79209 -5.30862,-2.32005 -0.89983,-1.33724 -1.37633,-3.5137 -1.37631,-6.55385 -2e-5,-3.68334 0.68724,-6.2561 1.92683,-7.73356 1.02267,-1.22223 2.57877,-1.87438 4.7581,-1.87438 h 13.47474 0.39323 v -0.39328 -5.16439 -0.44571 h -0.39323 z m 28.08985,0 -0.0918,0.24906 -12.53098,29.93805 -0.24905,0.53739 h 0.60296 6.63251 0.30147 l 0.0918,-0.24903 2.47736,-6.93401 h 12.49166 l 2.62154,6.93401 0.0918,0.24903 h 0.24905 6.98641 0.60296 l -0.19662,-0.53739 -12.79314,-29.93805 -0.0917,-0.24906 h -0.24905 -6.68494 -0.24904 z m 22.63703,0 v 0.44571 29.89868 0.38011 h 0.39324 6.44899 0.39324 v -0.38011 l -0.55053,-20.76263 6.98642,20.84127 0.0655,0.30147 h 0.30148 6.68493 0.30148 l 0.0918,-0.30147 6.78979,-20.65775 -0.44566,20.5791 v 0.38011 h 0.39324 6.19995 0.39323 v -0.38011 -29.89867 -0.44571 h -0.39323 -9.21472 -0.24906 l -0.10479,0.30149 -7.23547,21.75882 -7.18303,-21.75882 -0.0918,-0.30149 h -0.30148 -9.26716 -0.39323 -0.0132 z m 53.61058,0 c -5.22568,4e-5 -9.12004,1.50121 -11.49547,4.50905 -2.0663,2.61459 -3.02789,6.45491 -3.02789,11.44307 0,4.68903 1.15538,8.32732 3.51288,10.85318 2.45576,2.6242 6.1035,3.9192 10.85319,3.9192 h 10.55172 0.39322 v -0.38011 -5.21687 -0.40632 h -0.39322 -10.30267 c -2.38721,0 -4.04272,-0.54209 -5.04648,-1.53363 -0.97644,-0.96493 -1.52286,-2.64809 -1.58602,-4.99406 h 16.93517 0.39322 v -0.40632 -5.15136 -0.43252 h -0.39322 -16.93517 c 0.0815,-1.97292 0.63316,-3.49907 1.67778,-4.50905 1.13496,-1.09737 2.76697,-1.69088 4.95472,-1.69088 h 10.30267 0.39322 v -0.39328 -5.16439 -0.44571 h -0.39322 z m 16.79099,0 v 0.44571 29.89868 0.38011 h 0.39324 6.23928 0.39322 v -0.38011 -11.31198 h 6.73737 l 6.50144,11.49549 0.15726,0.1966 h 0.19663 7.03885 0.6947 l -0.35391,-0.58984 -7.07816,-12.15087 c 1.80541,-0.53005 3.27408,-1.45711 4.26,-2.923 1.0256,-1.50996 1.53355,-3.37395 1.5336,-5.5839 -5e-5,-3.26341 -0.92359,-5.74897 -2.77883,-7.28788 -1.78405,-1.46748 -4.50625,-2.18897 -8.12679,-2.18901 h -15.40157 -0.39324 -0.0127 z m 7.02574,6.19998 h 7.34032 c 2.45768,3e-5 3.96455,0.42981 4.60082,1.08792 0.32177,0.33161 0.60294,1.0596 0.60295,2.24144 -10e-6,1.4007 -0.38404,2.2796 -1.04862,2.7264 -0.66906,0.44977 -2.0667,0.74711 -4.15515,0.74711 h -7.34032 z m -96.64322,1.33698 3.9061,9.97496 h -7.77288 z m 15.06077,27.64416 c -4.05815,8e-5 -7.51905,0.63089 -10.40753,1.88751 -3.24553,1.40707 -5.7578,3.63569 -7.43208,6.64564 -1.84351,3.31078 -2.72641,7.63688 -2.72641,12.88491 0,7.14419 1.65034,12.51857 5.05958,16.13559 3.4131,3.62109 8.6465,5.4135 15.59819,5.4135 7.32073,0 12.78144,-1.97912 16.20114,-6.00338 3.02344,-3.55254 4.50902,-8.72827 4.50907,-15.46711 -5e-5,-5.46803 -0.94734,-9.93041 -2.92303,-13.31745 -1.74963,-3.00998 -4.36064,-5.16943 -7.68112,-6.50142 -2.7613,-1.10821 -6.14623,-1.67771 -10.19781,-1.67779 z m -61.13441,0.78646 v 0.56366 7.23546 0.48496 h 0.53741 21.74571 l -22.13894,25.06197 -0.13107,0.15727 v 0.19662 7.09126 0.55056 h 0.53741 33.84414 0.53742 v -0.55056 -7.09126 -0.53739 h -0.53742 -21.26072 l 21.70638,-25.02265 0.0918,-0.14411 v -0.19664 -7.23546 -0.55053 h -0.53742 -33.84413 -0.53742 l -0.0132,-0.0127 z m 87.63823,0 v 0.56366 40.21449 0.56364 h 0.5374 8.67732 0.53742 v -0.56364 l -0.34081,-28.33891 16.24047,28.65349 0.15726,0.24906 h 0.28837 9.71283 0.55051 v -0.56364 -40.21449 -0.56366 h -0.55051 -8.4676 -0.55051 v 0.56366 l 0.3539,26.94947 -15.41468,-27.21163 -0.13111,-0.3015 h -0.30148 -10.74833 -0.53742 -0.0127 z m 61.58007,0 c -7.03412,8e-5 -12.26968,2.00697 -15.46711,6.05581 -2.78137,3.51925 -4.10272,8.68718 -4.10272,15.40156 0,6.31175 1.53231,11.21508 4.70566,14.61509 3.30563,3.53232 8.22171,5.26933 14.61512,5.26933 h 14.26119 0.49811 v -0.56364 -6.97331 -0.56366 h -0.49811 -13.9204 c -3.21333,5e-5 -5.43868,-0.68395 -6.78979,-2.01854 -1.31261,-1.29718 -2.03673,-3.58636 -2.12345,-6.73742 h 22.83364 0.49811 v -0.53739 -6.99951 -0.53746 h -0.49811 -22.78121 c 0.10304,-2.67753 0.81458,-4.71508 2.22831,-6.08197 1.52775,-1.47705 3.68766,-2.25448 6.6325,-2.25453 h 13.9204 0.49811 v -0.53739 -6.97331 -0.56366 h -0.49811 z m -88.04457,7.2879 c 2.92766,8e-5 5.22468,0.72354 6.89466,2.189 1.37957,1.20928 2.34282,2.92279 2.92302,5.19066 0.42096,1.63127 0.64225,3.67046 0.64228,6.09508 -3e-5,4.35403 -0.8437,7.58746 -2.42492,9.80457 -1.73548,2.42281 -4.35302,3.67017 -8.03504,3.67017 -3.7846,0 -6.39075,-1.30931 -8.11368,-3.94542 -1.44621,-2.22097 -2.24144,-5.41128 -2.24142,-9.66036 -2e-5,-4.3495 0.89605,-7.62026 2.58222,-9.85701 1.75448,-2.32213 4.27346,-3.48661 7.77288,-3.48669 z"
       id="path3776" />
  </g>
</svg>
