<?xml version="1.0" standalone="yes"?>

<svg version="1.1" viewBox="0.0 0.0 560.0 663.0" fill="none" stroke="none" stroke-linecap="square" stroke-miterlimit="10" xmlns="http://www.w3.org/2000/svg" xmlns:xlink="http://www.w3.org/1999/xlink"><clipPath id="p.0"><path d="m0 0l560.0 0l0 663.0l-560.0 0l0 -663.0z" clip-rule="nonzero"></path></clipPath><g clip-path="url(#p.0)"><path fill="#000000" fill-opacity="0.0" d="m0 0l560.91864 0l0 663.3018l-560.91864 0z" fill-rule="nonzero"></path><path fill="#000000" d="m64.36887 487.24475c35.368332 38.052917 94.57787 216.94879 171.47244 156.31757c76.89458 -60.631226 251.36833 -422.52582 289.89502 -520.105c38.526672 -97.57918 -7.8928223 -139.58049 -58.734894 -65.37008c-50.842102 74.21041 -181.10675 451.26422 -246.3176 510.63254c-65.210846 59.368347 -112.10542 -128.84338 -144.94751 -154.42255c-32.84208 -25.579193 -50.21041 -11.210419 -52.104984 0.94750977c-1.894577 12.157898 5.3692036 33.947052 40.73753 72.0z" fill-rule="nonzero"></path><path stroke="#000000" stroke-width="2.0" stroke-linejoin="round" stroke-linecap="butt" d="m64.36887 487.24475c35.368332 38.052917 94.57787 216.94879 171.47244 156.31757c76.89458 -60.631226 251.36833 -422.52582 289.89502 -520.105c38.526672 -97.57918 -7.8928223 -139.58049 -58.734894 -65.37008c-50.842102 74.21041 -181.10675 451.26422 -246.3176 510.63254c-65.210846 59.368347 -112.10542 -128.84338 -144.94751 -154.42255c-32.84208 -25.579193 -50.21041 -11.210419 -52.104984 0.94750977c-1.894577 12.157898 5.3692036 33.947052 40.73753 72.0z" fill-rule="nonzero"></path></g></svg>

