<svg width="44" height="44" viewBox="0 0 44 44" fill="none" xmlns="http://www.w3.org/2000/svg">
<path d="M11.2503 36.7813C10.8939 36.7813 10.5521 36.6397 10.3001 36.3877C10.0481 36.1357 9.90654 35.7939 9.90654 35.4376V28.2653C9.16935 28.6169 8.35232 28.7676 7.53818 28.702C6.84883 28.6514 6.17911 28.4494 5.5767 28.1105C4.97428 27.7715 4.45398 27.304 4.05282 26.7411C3.65166 26.1782 3.3795 25.5338 3.25572 24.8538C3.13193 24.1737 3.15957 23.4748 3.33665 22.8066C3.51373 22.1385 3.83591 21.5176 4.28026 20.9881C4.72461 20.4586 5.2802 20.0336 5.90749 19.7433C6.53478 19.453 7.21835 19.3045 7.90955 19.3085C8.60076 19.3124 9.28259 19.4686 9.90654 19.7661V12.5938C9.90654 12.2374 10.0481 11.8956 10.3001 11.6436C10.5521 11.3916 10.8939 11.25 11.2503 11.25H19.0944C18.7428 10.5129 18.5921 9.69583 18.6577 8.88169C18.7084 8.19234 18.9103 7.52262 19.2493 6.9202C19.5882 6.31779 20.0557 5.79749 20.6186 5.39633C21.1815 4.99516 21.8259 4.72301 22.506 4.59922C23.186 4.47544 23.885 4.50307 24.5531 4.68016C25.2212 4.85724 25.8421 5.17942 26.3716 5.62377C26.9011 6.06811 27.3261 6.6237 27.6164 7.25099C27.9067 7.87829 28.0552 8.56186 28.0512 9.25306C28.0473 9.94426 27.8911 10.6261 27.5937 11.25H35.4378C35.7942 11.25 36.136 11.3916 36.388 11.6436C36.64 11.8956 36.7815 12.2374 36.7815 12.5938V19.7661C36.0443 19.4144 35.2273 19.2637 34.4132 19.3293C33.7238 19.38 33.0541 19.582 32.4517 19.9209C31.8493 20.2598 31.329 20.7274 30.9278 21.2903C30.5267 21.8532 30.2545 22.4975 30.1307 23.1776C30.0069 23.8576 30.0346 24.5566 30.2117 25.2247C30.3887 25.8929 30.7109 26.5138 31.1553 27.0432C31.5996 27.5727 32.1552 27.9977 32.7825 28.288C33.4098 28.5783 34.0934 28.7268 34.7846 28.7229C35.4758 28.7189 36.1576 28.5627 36.7815 28.2653V35.4376C36.7815 35.7939 36.64 36.1357 36.388 36.3877C36.136 36.6397 35.7942 36.7813 35.4378 36.7813H11.2503Z" stroke="white" stroke-width="2" stroke-linecap="round" stroke-linejoin="round"/>
</svg>
