<?xml version="1.0"?>
<svg xmlns:rdf="http://www.w3.org/1999/02/22-rdf-syntax-ns#" xmlns="http://www.w3.org/2000/svg" xmlns:cc="http://web.resource.org/cc/" xmlns:dc="http://purl.org/dc/elements/1.1/" xmlns:sodipodi="http://inkscape.sourceforge.net/DTD/sodipodi-0.dtd" xmlns:svg="http://www.w3.org/2000/svg" id="Layer_1" style="enable-background:new 0 0 259.879 251.521" xml:space="preserve" sodipodi:version="0.32" viewBox="0 0 259.879 251.521" version="1.0" sodipodi:docname="Sport.svg" sodipodi:docbase="F:\openclip\svg2">
<sodipodi:namedview id="base" bordercolor="#666666" borderopacity="1.0" pagecolor="#ffffff"/>
<path id="path3" fill="#fff" d="m239.12 146.1c4.296 27.323 8.498 54.662 12.887 81.971-76.329 2.889-152.62 6.604-228.92 10.203 7.447-17.972 14.895-35.943 22.342-53.916 3.768-9.093 7.536-18.187 11.304-27.279 0.778-1.878 1.557-3.757 2.335-5.635 0.309-0.747 2.497-4.459 2.139-5.169-2.277-4.514-4.55-9.03-6.824-13.546-17.531-34.8-35.062-69.6-52.596-104.4 22.155-0.549 44.401-0.558 66.503-2.145 2.247-0.161 4.872-0.305 7.08 0.224 0.871 0.208 1.6 1.024 2.396 1.03 5.316 0.049 10.633 0.098 15.949 0.147l34.25 0.315c10.235 0.094 20.588 0.644 30.807-0.023 5.119-0.334 10.617-0.844 15.727-0.338 1.673 0.166 2.777 0.967 4.385 0.982 3.171 0.029 6.342 0.059 9.512 0.088 22.216 0.205 44.433 0.411 66.648 0.614-3.077 10.028-6.153 20.056-9.229 30.083-2.983 9.727-6.852 19.579-8.868 29.554-1.903 9.414-3.696 19.118-4.955 28.636-0.521 3.94 1.771 9.552 2.566 13.449 1.06 5.27 2.74 10.12 4.55 15.16"/>
<path id="path5" fill="#f30" d="m237.33 86.859c-48.961 7.391-97.921 14.788-146.88 22.18-12.628 1.907-25.257 3.814-37.886 5.721-2.716 0.41-5.432 0.82-8.147 1.23-2.479 0.373-3.103-3.237-4.03-5.185-2.774-5.826-5.548-11.651-8.323-17.477-10.691-22.434-21.352-44.888-32.064-67.317 85.195 0.482 170.39 0.978 255.58 1.433-3.15 10.39-6.303 20.78-9.454 31.17-1.581 5.213-3.162 10.425-4.742 15.638-0.47 1.555-4.38 12.297-4.06 12.612"/>
<path id="path7" fill="#ff0" d="m232.5 111.92c1.61-4.355 3.22-8.71 4.83-13.065l-14.19 7.755c-2.639 1.441-8.196-3.859-10.565-5.45-1.749-1.176-7.284 6.048-8.763 7.553-1.98 2.018-1.805 2.006-4.307 0.869-2.854-1.298-5.71-2.596-8.564-3.894-2.254-1.024-4.509-2.048-6.762-3.074-0.159-0.072-2.359 2.623-2.391 2.658-1.631 1.816-3.263 3.632-4.894 5.448-1.237 1.377-5.189-1.126-6.716-1.721-2.234-0.871-4.468-1.741-6.702-2.611-1.758-0.684-3.266 1.529-4.613 2.641-2.114 1.744-4.228 3.487-6.341 5.231-2.249 1.855-3.304 4.045-6.103 2.73l-6.753-3.171c-2.121-0.997-2.794-2.071-4.446-0.271-1.591 1.732-3.182 3.465-4.772 5.197-2.364 2.575-2.278 2.214-5.125 0.645-1.123-0.619-5.083-3.609-6.226-2.992-1.998 1.08-4.034 2.092-6.062 3.119-2.294 1.162-4.589 2.323-6.883 3.484-2.257 1.143-3.688-0.321-5.91-1.364-1.753-0.823-3.542-2.348-5.406-1.555-2.57 1.09-5.141 2.181-7.711 3.271s-5.141 2.181-7.711 3.271c-2.143 0.913-4.374-1.876-6.124-3.188 0.016 0.012-2.806-2.32-2.976-2.189-2.28 1.748-4.561 3.497-6.841 5.245-0.304 0.232-3.356 3.142-3.876 2.965-2.981-1.013-5.962-2.027-8.944-3.04 1.747 3.172 3.494 6.344 5.24 9.516 0.745 1.353 0.943 3.047 2.722 2.729 1.524-0.271 3.042-0.541 4.574-0.775 8.111-1.242 16.221-2.485 24.332-3.728 16.244-2.489 32.488-4.978 48.731-7.466 32.142-4.925 64.292-9.792 96.425-14.774-0.09-0.01-0.14-0.01-0.2-0.01"/>
<path id="path9" fill="#FFBF00" d="m231.96 117.47c-46.077 7.854-92.153 15.711-138.23 23.566-10.958 1.868-21.916 3.733-32.873 5.604-0.511 0.088-1.655 3.691-1.879 4.19-1.353 3.02-2.706 6.039-4.059 9.059-2.48 5.535-4.96 11.071-7.441 16.606-9.441 21.071-18.877 42.146-28.324 63.215 40.444-1.562 80.888-3.127 121.33-4.689 20.324-0.785 40.647-1.572 60.971-2.356 19.426-0.751 38.987-2.259 58.426-2.259-4.708-19.171-9.419-38.342-14.128-57.513-1.16-4.75-12.51-55.6-13.79-55.43"/>
<path id="path11" fill="#E6BDA1" d="m122.78 228.25c1.014 7.756 2.029 15.512 3.043 23.268 14.743-2.604 29.486-5.209 44.229-7.814 2.705-0.479 6.399 0.123 6.459-3.063 0.071-3.895 0.144-7.789 0.216-11.684 0.154-8.35 0.31-16.698 0.463-25.048-18.14 8.1-36.28 16.21-54.41 24.33"/>
<path id="path13" fill="#003CFF" d="m83.404 145.92c6.292-1.577 12.719-2.755 19.151-3.578 6.762-0.864 10.224 0.605 15.338 4.94 4.628 3.922 10.484 9.329 16.777 9.98 6.144 0.638 11.751-3.63 15.518-8.154 2.867-3.444 6.286-8.814 4.067-13.35-1.042-2.131 2.28-6.617 3.232-8.623 1.586-3.338 3.172-6.677 4.758-10.015 1.536-3.233 3.072-6.466 4.607-9.699 1.244-2.61 4.834-0.972 7.399-0.699 7.303 0.775 14.606 1.551 21.909 2.327-4.179 12.593-8.359 25.186-12.537 37.779-0.851 2.566-0.375 5.201-0.333 7.888 0.048 3.157-0.253 6.237-0.591 9.372-0.74 6.865-1.989 13.533-3.524 20.261-0.696 3.052-1.287 6.275-2.542 9.158-1.195 2.745-2.87 2.522-5.785 3.347-6.829 1.93-13.623 3.953-20.391 6.091-11.638 3.676-25.201 6.505-35.375 13.492 0-8.652 1.058-17.328 0.535-25.985-0.4-6.616 0.669-17.137-6.721-20.03-7.052-2.762-15.152-3.099-22.606-3.979-1.385-0.163-2.764-0.427-4.152-0.547-2.014-0.175-0.604-4.163-0.449-5.481 0.529-4.84 1.1-9.67 1.671-14.5"/>
<path id="path15" fill="#ff6" d="m103.09 98.852c1.327 5.274 0.921 11.024 2.182 16.378 1.081 4.592 1.867 9.734 5.694 12.795-3.583 1.801-9.393 3.633-13.065 1.191-1.506-1.001-3.792 0.427-5.42 0.873-2.245 0.615-6.286 1.098-8.205-0.596-1.174-1.036-0.088-2.688-1.955-2.854-2.358-0.21-4.638-0.989-6.902-1.637-4.42-1.264-8.119-3.717-10.451-7.716 8.484 0.23 8.395-12.077 10.755-17.368 3.453-7.742 8.58-15.945 15.07-21.51 2.796-2.397 5.446-4.362 9.192-4.571 1.755-0.097 4.401-6.646 5.342-8.123 2.032-3.191 4.586-6.562 7.859-8.577 3.309-2.038 8.784-2.382 12.603-2.38 9.994 0.005 13.854 7.205 17.923 15.036 1.663 3.2 3.926 6.68 6.49 9.232 2.701 2.691-5.037 6.645-6.848 7.282-1.478 0.52-3 0.783-4.563 0.585-1.521-0.19-2.325-1.297-3.945-1.027-4.16 0.692-6.468 4.955-11.036 5.445-4.217 0.453-7.459 1.463-11.665-0.117-4.67-1.741-7.42 4.44-9.05 7.675"/>
<path id="path17" fill="#E6BDA1" d="m175.94 32.629c-2.451-4.886-3.866-11.686-4.419-17.083-0.553-5.411-0.519-11.313 5.171-13.717 4.188-1.77 10.479-2.849 13.663 1.397 3.498 4.656-0.186 10.154 1.967 14.839 5.909 12.857 2.852 25.172 0.196 38.347-2.835 14.064-6.15 28.234-8.166 42.439-6.511-1.623-13.419-2.481-19.761-4.681-3.074-1.066-0.653-4.598 0.067-7.101 1.042-3.618 2.093-7.234 3.103-10.862 3.9-14.036 8.18-28.921 8.18-43.578"/>
<path id="path19" fill="#E6BDA1" d="m73.204 145.39c-1.373 7.576-2.746 15.152-4.118 22.729-7.854-3.358-15.59-7.004-23.106-11.066-6.232-3.37-12.729-6.853-17.557-12.166-5.248-5.776-4.269-12.193-3.807-19.532 0.558-8.856 1.351-17.707 2.652-26.486 1.24-8.37 2.41-17.112 5.085-25.169 2.232-6.722 10.88-9.913 17.482-8.359 7.39 1.741 6.978 8.843 4.608 14.794-3.182 7.991-7.287 3.375-9.161-2.221-0.28 7.756-0.56 15.513-0.84 23.27-0.135 3.757-0.271 7.515-0.407 11.272-0.125 3.5-1.015 6.44-0.238 10.028 1.505 6.953 5.36 11.184 10.625 15.515 2.42 1.991 5.697 3.077 8.509 4.417 2.532 1.2 8.092 2.97 10.273 2.97"/>
<path id="path21" fill="#E6BDA1" d="m106.67 102.43c2.584 10.275 5.232 24.005 15.572 29.172-1.426 1.14-2.852 2.281-4.277 3.421-1.542 1.233-0.761 1.449 0.132 3.009 1.587 2.771 3.813 5.514 6.537 7.266 6.254 4.02 16.041 2.576 21.365-2.729 3.061-3.056-5.604-8.194-3.709-10.105 2.441-2.461 3.01-6.361 3.423-9.647 0.291-2.32 0.82-28.048 0.906-28.056-0.634 0.056-1.838 1.627-2.384 1.976-1.816 1.162-3.799 1.389-5.903 1.083-2.273-0.331-3.694-0.692-5.959-0.1-1.86 0.486-3.629 1.565-5.478 1.945-3.904 0.804-7.771-1.994-10.893 1.128-3.06 3.06-5.28 3.38-9.34 1.64"/>
<path id="path23" d="m193.66 3.813c2.637 4.621-0.205 13.379-6.43 13.589-3.774 0.127 1.837-3.627 2.361-4.151 1.843-1.838 3.965-5.925 2.622-8.5-3.667-7.029-13.15-1.764-14.523 4.163-0.782 3.38-0.626 7.558 1.323 10.562 0.949 1.463 2.162 2.754 2.868 4.374 0.129 0.295 0.455 4.154-0.538 3.2-0.043-0.407-0.083-0.814-0.122-1.222-0.271-1.089-1.116-1.664-1.955-2.294-1.62-1.217-2.583-2.666-3.538-4.439-2.166-4.025-1.842-8.02 0.134-11.977 1.659-3.323 4.907-7.329 8.904-7.108 1.848 0.102 3.886-0.221 5.604 0.638 0.58 0.282 3.87 3.165 3.31 3.165"/>
<path id="path25" d="m200.82 37.282c0 11.437-1.465 22.548-4.03 33.696-1.276 5.549-2.749 11.051-4.181 16.561-0.993 3.822-1.585 7.202-4.141 10.239-0.914-4.607 2.555-10.974 3.524-15.491 1.677-7.829 3.642-15.629 5.21-23.493 1.644-8.235 1.478-16.733 1.152-25.076-0.171-4.348-0.441-8.691-0.789-13.028-0.189-2.371-3.378-5.221-2.652-7.393 4.129 2.544 5.547 5.716 5.547 10.579 0 1.231-0.43 13.406 0.36 13.406"/>
<path id="path27" d="m183.28 30.661c-0.734 12.873-1.624 25.623-4.355 38.259-1.297 6.001-2.964 11.924-5.224 17.636-0.721 1.821-2.086 3.706-2.405 5.589-0.122 0.716-0.35 1.675-0.76 2.288-0.226 0.337-2.284 1.803-2.066 0.367 0.8-5.21 2.821-9.79 4.249-14.826 0.804-2.833 0.721-5.769 1.455-8.625 0.738-2.876 1.364-5.779 2-8.679 1.331-6.064 2.553-12.124 3.484-18.265 0.36-2.393 0.32-13.744 3.62-13.744"/>
<path id="path29" d="m150.34 67.352c0.365 2.206 0.11 5.09 1.209 7.089 0.923 1.68 2.473 1.866 3.293 3.526 1.935 3.892 1.949 9.39-2.874 11.214-1.812 0.685-4.144 0.688-5.598 2.11-1.741 1.703-4.174 2.822-6.634 3.049-2.728 0.251-6.526-2.163-8.824-0.169-2.879 2.498-6.622 3.892-10.421 2.738-1.026-0.312-3.606-2.106-4.62-1.702-2.488 0.993-5.127 1.821-7.813 1.993-4.487 0.288-7.976-2.522-7.191-7.207 0.39-2.333 1.677-8.86 5.086-8.86-1.584 3.7-4.981 7.695-2.126 11.7 3.33 4.673 7.686 2.146 11.435-0.099 1.924-1.151 3.909 0.661 5.649 1.381 2.613 1.083 4.302 0.55 6.704-0.648 1.949-0.972 3.343-2.753 5.25-3.779 2.392-1.287 3.153 0.438 4.946 1.468 1.383 0.792 4.065 0.18 5.391-0.391 1.71-0.735 1.802-2.721 3.699-3.355 1.679-0.561 3.541-0.05 5.164-0.784 2.562-1.158 2.265-4.205 1.683-6.537-0.825-3.304-5.495-4.448-6.042-7.972-0.281-1.804 0.113-2.927-1.113-4.571-1.313-1.758-2.596-3.424-4.461-4.651-4.568-3.007-10.136 0.389-14.97-1.979-2.676-1.312-9.463 2.36-11.615 3.835-3.721 2.55-7.055 6.99-8.161 11.371-0.198 0.783 0.252 4.209-1.342 2.594-0.827-0.835 0.314-3.583 0.669-4.577 2.796-7.836 11.731-16.958 20.801-15.773 2.479 0.324 4.953 0.84 7.413 1.285 2.543 0.46 5.353-0.295 7.688 0.708 2.032 0.874 4.514 1.474 6.019 3.225 0.31 0.373 2.26 3.768 1.69 3.768"/>
<path id="path31" d="m60.137 65.202c3.534 6.19 6.076 16.052-2.682 19.543-2.855 1.138-6.916 0.238-8.45-2.537-1.064-1.925-4.929-7.907-1.753-9.487 1.205 3.624 1.247 7.75 5.117 9.744 3.606 1.858 8.145-1.357 8.621-4.925 1.002-7.508-4.247-14.846-12.05-12.55-7.942 2.337-10.333 11.495-12.881 18.309-3.413 9.123-5.343 19.6-6.744 29.328-0.609 4.228-0.855 8.395-0.855 12.661 0 1.163-0.895 0.942-1.032-0.077-0.193-1.429-0.34-2.892-0.447-4.329-0.739-9.901 1.819-19.883 4.162-29.417 2.171-8.836 4.315-17.689 9.877-25.111 2.721-3.631 5.171-5.729 9.806-5.792 2.36-0.032 4.677 0.289 6.711 1.56 0.582 0.366 2.777 3.082 2.6 3.082"/>
<path id="path33" d="m105.24 69.498c0.06 0.179 0.12 0.359 0.18 0.538-1.448 0-0.912 1.271-1.611 1.968 0-2.774-8.763 0.141-10.128 0.823-4.688 2.343-9.164 7.665-10.129 12.96-0.972 5.344-2.235 10.627-3.428 15.927-1.354 6.015-2.787 11.613-7.278 16.108 6.103 3.669 10.768 0.564 15.928-2.863 0 3.353-1.399 8.02 3.044 9.127 3.523 0.876 5.186-5.444 7.516-4.976 2.188 0.441 0.919 2.907 2.338 3.85 1.594 1.058 3.708 1.339 5.359 0.231 1.385-0.93 2.9-1.974 3.65-3.523 0.425-0.877 0.061-3.098 1.451-3.098 2.305 0-1.431 8.185-1.737 8.645-2.288 3.439-6.702 2.185-9.807 1.019-1.115-0.419-2.086-1.55-2.904-2.366-0.507-0.505-2.936 1.544-3.36 1.83-2.207 1.483-8.591 1.902-8.591-2.421 0-3.955-2.376-1.021-5.154-0.098-3.061 1.015-6.143 0.166-8.31-1.996-2.552-2.545-3.192-3.925-0.157-6.407 3.165-2.587 4.822-5.647 5.857-9.67 2.202-8.557 0.818-18.383 5.094-26.36 4.667-8.705 13.225-11.07 22.357-9.25-0.05 0.008-0.11 0.008-0.17 0.008"/>
<path id="path35" d="m50.831 86.501c-0.431 7.287-1.389 14.546-1.424 21.854-0.028 6.105-0.399 14.477 2.729 19.963 1.341 2.351 3.897 2.934 6.117 4.185 2.457 1.385 4.945 2.87 7.467 4.128 2.188 1.09 4.414 2.157 6.766 2.669 1.889 0.413 3.063 3.473 0.537 3.043-2.413-0.408-4.733-2.387-7.337-2.865-2.93-0.539-4.52-1.854-7.005-3.375-5.372-3.284-10.7-6.672-11.208-13.553-0.509-6.905-0.606-13.877 0.19-20.766 0.272-2.346 1.305-15.279 3.168-15.279"/>
<path id="path37" d="m152.31 94.377c-1.106 12.264-0.217 39.862-19.167 37.701-7.26-0.828-13.085-7.36-15.948-13.782-1.361-3.052-2.648-6.472-3.453-9.71-0.588-2.369-2.987-8.448-1.163-10.272 2.803 7.485 5.098 14.833 8.983 21.81 2.9 5.209 13.11 11.927 19.02 7.491 6.167-4.628 8.615-11.633 9.273-19.104 0.349-3.956 0.688-8.59-0.049-12.521-0.211-1.129-1.236-2.665 0.565-2.983 1.429-0.252 1.938 0.209 1.938 1.55 0.01-0.07 0.01-0.129 0.01-0.189"/>
<path id="path39" d="m186.14 101.36c0.693 0.469 3.531 0.608 2.251 2.082-0.756 0.869-4.543 1.093-5.553 1.122-3.38 0.095-6.904 0.175-10.238-0.471-2.76-0.535-5.68-3.253-7.036 0.26-3.841 9.945-9.009 20.362-15.398 28.865-1.308-5.189 4.353-12.2 6.794-16.533 3.483-6.181 6.938-12.045 8.956-18.904 6.415 3.206 13.237 5.225 20.404 3.58-0.05-0.01-0.11-0.01-0.17-0.01"/>
<path id="path41" d="m142.29 100.64c0 2.727-1.538 3.294-3.345 1.488-3.08-3.104 3.35-3.756 3.35-1.49"/>
<path id="path43" d="m133.16 101.89c0.049 2.943 0.099 5.887 0.148 8.831 0.072 4.326 1.954 0.287 3.609 2.088 1.089 1.188-2.477 1.478-2.68 1.471-3.046-0.097-2.651-0.611-2.479-3.662 0.152-2.71 0.524-5.886-0.397-8.505-0.165-0.469-0.077-3.14 0.954-1.917 0.2 0.23 1.31 2.15 0.85 1.69"/>
<path id="path45" d="m126 101.89c0 1.209 0.766 3.095-0.647 3.834-1.191 0.623-1.878-0.118-2.473-1.114-0.421-0.705-0.137-2.47 0.209-3.163 0.67-1.35 3.15 0.68 2.91 0.44"/>
<path id="path47" d="m188.82 108.16c-2.32 13.873-6.473 27.565-8.07 41.567-0.41 3.598-0.416 7.17-0.021 10.769 0.441 4.023 0.021 7.038-1.069 10.965-1.849 6.657-4.737 13.144-5.78 19.995-0.4 2.632-0.23 5.193-1.08 7.632-0.854 2.451-2.145 1.929-4.394 2.514-6.398 1.663-12.891 4.212-19.002 6.756-6.343 2.641-12.366 5.757-18.478 8.845-3.121 1.577-6.243 3.146-9.333 4.784-1.39 0.736-5.212 3.804-6.692 2.691 1.626-0.597-0.075-0.701 0.536-1.609 0.707-1.051 2.845-1.811 3.874-2.439 2.887-1.763 5.819-3.437 8.835-4.969 6.433-3.268 13.077-6.131 19.593-9.23 6.204-2.951 12.902-4.899 19.245-7.541 3.063-1.273 3.157-0.879 3.682-3.999 0.704-4.237 1.802-8.396 2.931-12.536 1.753-6.427 3.561-12.071 3.24-18.826-0.31-6.511-0.963-11.952 1.363-18.121 1.151-3.053 1.115-6.819 1.809-10.021 0.757-3.497 1.864-6.912 2.819-10.358 0.993-3.582 2.054-7.142 3.122-10.702 0.511-1.704 1.021-3.408 1.533-5.112 0.15-0.5 1.33-1.15 1.33-1.04"/>
<path id="path49" d="m56.021 156.12c3.042 1.014 5.928 2.441 8.92 3.569 1.294 0.488 7.626 2.408 4.663 3.797-1.696 0.795-6.665-1.49-8.396-2.086-3.146-1.082-6.209-2.397-9.183-3.886-6.263-3.134-11.88-6.909-16.971-11.733-4.221-4.002-8.757-8.579-7.49-14.897 5.119 12.8 17.311 18.43 28.457 25.24"/>
<path id="path51" d="m152.31 140.37c-1.49 3.992-3.95 7.538-6.957 10.539-2.814 2.807-5.88 3.27-9.816 2.48-4.399-0.883-8.408-3.008-11.959-5.742-0.393-0.302-3.891-2.98-1.513-2.98 1.594 0 5.557 3.901 7.241 4.839 3.208 1.785 7.871 3.021 11.27 1.017 3.947-2.329 6.128-5.17 8.116-9.264 1.046-2.154 1.284-2.521-0.186-4.245-1.345-1.577-2.39-3.153-3.531-4.876 1.993-1.136 2.179 0.935 3.819 2.25 2.33 1.87 4.5 2.56 3.52 5.98"/>
<path id="path53" d="m127.61 135c-0.85 2.123-2.673 4.466-4.834 5.379-3.311 1.399-1.427-0.387-3.04-1.439 2.299-0.923 4.314-2.421 5.704-4.481 0.271-0.403 0.662-1.732 1.275-1.782 1.1-0.09 1.72 1.65 0.89 2.32"/>
<path id="path55" d="m117.05 139.84c-1.441 1.438-5.907-0.069-7.738-0.176-3.139-0.184-6.21 0.319-9.318 0.694-1.95 0.234-18.015 2.64-18.069 0.285-0.013-0.571 7.181-0.808 8.165-0.968 3.396-0.556 6.722-1.455 10.103-2.088 2.24-0.41 17.11-2.74 16.86 2.26"/>
<path id="path57" d="m79.646 142.16c0 5.104-0.613 10.291-1.61 15.295-0.414 2.075-0.71 4.149-1.274 6.193-0.667 2.417-0.69 3.008 2.066 3.543 4.332 0.841 8.569 2.124 12.887 3.054 0.428 0.092 3.112-0.067 3.13 0.561 0.033 1.151 0.028 1.144-1.724 1.228-4.275 0.204-8.978-0.358-13.081-1.548-1.638-0.475-3.229-1.087-4.875-1.533-2.581-0.698-1.517-2.765-1.042-5.063 1.096-5.299 2.689-10.458 3.579-15.801 0.293-1.76 0.041-3.45 0.248-5.171 0.238-1.96 1.696-0.76 1.696-0.76"/>
<path id="path59" d="m105.06 174.92c3.533 6.677 4.599 13.086 5.085 20.581 0.236 3.648 0.408 7.244 1.03 10.854 0.621 3.602 2.01 7.674 1.402 11.343-2.501-0.974-2.757-6.547-3.034-8.692-0.573-4.438-0.667-8.907-1.178-13.349-0.437-3.792-1.117-7.392-2.11-11.076-0.962-3.569-4.808-7.506-7.102-10.377 1.152-0.75 5.912-0.39 5.912 0.73"/>
<path id="path61" d="m169.85 205.34c0 7.276 0.19 14.566 1.032 21.8 0.432 3.71 1.088 7.387 1.7 11.07 0.32 1.928-6.595 2.779-8.026 2.938-7.979 0.877-15.984 2.284-23.795 4.116-6.909 1.62-14.413 2.552-21.026 5.177 1.205-2.417 5.312-3.059 7.637-3.885 3.738-1.328 7.56-2.48 11.369-3.585 8.751-2.538 17.699-3.575 26.481-5.779 0.371-0.094 4.137-0.639 4.064-1.29-0.201-1.814-0.403-3.628-0.604-5.442-0.532-4.815-0.816-9.649-0.82-14.496-0.004-3.732 0.512-7.482 0.423-11.207-0.1-4.68 2.12 0.58 1.57 0.58"/>
<path id="path63" d="m118.13 233.27c0.543 1.898 1.013 4.04 1.292 5.997 0.229 1.608 1.669 3.703 1.529 5.253-0.113 1.257-1.952 1.568-2.509 0.469-0.522-1.031-0.503-3.241-0.654-4.436-0.436-3.477-1.614-6.906-2.091-10.397-0.228-1.673 1.481-2.815 1.88-0.787 0.15 0.82 0.61 3.96 0.55 3.91"/>
<path id="path65" d="m152.31 230.58c0 1.871-3.041 3.713-3.041 1.525 0-2.5 1.24-3.14 3.04-1.52"/>
<metadata><rdf:RDF><cc:Work><dc:format>image/svg+xml</dc:format><dc:type rdf:resource="http://purl.org/dc/dcmitype/StillImage"/><cc:license rdf:resource="http://creativecommons.org/licenses/publicdomain/"/><dc:publisher><cc:Agent rdf:about="http://openclipart.org/"><dc:title>Openclipart</dc:title></cc:Agent></dc:publisher><dc:title>Architetto -- sport</dc:title><dc:date>2010-03-27T08:42:35</dc:date><dc:description>Drawing by Francesco ;Architetto; Rollandin. From OCAL 0.18 release.</dc:description><dc:source>http://openclipart.org/detail/34447/architetto----sport-by-anonymous</dc:source><dc:creator><cc:Agent><dc:title>Anonymous</dc:title></cc:Agent></dc:creator><dc:subject><rdf:Bag><rdf:li>activity</rdf:li><rdf:li>clip art</rdf:li><rdf:li>clipart</rdf:li><rdf:li>girl</rdf:li><rdf:li>people</rdf:li><rdf:li>sport</rdf:li><rdf:li>victory</rdf:li><rdf:li>woman</rdf:li></rdf:Bag></dc:subject></cc:Work><cc:License rdf:about="http://creativecommons.org/licenses/publicdomain/"><cc:permits rdf:resource="http://creativecommons.org/ns#Reproduction"/><cc:permits rdf:resource="http://creativecommons.org/ns#Distribution"/><cc:permits rdf:resource="http://creativecommons.org/ns#DerivativeWorks"/></cc:License></rdf:RDF></metadata></svg>
