<svg width="18" height="18" viewBox="0 0 18 18" fill="none" xmlns="http://www.w3.org/2000/svg">
<path d="M9.24988 0C4.45567 0 0.568359 3.88557 0.568359 8.67765C0.568359 12.2301 2.70773 15.2827 5.76565 16.627C5.74239 16.0227 5.76177 15.2944 5.9168 14.6358C6.08345 13.9307 7.03299 9.90569 7.03299 9.90569C7.03299 9.90569 6.75394 9.35172 6.75394 8.53431C6.75394 7.24816 7.49807 6.28742 8.42824 6.28742C9.21888 6.28742 9.59869 6.88013 9.59869 7.58907C9.59869 8.38323 9.09098 9.56866 8.83131 10.6689C8.61427 11.5909 9.29251 12.3385 10.2033 12.3385C11.8466 12.3385 12.955 10.2272 12.955 7.72466C12.955 5.82255 11.6722 4.40081 9.3429 4.40081C6.71131 4.40081 5.06802 6.3649 5.06802 8.55756C5.06802 9.31297 5.29281 9.84758 5.64162 10.2582C5.80053 10.448 5.82378 10.5255 5.76565 10.7425C5.72301 10.9013 5.63 11.2848 5.58736 11.4398C5.52923 11.6606 5.35095 11.7381 5.15329 11.6567C3.9402 11.1608 3.37435 9.83596 3.37435 8.34061C3.37435 5.87678 5.45559 2.92096 9.57931 2.92096C12.893 2.92096 15.075 5.31893 15.075 7.89124C15.075 11.2964 13.1798 13.8377 10.3893 13.8377C9.45142 13.8377 8.57164 13.3303 8.26933 12.7569C8.26933 12.7569 7.7655 14.7559 7.65698 15.1433C7.47482 15.8135 7.11438 16.4798 6.78495 17.0028C7.58407 17.2384 8.41284 17.3584 9.24601 17.3592C14.0402 17.3592 17.9275 13.4736 17.9275 8.68152C17.9275 3.88945 14.0441 0 9.24988 0Z" fill="white"/>
</svg>
