<svg width="19" height="15" viewBox="0 0 19 15" fill="none" xmlns="http://www.w3.org/2000/svg">
<path d="M18.5683 2.09146C17.8815 2.38987 17.1548 2.58647 16.4113 2.67504C17.1927 2.21747 17.7804 1.49054 18.064 0.630591C17.3252 1.06259 16.5183 1.3657 15.6778 1.52694C15.3239 1.15602 14.8982 0.860936 14.4267 0.659635C13.9552 0.458333 13.4477 0.355016 12.935 0.355963C10.8592 0.355963 9.17944 2.01136 9.17944 4.05199C9.17796 4.33583 9.21049 4.61883 9.27632 4.89494C7.78787 4.82517 6.33038 4.44546 4.99708 3.78013C3.66379 3.1148 2.48405 2.17848 1.53335 1.03109C1.19982 1.59336 1.02343 2.23489 1.02262 2.88864C1.02262 4.17023 1.69126 5.30307 2.7009 5.96675C2.10272 5.95256 1.51679 5.79424 0.992868 5.50523V5.551C0.992868 7.34371 2.28972 8.83508 4.00614 9.17455C3.68337 9.2606 3.35076 9.30419 3.01672 9.30424C2.77969 9.30465 2.5432 9.28166 2.3107 9.23558C2.78786 10.7041 4.17664 11.7721 5.82173 11.8026C4.48498 12.8328 2.84379 13.3896 1.15612 13.3855C0.856553 13.3851 0.557266 13.3672 0.259766 13.3321C1.97664 14.4284 3.97236 15.0083 6.0094 15.0028C12.927 15.0028 16.7061 9.36908 16.7061 4.483C16.7061 4.3228 16.7019 4.1626 16.6943 4.00622C17.4278 3.48445 18.0624 2.83604 18.5683 2.09146Z" fill="white"/>
</svg>
